<svg width="107" height="107" viewBox="0 0 107 107" fill="none" xmlns="http://www.w3.org/2000/svg">
<path d="M49.9275 3.64839C51.8883 1.64596 55.1117 1.64597 57.0725 3.64839L60.5192 7.16829C61.9275 8.60653 64.0609 9.06 65.9325 8.31892L70.5128 6.50523C73.1185 5.47344 76.0633 6.78453 77.0401 9.41135L78.7571 14.0288C79.4587 15.9155 81.2233 17.1976 83.2344 17.2818L88.1565 17.4879C90.9566 17.6051 93.1135 20.0006 92.9374 22.7976L92.6279 27.7143C92.5014 29.7232 93.592 31.6121 95.395 32.5071L99.8077 34.6974C102.318 35.9434 103.314 39.0091 102.016 41.4926L99.7331 45.8583C98.8005 47.6422 99.0285 49.8113 100.312 51.3623L103.452 55.158C105.238 57.3173 104.902 60.5231 102.705 62.2638L98.8442 65.3237C97.2666 66.574 96.5926 68.6483 97.134 70.5871L98.459 75.3319C99.2128 78.0312 97.601 80.8228 94.8865 81.5197L90.1149 82.7446C88.1652 83.2452 86.7057 84.866 86.4117 86.8574L85.6922 91.7309C85.283 94.5034 82.6751 96.3981 79.9118 95.9307L75.0545 95.1089C73.0697 94.7731 71.0772 95.6603 69.9987 97.3599L67.3592 101.519C65.8576 103.886 62.7046 104.556 60.3703 103.005L56.2671 100.279C54.5905 99.1646 52.4094 99.1646 50.7329 100.279L46.6297 103.005C44.2954 104.556 41.1424 103.886 39.6408 101.519L37.0013 97.3599C35.9228 95.6603 33.9303 94.7731 31.9455 95.1089L27.0882 95.9307C24.3249 96.3981 21.7171 94.5034 21.3078 91.7309L20.5883 86.8574C20.2943 84.866 18.8349 83.2452 16.8851 82.7446L12.1135 81.5197C9.39896 80.8228 7.78723 78.0312 8.54099 75.3319L9.86598 70.5871C10.4074 68.6483 9.73337 66.574 8.1558 65.3237L4.29492 62.2638C2.0985 60.5231 1.76156 57.3173 3.54806 55.158L6.6884 51.3623C7.97154 49.8113 8.19953 47.6422 7.26688 45.8583L4.98434 41.4927C3.68583 39.0091 4.68193 35.9434 7.19227 34.6974L11.605 32.5071C13.408 31.6121 14.4986 29.7232 14.3721 27.7143L14.0626 22.7976C13.8865 20.0006 16.0434 17.6051 18.8435 17.4879L23.7656 17.2818C25.7767 17.1976 27.5413 15.9155 28.2429 14.0288L29.9599 9.41136C30.9367 6.78454 33.8815 5.47343 36.4872 6.50522L41.0675 8.31892C42.9391 9.06 45.0725 8.60652 46.4808 7.16829L49.9275 3.64839Z" fill="white"/>
<path d="M68.6531 38.9212C67.6591 37.9994 63.6422 35.0687 54.6949 35.0289C54.6949 35.0289 44.1437 34.3894 39.0001 39.1311C36.1369 42.0093 35.1297 46.2207 35.0235 51.4421C34.9172 56.6634 34.7798 66.4484 44.1647 69.1016H44.1737L44.1677 73.1502C44.1677 73.1502 44.1077 74.7892 45.1815 75.1235C46.4805 75.5289 47.2428 74.2831 48.4829 72.9402C49.1636 72.203 50.1036 71.1202 50.8119 70.2925C57.2304 70.8354 62.1668 69.5945 62.7275 69.4111C64.0234 68.9888 71.3567 68.0447 72.5494 58.2602C73.7805 48.1753 71.9539 41.7964 68.6531 38.9212Z" fill="white"/>
<path d="M66.5662 40.9584C65.7258 40.1911 62.0985 37.9004 54.5299 37.8673C54.5299 37.8673 45.5676 37.2755 41.217 41.2359C38.7956 43.6388 37.9798 47.2119 37.8904 51.5724C37.8009 55.9328 37.3376 64.2628 45.2735 66.4786C45.2735 66.4786 45.2423 72.6627 45.2387 73.2063C45.2387 73.5864 45.2987 73.8464 45.5148 73.9001C45.6702 73.9381 45.9031 73.8572 46.1012 73.6587C47.3701 72.378 51.4326 67.4523 51.4326 67.4523C56.8835 67.81 61.2203 66.7284 61.6867 66.5751C62.7864 66.2198 68.7343 65.7064 69.7409 57.5345C70.7811 49.111 69.3585 43.3613 66.5662 40.9584Z" fill="#7360F2"/>
<path fill-rule="evenodd" clip-rule="evenodd" d="M54.8486 48.0451C54.8632 47.7646 55.1012 47.5491 55.3803 47.5637C56.4244 47.6184 57.2932 47.9361 57.9119 48.579C58.5282 49.2195 58.8303 50.1142 58.8834 51.1888C58.8972 51.4693 58.6822 51.708 58.4031 51.7219C58.1239 51.7358 57.8864 51.5197 57.8726 51.2392C57.8272 50.3193 57.5761 49.6931 57.1844 49.2861C56.7951 48.8816 56.201 48.6252 55.3276 48.5794C55.0485 48.5648 54.834 48.3255 54.8486 48.0451Z" fill="white"/>
<path fill-rule="evenodd" clip-rule="evenodd" d="M54.0817 45.3052C54.1021 45.0251 54.3446 44.8146 54.6233 44.8351C56.7482 44.9914 58.4586 45.7211 59.7045 47.0879L59.7046 47.0881C60.9369 48.4414 61.5226 50.125 61.4801 52.0997C61.4741 52.3805 61.2427 52.6032 60.9633 52.5971C60.6839 52.5911 60.4623 52.3585 60.4683 52.0777C60.5058 50.3363 59.9963 48.915 58.9581 47.7748C57.923 46.6393 56.4761 45.9912 54.5494 45.8495C54.2707 45.829 54.0613 45.5853 54.0817 45.3052Z" fill="white"/>
<path fill-rule="evenodd" clip-rule="evenodd" d="M53.1882 42.7008C53.1902 42.42 53.4183 42.1939 53.6978 42.1958C56.6343 42.2164 59.1165 43.1989 61.1094 45.1514C63.119 47.1203 64.1128 49.8008 64.138 53.1298C64.1401 53.4107 63.9153 53.6401 63.6358 53.6423C63.3564 53.6444 63.1281 53.4184 63.126 53.1376C63.1024 50.0181 62.179 47.6198 60.403 45.8798C58.6103 44.1234 56.3845 43.2318 53.6907 43.2129C53.4113 43.2109 53.1863 42.9817 53.1882 42.7008Z" fill="white"/>
<path d="M55.4541 58.0257C55.4541 58.0257 56.1654 58.086 56.5484 57.6118L57.2951 56.6677C57.6552 56.1996 58.5244 55.9009 59.3756 56.3775C60.0134 56.7431 60.6326 57.1406 61.2309 57.5684C61.7958 57.9859 62.9525 58.9559 62.9561 58.9559C63.5071 59.4235 63.6343 60.11 63.2592 60.8339C63.2592 60.8381 63.2562 60.8454 63.2562 60.849C62.843 61.5689 62.3184 62.2181 61.7021 62.7722C61.6949 62.7758 61.6949 62.7794 61.6883 62.7831C61.1529 63.2327 60.6269 63.4883 60.1103 63.5498C60.0342 63.5632 59.9569 63.5681 59.8798 63.5643C59.652 63.5665 59.4253 63.5315 59.2087 63.4605L59.1919 63.4358C58.3959 63.2102 57.067 62.6455 54.8539 61.4185C53.5732 60.7168 52.3539 59.9073 51.2091 58.9987C50.6354 58.5436 50.088 58.0558 49.5699 57.5376L49.5146 57.4821L49.4594 57.4266L49.4042 57.3711C49.3856 57.353 49.3676 57.3343 49.349 57.3156C48.8334 56.7948 48.348 56.2448 47.8952 55.6681C46.9913 54.5177 46.1859 53.2925 45.4876 52.0056C44.2666 49.7808 43.7048 48.4463 43.4803 47.6452L43.4557 47.6283C43.3853 47.4106 43.3507 47.1828 43.3531 46.9538C43.3489 46.8763 43.3535 46.7986 43.3669 46.7222C43.4313 46.2038 43.686 45.6747 44.131 45.135C44.1346 45.1283 44.1382 45.1283 44.1418 45.1211C44.693 44.5017 45.339 43.9747 46.0554 43.5598C46.059 43.5598 46.0662 43.5562 46.0704 43.5562C46.7907 43.1792 47.4738 43.3071 47.9384 43.8578C47.942 43.8615 48.9054 45.024 49.319 45.5916C49.7447 46.1936 50.1401 46.8165 50.5039 47.4582C50.9781 48.313 50.6809 49.1884 50.2151 49.5491L49.2757 50.2996C48.8015 50.6845 48.864 51.3993 48.864 51.3993C48.864 51.3993 50.2553 56.6918 55.4541 58.0257Z" fill="white"/>
</svg>
