<svg width="91" height="85" viewBox="0 0 91 85" fill="none" xmlns="http://www.w3.org/2000/svg">
<g clip-path="url(#clip0_382_721)">
<path fill-rule="evenodd" clip-rule="evenodd" d="M50.05 0C52.563 0 54.6 1.90279 54.6 4.25V11.7188C54.6 15.5051 59.5008 17.4013 62.3673 14.724L68.0211 9.44274C69.7984 7.78303 72.679 7.78303 74.4562 9.44274L80.8908 15.4532C82.6676 17.1129 82.6676 19.8039 80.8908 21.4636L75.2365 26.7448C72.3705 29.4222 74.4002 34 78.4538 34H86.45C88.963 34 91 35.9028 91 38.25V46.75C91 49.0973 88.963 51 86.45 51H78.4538C74.4002 51 72.3705 55.5777 75.2365 58.2552L80.8908 63.5362C82.6676 65.1963 82.6676 67.887 80.8908 69.547L74.4562 75.5574C72.679 77.217 69.7984 77.217 68.0211 75.5574L62.3673 70.2759C59.5008 67.5988 54.6 69.4947 54.6 73.2811V80.75C54.6 83.0973 52.563 85 50.05 85H40.95C38.4371 85 36.4 83.0973 36.4 80.75V73.2811C36.4 69.4947 31.499 67.5988 28.6327 70.2759L22.9786 75.5574C21.2018 77.217 18.3208 77.217 16.544 75.5574L10.1093 69.547C8.33242 67.887 8.33242 65.1963 10.1093 63.5362L15.7633 58.2552C18.6297 55.5777 16.5996 51 12.546 51H4.55C2.03711 51 0 49.0973 0 46.75V38.25C0 35.9028 2.0371 34 4.55 34H12.546C16.5996 34 18.6297 29.4222 15.7633 26.7448L10.1093 21.4636C8.33242 19.8038 8.33242 17.1129 10.1093 15.4532L16.544 9.44274C18.3208 7.78303 21.2018 7.78303 22.9786 9.44274L28.6327 14.724C31.499 17.4013 36.4 15.5051 36.4 11.7188V4.25C36.4 1.90279 38.4371 0 40.95 0H50.05ZM45.5 63.75C58.0644 63.75 68.25 54.236 68.25 42.5C68.25 30.764 58.0644 21.25 45.5 21.25C32.9355 21.25 22.75 30.764 22.75 42.5C22.75 54.236 32.9355 63.75 45.5 63.75Z" fill="white"/>
</g>
<defs>
<clipPath id="clip0_382_721">
<rect width="91" height="85" fill="white"/>
</clipPath>
</defs>
</svg>
