<svg width="107" height="107" viewBox="0 0 107 107" fill="none" xmlns="http://www.w3.org/2000/svg">
<path d="M49.9275 3.64839C51.8883 1.64596 55.1117 1.64597 57.0725 3.64839L60.5192 7.16829C61.9275 8.60653 64.0609 9.06 65.9325 8.31892L70.5128 6.50523C73.1185 5.47344 76.0633 6.78453 77.0401 9.41135L78.7571 14.0288C79.4587 15.9155 81.2233 17.1976 83.2344 17.2818L88.1565 17.4879C90.9566 17.6051 93.1135 20.0006 92.9374 22.7976L92.6279 27.7143C92.5014 29.7232 93.592 31.6121 95.395 32.5071L99.8077 34.6974C102.318 35.9434 103.314 39.0091 102.016 41.4926L99.7331 45.8583C98.8005 47.6422 99.0285 49.8113 100.312 51.3623L103.452 55.158C105.238 57.3173 104.902 60.5231 102.705 62.2638L98.8442 65.3237C97.2666 66.574 96.5926 68.6483 97.134 70.5871L98.459 75.3319C99.2128 78.0312 97.601 80.8228 94.8865 81.5197L90.1149 82.7446C88.1652 83.2452 86.7057 84.866 86.4117 86.8574L85.6922 91.7309C85.283 94.5034 82.6751 96.3981 79.9118 95.9307L75.0545 95.1089C73.0697 94.7731 71.0772 95.6603 69.9987 97.3599L67.3592 101.519C65.8576 103.886 62.7046 104.556 60.3703 103.005L56.2671 100.279C54.5905 99.1646 52.4094 99.1646 50.7329 100.279L46.6297 103.005C44.2954 104.556 41.1424 103.886 39.6408 101.519L37.0013 97.3599C35.9228 95.6603 33.9303 94.7731 31.9455 95.1089L27.0882 95.9307C24.3249 96.3981 21.7171 94.5034 21.3078 91.7309L20.5883 86.8574C20.2943 84.866 18.8349 83.2452 16.8851 82.7446L12.1135 81.5197C9.39896 80.8228 7.78723 78.0312 8.54099 75.3319L9.86598 70.5871C10.4074 68.6483 9.73337 66.574 8.1558 65.3237L4.29492 62.2638C2.0985 60.5231 1.76156 57.3173 3.54806 55.158L6.6884 51.3623C7.97154 49.8113 8.19953 47.6422 7.26688 45.8583L4.98434 41.4927C3.68583 39.0091 4.68193 35.9434 7.19227 34.6974L11.605 32.5071C13.408 31.6121 14.4986 29.7232 14.3721 27.7143L14.0626 22.7976C13.8865 20.0006 16.0434 17.6051 18.8435 17.4879L23.7656 17.2818C25.7767 17.1976 27.5413 15.9155 28.2429 14.0288L29.9599 9.41136C30.9367 6.78454 33.8815 5.47343 36.4872 6.50522L41.0675 8.31892C42.9391 9.06 45.0725 8.60652 46.4808 7.16829L49.9275 3.64839Z" fill="white"/>
<path d="M54 35C42.9542 35 34 43.9993 34 55.1006C34 66.202 42.9542 75.2013 54 75.2013C65.0458 75.2013 74 66.202 74 55.1006C74 43.9993 65.0458 35 54 35Z" fill="#40B3E0"/>
<path d="M63.7318 46.5626L60.1594 64.664C60.1594 64.664 59.6599 65.9194 58.286 65.3168L50.0425 58.965L47.045 57.509L41.9991 55.8017C41.9991 55.8017 41.2247 55.5256 41.1497 54.9231C41.0747 54.3205 42.0241 53.9942 42.0241 53.9942L62.0829 46.0859C62.0829 46.0859 63.7316 45.3578 63.7316 46.5629" fill="white"/>
<path d="M49.409 64.4604C49.409 64.4604 49.1684 64.4378 48.8684 63.4837C48.5688 62.5297 47.0449 57.5086 47.0449 57.5086L59.1602 49.7761C59.1602 49.7761 59.8598 49.3493 59.8348 49.7761C59.8348 49.7761 59.9596 49.8515 59.5848 50.2029C59.2102 50.5546 50.0676 58.8142 50.0676 58.8142" fill="#D2E5F1"/>
<path d="M53.2034 61.4002L49.9429 64.388C49.9429 64.388 49.6879 64.5824 49.4092 64.4605L50.0336 58.9109" fill="#B5CFE4"/>
</svg>
