<svg width="184" height="184" viewBox="0 0 184 184" fill="none" xmlns="http://www.w3.org/2000/svg">
<g clip-path="url(#clip0_328_706)">
<path fill-rule="evenodd" clip-rule="evenodd" d="M52.0754 109.924C53.1273 110.475 54.0307 110.956 54.5068 111.212C57.4001 112.779 65.0586 115.798 69.6631 119.707C73.177 122.688 74.9289 126.193 72.6724 129.923C70.6214 133.313 66.2204 134.405 60.8062 133.858C49.1536 132.68 32.6971 124.167 28.3897 120.311C27.9197 119.89 27.879 119.17 28.3002 118.7C28.7194 118.232 29.4396 118.191 29.9096 118.612C34.0441 122.311 49.8495 130.458 61.0361 131.589C65.4086 132.031 69.0649 131.479 70.7211 128.741C72.357 126.039 70.7354 123.607 68.188 121.446C63.7077 117.642 56.2383 114.742 53.4203 113.218C51.6542 112.262 44.8157 108.805 44.3009 108.368C43.6559 107.82 43.8818 107.196 43.9713 106.996C44.0405 106.842 44.4352 106.093 45.4322 106.378C59.6505 110.431 84.2741 106.809 103.504 95.9499C122.565 85.1865 136.344 67.2366 129.009 42.3708C128.831 41.7665 129.177 41.1318 129.78 40.9527C130.384 40.7757 131.019 41.1215 131.196 41.7258C138.881 67.7799 124.595 86.6597 104.627 97.9358C87.7982 107.44 66.9448 111.487 52.0754 109.924Z" fill="white"/>
<path fill-rule="evenodd" clip-rule="evenodd" d="M130.308 43.3913C129.268 45.8716 128.312 48.3742 127.079 50.7751C123.795 57.1722 119.028 63.1236 113.109 67.2519C112.59 67.6121 111.88 67.4839 111.52 66.9691C111.16 66.4503 111.288 65.7402 111.803 65.38C117.422 61.4653 121.933 55.8029 125.048 49.7335C126.458 46.9846 127.502 44.0974 128.731 41.2692C128.794 41.1288 129.29 39.8835 129.468 39.6496C129.876 39.1022 130.395 39.1368 130.633 39.1836C130.833 39.2202 131.063 39.3118 131.285 39.5213C131.466 39.6943 131.732 40.1033 131.972 40.7259C132.747 42.7178 133.889 47.6234 134.162 48.4088C137.285 57.4122 141.702 65.2641 146.146 73.647C146.439 74.2045 146.227 74.8963 145.672 75.1913C145.116 75.4863 144.426 75.2727 144.131 74.7172C139.631 66.2285 135.169 58.271 132.009 49.1576C131.82 48.6185 130.937 45.5745 130.308 43.3913Z" fill="white"/>
</g>
<defs>
<clipPath id="clip0_328_706">
<rect width="130" height="130" fill="white" transform="matrix(0.707107 -0.707107 -0.707107 -0.707107 91.9238 183.848)"/>
</clipPath>
</defs>
</svg>
