<svg width="88" height="87" viewBox="0 0 88 87" fill="none" xmlns="http://www.w3.org/2000/svg">
<g clip-path="url(#clip0_382_720)">
<path fill-rule="evenodd" clip-rule="evenodd" d="M8.10894 28.8024C6.88415 23.192 8.47695 17.1011 12.8873 12.7408C17.2977 8.38062 23.4586 6.80592 29.1334 8.01675C32.2801 3.19347 37.7628 0 44 0C50.237 0 55.7198 3.19348 58.8667 8.01679C64.5414 6.80592 70.7023 8.38062 75.1128 12.7408C79.523 17.1011 81.1158 23.192 79.8912 28.8024C84.77 31.9133 88 37.3337 88 43.5C88 49.6661 84.77 55.0867 79.8912 58.1978C81.1158 63.808 79.523 69.8988 75.1128 74.2593C70.7023 78.6193 64.5414 80.194 58.8667 78.9834C55.7198 83.8067 50.237 87 44 87C37.7628 87 32.2801 83.8067 29.1334 78.9834C23.4586 80.194 17.2977 78.6193 12.8873 74.2593C8.47695 69.8988 6.88415 63.808 8.10894 58.1978C3.23018 55.0867 0 49.6661 0 43.5C0 37.3337 3.23018 31.9133 8.10894 28.8024ZM31.4404 55.8953C38.344 62.72 49.537 62.72 56.4406 55.8953C63.3442 49.0702 63.3442 38.0043 56.4406 31.1791C49.537 24.354 38.344 24.354 31.4404 31.1791C24.5369 38.0043 24.5369 49.0702 31.4404 55.8953Z" fill="white"/>
</g>
<defs>
<clipPath id="clip0_382_720">
<rect width="88" height="87" fill="white"/>
</clipPath>
</defs>
</svg>
