<svg width="184" height="184" viewBox="0 0 184 184" fill="none" xmlns="http://www.w3.org/2000/svg">
<g clip-path="url(#clip0_328_702)">
<path fill-rule="evenodd" clip-rule="evenodd" d="M131.772 109.924C130.72 110.475 129.817 110.956 129.341 111.212C126.448 112.779 118.789 115.798 114.185 119.707C110.671 122.688 108.919 126.193 111.175 129.923C113.226 133.313 117.627 134.405 123.042 133.858C134.694 132.68 151.151 124.167 155.458 120.311C155.928 119.89 155.969 119.17 155.547 118.7C155.128 118.232 154.408 118.191 153.938 118.612C149.804 122.311 133.998 130.458 122.812 131.589C118.439 132.031 114.783 131.479 113.127 128.741C111.491 126.039 113.112 123.607 115.66 121.446C120.14 117.642 127.609 114.742 130.427 113.218C132.193 112.262 139.032 108.805 139.547 108.368C140.192 107.82 139.966 107.196 139.876 106.996C139.807 106.842 139.412 106.093 138.415 106.378C124.197 110.431 99.5735 106.809 80.3438 95.9499C61.283 85.1865 47.5041 67.2366 54.8391 42.3708C55.0162 41.7665 54.6703 41.1318 54.068 40.9527C53.4637 40.7757 52.8289 41.1215 52.6519 41.7258C44.9669 67.7799 59.2524 86.6597 79.2207 97.9358C96.0495 107.44 116.903 111.487 131.772 109.924Z" fill="white"/>
<path fill-rule="evenodd" clip-rule="evenodd" d="M53.5399 43.3913C54.5796 45.8716 55.5359 48.3742 56.7689 50.7751C60.0529 57.1722 64.82 63.1236 70.7389 67.2519C71.2578 67.6121 71.9679 67.4839 72.3281 66.9691C72.6882 66.4503 72.56 65.7402 72.0452 65.38C66.4254 61.4653 61.9146 55.8029 58.7995 49.7335C57.3895 46.9846 56.3457 44.0974 55.1167 41.2692C55.0537 41.1288 54.5572 39.8835 54.3802 39.6496C53.9712 39.1022 53.4523 39.1368 53.2143 39.1836C53.0149 39.2202 52.7849 39.3118 52.5632 39.5213C52.3821 39.6943 52.1155 40.1033 51.8755 40.7259C51.1002 42.7178 49.9588 47.6234 49.6861 48.4088C46.5629 57.4122 42.1457 65.2641 37.702 73.647C37.409 74.2045 37.6206 74.8963 38.176 75.1913C38.7315 75.4863 39.4213 75.2727 39.7163 74.7172C44.217 66.2285 48.679 58.271 51.8389 49.1576C52.0281 48.6185 52.9111 45.5745 53.5399 43.3913Z" fill="white"/>
</g>
<defs>
<clipPath id="clip0_328_702">
<rect width="130" height="130" fill="white" transform="translate(91.9238 183.848) rotate(-135)"/>
</clipPath>
</defs>
</svg>
