<svg width="285" height="301" viewBox="0 0 285 301" fill="none" xmlns="http://www.w3.org/2000/svg">
<path d="M284.5 286C284.5 294.008 278.008 300.5 270 300.5L15 300.5C6.99188 300.5 0.5 294.008 0.500001 286L0.500014 15C0.500015 6.99187 6.9919 0.499989 15 0.49999L270 0.500028C278.008 0.500029 284.5 6.99191 284.5 15L284.5 286Z" fill="#F78077" stroke="black"/>
<path d="M201.653 159.63L260.87 159.695L260.935 100.477L201.718 100.412L201.653 159.63Z" fill="#9941F7"/>
<path d="M201.718 100.412L260.935 100.477L201.653 159.63L201.718 100.412Z" fill="#9941F7"/>
<path d="M142.501 100.348L201.718 100.413L201.653 159.63C168.948 159.594 142.465 133.052 142.501 100.348Z" fill="#DE307E"/>
<path d="M24.0652 100.217L83.2828 100.282L83.2177 159.5C50.5123 159.464 24.0292 132.921 24.0652 100.217Z" fill="#F8D748"/>
<path d="M83.2826 100.282L142.5 100.347C142.464 133.052 115.922 159.535 83.2175 159.499L83.2826 100.282Z" fill="#9941F7"/>
<path d="M83.2826 100.282L142.5 100.347C142.464 133.052 115.922 159.535 83.2175 159.499L83.2826 100.282Z" fill="#9941F7"/>
<path d="M46.0891 100.24L83.2826 100.281L83.2417 137.475C62.7001 137.452 46.0665 120.781 46.0891 100.24Z" fill="white"/>
<path d="M83.2822 100.281L120.475 100.322C120.452 120.863 103.782 137.497 83.2413 137.475L83.2822 100.281Z" fill="#DE307E"/>
<path d="M260.935 100.478C260.971 67.7722 234.487 41.2315 201.782 41.1955C201.746 73.9002 228.23 100.442 260.935 100.478Z" fill="#DE307E"/>
<path d="M142.501 100.347C175.205 100.383 201.747 73.9003 201.783 41.1957C169.078 41.1597 142.537 67.6421 142.501 100.347Z" fill="#F8D748"/>
<path d="M83.2827 100.283L142.5 100.348L142.565 41.1308L83.3478 41.0656L83.2827 100.283Z" fill="#F15FFD"/>
<path d="M98.0863 100.299C106.263 100.308 112.898 93.6874 112.907 85.5114C112.916 77.3347 106.296 70.6993 98.1189 70.6903C89.9429 70.6813 83.3076 77.3021 83.2986 85.4788C83.2896 93.6548 89.9103 100.29 98.0863 100.299Z" fill="#F8D748"/>
<path d="M98.0994 88.9981C100.035 89.0002 101.605 87.4334 101.607 85.4989C101.609 83.5636 100.042 81.9934 98.1071 81.9912C96.1725 81.9891 94.6023 83.5559 94.6002 85.4912C94.598 87.4257 96.1648 88.996 98.0994 88.9981Z" fill="#F15FFD"/>
<path d="M127.695 100.331C135.871 100.34 142.508 93.7196 142.517 85.5436C142.526 77.3669 135.904 70.7316 127.728 70.7226C119.552 70.7136 112.916 77.3343 112.907 85.511C112.898 93.687 119.52 100.322 127.695 100.331Z" fill="white"/>
<path d="M127.708 89.0308C129.643 89.0329 131.214 87.4661 131.216 85.5316C131.218 83.5963 129.651 82.0261 127.716 82.0239C125.781 82.0218 124.21 83.5886 124.208 85.5239C124.206 87.4584 125.773 89.0287 127.708 89.0308Z" fill="#9941F7"/>
<path d="M24.0652 100.217L83.2828 100.282L83.348 41.0653L24.1304 41.0002L24.0652 100.217Z" fill="#DE307E"/>
</svg>
