<svg width="285" height="301" viewBox="0 0 285 301" fill="none" xmlns="http://www.w3.org/2000/svg">
<path d="M284.5 286C284.5 294.008 278.008 300.5 270 300.5L15 300.5C6.99188 300.5 0.5 294.008 0.500001 286L0.500014 15C0.500015 6.99187 6.9919 0.499989 15 0.49999L270 0.500028C278.008 0.500029 284.5 6.99191 284.5 15L284.5 286Z" fill="#526FCC" stroke="black"/>
<path d="M142.809 41.1538H83.9036V100.076H142.809V41.1538Z" fill="#F15FFD"/>
<path d="M96.1425 100.076L86.3636 90.2951L83.9036 87.834V96.9997L86.9803 100.076H96.1425Z" fill="#9941F7"/>
<path d="M83.9036 77.5558L93.2251 86.8796L101.221 94.8775L106.419 100.076H115.582L105.802 90.2952L97.8063 82.2962L86.3636 70.8501L83.9036 68.3901V77.5558Z" fill="#9941F7"/>
<path d="M132.104 47.9891L140.1 55.9869L142.81 58.6987V49.533L136.685 43.4068L134.432 41.1523H125.27L132.104 47.9891Z" fill="#9941F7"/>
<path d="M112.664 47.9891L120.661 55.9869L132.104 67.4341L140.099 75.4319L142.81 78.1438V68.9781L136.685 62.8507L125.242 51.4046L117.245 43.4068L114.993 41.1523H105.831L112.664 47.9891Z" fill="#9941F7"/>
<path d="M93.2253 47.9891L101.221 55.9869L112.664 67.4341L120.66 75.4319L132.103 86.8791L140.098 94.8769L142.809 97.5888V88.4231L136.684 82.2957L125.241 70.8496L117.245 62.8507L105.802 51.4046L97.8064 43.4068L95.5543 41.1523H86.392L93.2253 47.9891Z" fill="#9941F7"/>
<path d="M83.9036 58.1105L93.2251 67.4343L101.221 75.4321L112.663 86.8793L120.66 94.8772L125.858 100.076H135.02L125.241 90.2949L117.245 82.296L105.802 70.8499L97.8063 62.8509L86.3636 51.4048L83.9036 48.9448V58.1105Z" fill="#9941F7"/>
<path d="M172.264 100.076V114.807C180.397 114.807 186.99 121.402 186.99 129.538C186.99 137.674 180.397 144.269 172.264 144.269V158.999C188.53 158.999 201.716 145.808 201.716 129.538C201.716 113.267 188.53 100.076 172.264 100.076Z" fill="#F15FFD"/>
<path d="M172.264 158.999C155.997 158.999 142.811 145.808 142.811 129.538C142.811 113.267 155.997 100.076 172.264 100.076" fill="#DE307E"/>
<path d="M186.99 129.538C186.99 121.403 180.397 114.808 172.264 114.808V144.269C180.397 144.269 186.99 137.674 186.99 129.538Z" fill="#DE307E"/>
<path d="M157.537 129.538C157.537 137.674 164.13 144.269 172.263 144.269V114.808C164.13 114.808 157.537 121.403 157.537 129.538Z" fill="#F15FFD"/>
<path d="M201.715 41.1538H142.811V100.076H201.715V41.1538Z" fill="#9941F7"/>
<path d="M172.264 70.615C172.264 54.3438 185.451 41.1538 201.716 41.1538C201.716 57.4239 188.53 70.615 172.264 70.615Z" fill="#DE307E"/>
<path d="M142.811 100.077C142.811 83.8069 155.996 70.6157 172.263 70.6157C172.263 86.8869 159.076 100.077 142.811 100.077Z" fill="#DE307E"/>
<path d="M172.264 70.6157C188.53 70.6157 201.716 83.8069 201.716 100.077C185.451 100.077 172.264 86.8869 172.264 70.6157Z" fill="#DE307E"/>
<path d="M142.811 41.1538C159.076 41.1538 172.263 54.3438 172.263 70.615C155.996 70.615 142.811 57.4239 142.811 41.1538Z" fill="#F15FFD"/>
<path d="M83.9043 41.1538H25V100.076H83.9043V41.1538Z" fill="#F8D748"/>
<path d="M25 70.6147C25 54.3435 38.1855 41.1523 54.4522 41.1523C54.4522 57.4235 41.2656 70.6147 25 70.6147Z" fill="#DE307E"/>
<path d="M54.4518 41.1523C70.7185 41.1523 83.904 54.3435 83.904 70.6147C67.6384 70.6147 54.4518 57.4235 54.4518 41.1523Z" fill="#DE307E"/>
<path d="M83.904 70.6157C83.904 86.8869 70.7185 100.077 54.4518 100.077C54.4518 83.8069 67.6384 70.6157 83.904 70.6157Z" fill="#DE307E"/>
<path d="M54.4522 100.077C38.1855 100.077 25 86.8869 25 70.6157C41.2656 70.6157 54.4522 83.8069 54.4522 100.077Z" fill="#DE307E"/>
<path d="M83.9224 100.122H25.0927V159H83.9224V100.122Z" fill="#F6F1E1"/>
<path d="M142.752 100.122H83.9219V159H142.752V100.122Z" fill="#F7B643"/>
<path d="M54.5075 100.122C38.2623 100.122 25.0927 113.296 25.0927 129.546V129.575C25.0927 145.826 38.2623 159 54.5075 159C70.7528 159 83.9224 145.826 83.9224 129.575V129.547C83.9224 113.296 70.7528 100.122 54.5075 100.122Z" fill="#F78077"/>
<path d="M113.337 159C97.0915 159 83.9219 145.826 83.9219 129.575V129.546C83.9219 113.296 97.0915 100.122 113.337 100.122C129.582 100.122 142.752 113.296 142.752 129.546V129.575C142.752 145.826 129.582 159 113.337 159Z" fill="#9941F7"/>
<path d="M113.337 144.17C105.275 144.17 98.7395 137.632 98.7395 129.569V129.553C98.7395 121.489 105.275 114.951 113.337 114.951C121.399 114.951 127.934 121.489 127.934 129.553V129.569C127.934 137.632 121.399 144.17 113.337 144.17Z" fill="#F6F1E1"/>
<path d="M260.707 100.087H201.823V158.993H260.707V100.087Z" fill="white"/>
<path d="M260.875 41H201.585V100.291H260.875V41Z" fill="#DE307E"/>
<path d="M260.875 41H201.585V100.291H260.875V41Z" fill="#FFBF00"/>
<path d="M231.231 100.291L260.875 70.6453L231.231 41L201.585 70.6453L231.231 100.291Z" fill="#65BBE5"/>
<path d="M231.23 90.7887L251.374 70.6457L231.23 50.5026L211.086 70.6457L231.23 90.7887Z" fill="#FEFEFE"/>
<path d="M231.23 84.8882L245.473 70.6456L231.23 56.4018L216.985 70.6456L231.23 84.8882Z" fill="#FFBF00"/>
</svg>
