<svg width="17" height="17" viewBox="0 0 17 17" fill="none" xmlns="http://www.w3.org/2000/svg">
<g clip-path="url(#clip0_382_1661)">
<path fill-rule="evenodd" clip-rule="evenodd" d="M8.81149 0.115723C9.25343 0.115723 9.61167 0.473975 9.61167 0.915902V2.32211C9.61167 3.03498 10.4735 3.392 10.9777 2.88791L11.972 1.89358C12.2845 1.58109 12.7911 1.58109 13.1037 1.89358L14.2353 3.02521C14.5477 3.33769 14.5477 3.84434 14.2353 4.15683L13.2409 5.15116C12.7369 5.65525 13.0938 6.51716 13.8067 6.51716H15.2129C15.6549 6.51716 16.0131 6.87541 16.0131 7.31734V8.9177C16.0131 9.35963 15.6549 9.71787 15.2129 9.71787H13.8067C13.0938 9.71787 12.7369 10.5797 13.2409 11.0839L14.2353 12.0782C14.5477 12.3907 14.5477 12.8973 14.2353 13.2099L13.1037 14.3415C12.7911 14.6539 12.2845 14.6539 11.972 14.3415L10.9777 13.3471C10.4735 12.8431 9.61167 13.2 9.61167 13.9129V15.3191C9.61167 15.7611 9.25343 16.1193 8.81149 16.1193H7.21114C6.7692 16.1193 6.41096 15.7611 6.41096 15.3191V13.9129C6.41096 13.2 5.54905 12.8431 5.04496 13.3471L4.05063 14.3415C3.73814 14.6539 3.23149 14.6539 2.91901 14.3415L1.78738 13.2099C1.47489 12.8973 1.47489 12.3907 1.78738 12.0782L2.78172 11.0839C3.2858 10.5797 2.92879 9.71787 2.2159 9.71787H0.809701C0.367775 9.71787 0.00952148 9.35963 0.00952148 8.9177V7.31734C0.00952148 6.87541 0.367774 6.51716 0.809701 6.51716H2.2159C2.92878 6.51716 3.2858 5.65525 2.78172 5.15116L1.78738 4.15683C1.47489 3.84433 1.47489 3.33769 1.78738 3.02521L2.91901 1.89358C3.23149 1.58109 3.73814 1.58109 4.05063 1.89358L5.04496 2.88791C5.54905 3.392 6.41096 3.03498 6.41096 2.32211V0.915902C6.41096 0.473975 6.7692 0.115723 7.21114 0.115723H8.81149ZM8.01131 12.1184C10.2209 12.1184 12.0122 10.3271 12.0122 8.11752C12.0122 5.90788 10.2209 4.11662 8.01131 4.11662C5.80168 4.11662 4.01042 5.90788 4.01042 8.11752C4.01042 10.3271 5.80168 12.1184 8.01131 12.1184Z" fill="#CECECF"/>
</g>
<defs>
<clipPath id="clip0_382_1661">
<rect width="16.0036" height="16.0036" fill="white" transform="translate(0.00952148 0.115723)"/>
</clipPath>
</defs>
</svg>
