<svg width="285" height="301" viewBox="0 0 285 301" fill="none" xmlns="http://www.w3.org/2000/svg">
<path d="M270 300.5L15 300.5C6.99185 300.5 0.5 294.008 0.500001 286L0.500014 15C0.500015 6.99187 6.99187 0.499989 15 0.49999L270 0.500028C278.008 0.500029 284.5 6.99191 284.5 15L284.5 286C284.5 294.008 278.008 300.5 270 300.5Z" fill="#BAD7F5" stroke="black"/>
<path d="M202.072 51H143.035V110H202.072V51Z" fill="white"/>
<path d="M202.072 51H143.035V80.4993H202.072V51Z" fill="#FFBAF9"/>
<path d="M202.072 110H143.035V169H202.072V110Z" fill="#FFBAF9"/>
<path d="M172.552 141.281V139.5H174.351C189.66 139.5 202.071 151.91 202.071 167.219V169H200.272C184.962 169 172.552 156.589 172.552 141.281V141.281Z" fill="#F8D748"/>
<path d="M172.553 137.72V139.5H170.755C155.445 139.5 143.035 127.09 143.035 111.78V110H144.833C160.142 110 172.553 122.41 172.553 137.72Z" fill="#F8D748"/>
<path d="M170.755 139.5H172.553V141.281C172.553 156.589 160.142 169 144.833 169H143.035V167.219C143.035 151.91 155.445 139.5 170.755 139.5V139.5Z" fill="#333758"/>
<path d="M174.351 139.5H172.552V137.72C172.552 122.41 184.962 110 200.272 110H202.071V111.78C202.071 127.09 189.66 139.5 174.351 139.5V139.5Z" fill="#333758"/>
<path d="M84.0155 51H25V109.965C25.0075 77.398 51.4263 51 84.0155 51V51Z" fill="white"/>
<path d="M84.016 51C116.609 51 143.032 77.4056 143.032 109.978V51H84.016V51Z" fill="#333758"/>
<path d="M25 109.977V168.928H82.8784C50.8115 168.32 25 142.17 25 109.977Z" fill="#333758"/>
<path d="M84.016 168.957H143.032V109.977C143.032 142.551 116.609 168.957 84.016 168.957Z" fill="#9941F7"/>
<path d="M25 109.965H54.5087C54.5087 109.951 54.5068 109.938 54.5068 109.926C54.5068 93.6389 67.719 80.4361 84.0155 80.4361V51C51.4263 51 25.0075 77.398 25 109.965H25Z" fill="white"/>
<path d="M84.016 51V80.4361C100.312 80.4361 113.524 93.6389 113.524 109.926C113.524 109.943 113.522 109.961 113.522 109.978H143.032C143.032 77.4056 116.609 51 84.016 51V51Z" fill="#FFBAF9"/>
<path d="M84.0155 139.415C67.7313 139.415 54.5295 126.233 54.5087 109.965H25V109.978C25 142.171 50.8115 168.321 82.8784 168.929H84.0155V139.415Z" fill="#FFBAF9"/>
<path d="M84.016 139.414V168.957C116.609 168.957 143.032 142.551 143.032 109.977H113.522C113.494 126.24 100.295 139.414 84.016 139.414V139.414Z" fill="#DE307E"/>
<path d="M54.5073 109.925C54.5073 109.938 54.5092 109.951 54.5092 109.964H84.016V80.4355C67.7195 80.4355 54.5073 93.6383 54.5073 109.925V109.925Z" fill="#F8D748"/>
<path d="M84.016 109.977H113.522C113.522 109.96 113.524 109.942 113.524 109.925C113.524 93.6383 100.312 80.4355 84.016 80.4355V109.977V109.977Z" fill="#333758"/>
<path d="M84.0155 109.965H54.5087C54.5294 126.233 67.7312 139.415 84.0155 139.415V109.965Z" fill="#333758"/>
<path d="M84.016 139.414C100.295 139.414 113.494 126.24 113.522 109.977H84.016V139.414V139.414Z" fill="#F8D748"/>
<path d="M261.15 51H202.14V110.002H261.15V51Z" fill="#F15FFD"/>
<path d="M261.15 110.002H202.14V109.972C202.14 77.4027 228.56 51 261.15 51V110.002Z" fill="#9941F7"/>
<path d="M246.753 124.398H216.54V154.607H246.753V124.398Z" fill="#F15FFD"/>
</svg>
