<svg width="590" height="301" viewBox="0 0 590 301" fill="none" xmlns="http://www.w3.org/2000/svg">
<path d="M589.5 286C589.5 294.008 583.008 300.5 575 300.5L15 300.5C6.99182 300.5 0.5 294.008 0.500001 286L0.500014 15C0.500015 6.99188 6.9919 0.500004 15 0.500005L575 0.500089C583.008 0.50009 589.5 6.99197 589.5 15.0001L589.5 286Z" fill="#F15FFD" stroke="#F15FFD"/>
<mask id="mask0_396_4459" style="mask-type:alpha" maskUnits="userSpaceOnUse" x="0" y="0" width="590" height="301">
<path d="M589.5 286C589.5 294.008 583.008 300.5 575 300.5L15 300.5C6.99182 300.5 0.5 294.008 0.500001 286L0.500014 15C0.500015 6.99188 6.9919 0.500004 15 0.500005L575 0.500089C583.008 0.50009 589.5 6.99197 589.5 15.0001L589.5 286Z" fill="#262626" stroke="black"/>
</mask>
<g mask="url(#mask0_396_4459)">
</g>
<path d="M504.348 126.113C504.418 97.9472 529.98 75.1643 561.441 75.2271L561.314 126.227L504.348 126.113Z" fill="#DE307E"/>
<path d="M528.923 126.163C528.963 110.147 543.498 97.1933 561.387 97.229L561.315 126.228L528.923 126.163Z" fill="#F8D748"/>
<path d="M561.188 177.227L561.314 126.227L504.348 126.113L504.221 177.113L561.188 177.227Z" fill="#9941F7"/>
<path d="M544.932 162.609L544.986 140.781L520.605 140.732L520.55 162.56L544.932 162.609Z" fill="white"/>
<path d="M561.061 228.226L561.188 177.227L504.221 177.113L504.094 228.113L561.061 228.226Z" fill="white"/>
<path d="M504.094 228.113L504.221 177.113C535.683 177.176 561.131 200.06 561.061 228.226L504.094 228.113Z" fill="#DE307E"/>
<path d="M503.967 279.113L504.094 228.113L561.061 228.227C560.99 256.394 535.429 279.176 503.967 279.113Z" fill="#F8D748"/>
<path d="M504.22 177.114L504.347 126.114L447.381 126L447.254 177L504.22 177.114Z" fill="#F8D748"/>
<path d="M504.093 228.113L504.22 177.113L447.254 177L447.127 227.999L504.093 228.113Z" fill="#F15FFD"/>
<path d="M447.444 100.5C447.48 86.4167 460.26 75.0256 475.991 75.057C491.722 75.0883 504.445 86.5304 504.41 100.614C504.375 114.697 491.595 126.088 475.864 126.057C460.133 126.026 447.409 114.584 447.444 100.5Z" fill="#9941F7"/>
<path d="M463.218 100.531C463.234 94.2474 468.937 89.1638 475.956 89.1778C482.975 89.1918 488.653 94.2981 488.637 100.582C488.622 106.866 482.919 111.949 475.9 111.935C468.88 111.921 463.203 106.815 463.218 100.531Z" fill="#DE307E"/>
<path d="M503.966 279.113L504.093 228.113L447.127 228L447 279L503.966 279.113Z" fill="#F15FFD"/>
<path d="M447.127 227.999C447.197 199.833 472.759 177.051 504.22 177.113L504.093 228.113L447.127 227.999Z" fill="#9941F7"/>
<path d="M447.127 228L504.093 228.113L503.966 279.113C472.505 279.051 447.057 256.167 447.127 228Z" fill="#DE307E"/>
<path d="M504.094 228.113L504.157 202.861C519.735 202.892 532.335 214.223 532.3 228.169L504.094 228.113Z" fill="#F15FFD"/>
<path d="M504.031 253.365L504.094 228.113L532.3 228.169C532.265 242.116 519.61 253.396 504.031 253.365Z" fill="#DE307E"/>
<path d="M475.887 228.057C475.922 214.111 488.579 202.83 504.156 202.861L504.093 228.113L475.887 228.057Z" fill="#F8D748"/>
<path d="M475.887 228.057L504.093 228.113L504.03 253.365C488.453 253.334 475.852 242.004 475.887 228.057Z" fill="#9941F7"/>
<path d="M483.822 132.433C483.821 133.083 484.114 133.72 484.627 134.181C485.139 134.642 485.849 134.907 486.576 134.908C487.302 134.91 488.014 134.648 488.529 134.189C489.043 133.73 489.34 133.094 489.341 132.444C489.343 131.793 489.05 131.156 488.537 130.696C488.025 130.234 487.315 129.969 486.588 129.968C485.861 129.966 485.15 130.229 484.636 130.688C484.12 131.147 483.824 131.782 483.822 132.433Z" fill="#F15FFD"/>
<path d="M483.759 157.903L483.759 157.915C483.756 159.28 484.988 160.388 486.512 160.391C488.037 160.394 489.274 159.291 489.278 157.926L489.278 157.914C489.281 156.55 488.049 155.441 486.525 155.438C485.001 155.435 483.763 156.539 483.759 157.903Z" fill="#F15FFD"/>
<path d="M483.791 145.164L483.791 145.176C483.787 146.541 485.02 147.649 486.544 147.652C488.069 147.655 489.306 146.552 489.309 145.187L489.31 145.175C489.313 143.811 488.081 142.702 486.556 142.699C485.032 142.696 483.794 143.8 483.791 145.164Z" fill="#F15FFD"/>
<path d="M483.727 170.647C483.726 171.297 484.019 171.934 484.532 172.395C485.044 172.856 485.754 173.121 486.48 173.123C487.207 173.124 487.919 172.862 488.433 172.403C488.948 171.944 489.244 171.308 489.246 170.658C489.248 170.007 488.954 169.37 488.442 168.909C487.93 168.448 487.219 168.183 486.493 168.182C485.766 168.18 485.055 168.442 484.54 168.901C484.025 169.36 483.729 169.996 483.727 170.647Z" fill="#F15FFD"/>
<path d="M495.156 132.456C495.155 133.106 495.448 133.743 495.961 134.204C496.474 134.665 497.183 134.93 497.91 134.931C498.637 134.933 499.348 134.671 499.863 134.212C500.379 133.753 500.674 133.117 500.676 132.467C500.677 131.816 500.385 131.179 499.872 130.719C499.359 130.257 498.649 129.992 497.923 129.991C497.196 129.989 496.485 130.252 495.969 130.711C495.455 131.169 495.158 131.805 495.156 132.456Z" fill="#F15FFD"/>
<path d="M495.093 157.926L495.093 157.938C495.09 159.302 496.323 160.411 497.847 160.414C499.371 160.417 500.609 159.313 500.612 157.949L500.613 157.937C500.616 156.572 499.383 155.464 497.859 155.461C496.335 155.458 495.096 156.561 495.093 157.926Z" fill="#F15FFD"/>
<path d="M495.125 145.186L495.125 145.199C495.121 146.563 496.355 147.671 497.879 147.675C499.403 147.678 500.641 146.574 500.644 145.21L500.644 145.197C500.648 143.833 499.415 142.725 497.891 142.722C496.367 142.719 495.128 143.822 495.125 145.186Z" fill="#F15FFD"/>
<path d="M495.061 170.669C495.059 171.319 495.353 171.957 495.866 172.417C496.379 172.879 497.088 173.144 497.815 173.145C498.542 173.147 499.253 172.884 499.768 172.425C500.283 171.966 500.579 171.33 500.581 170.68C500.582 170.03 500.29 169.393 499.777 168.931C499.264 168.471 498.554 168.205 497.827 168.204C497.101 168.203 496.39 168.465 495.874 168.924C495.36 169.383 495.063 170.019 495.061 170.669Z" fill="#F15FFD"/>
<path d="M472.488 132.411C472.486 133.061 472.779 133.698 473.291 134.159C473.804 134.62 474.514 134.884 475.241 134.886C475.968 134.887 476.679 134.626 477.194 134.166C477.709 133.708 478.005 133.072 478.006 132.422C478.008 131.771 477.716 131.134 477.203 130.673C476.69 130.212 475.98 129.947 475.253 129.945C474.526 129.944 473.815 130.206 473.3 130.665C472.786 131.124 472.489 131.76 472.488 132.411Z" fill="#F15FFD"/>
<path d="M472.424 157.881L472.424 157.893C472.421 159.257 473.654 160.366 475.178 160.369C476.702 160.372 477.94 159.268 477.943 157.904L477.943 157.892C477.947 156.527 476.714 155.419 475.19 155.416C473.666 155.413 472.428 156.516 472.424 157.881Z" fill="#F15FFD"/>
<path d="M472.456 145.141L472.456 145.154C472.453 146.518 473.685 147.627 475.209 147.63C476.733 147.633 477.971 146.529 477.975 145.165L477.975 145.153C477.978 143.788 476.746 142.68 475.222 142.677C473.698 142.674 472.459 143.777 472.456 145.141Z" fill="#F15FFD"/>
<path d="M472.393 170.625C472.391 171.275 472.684 171.912 473.196 172.372C473.709 172.834 474.419 173.099 475.146 173.1C475.873 173.102 476.584 172.839 477.099 172.38C477.614 171.922 477.91 171.286 477.911 170.636C477.913 169.985 477.621 169.348 477.108 168.886C476.595 168.426 475.885 168.16 475.158 168.159C474.431 168.158 473.72 168.42 473.205 168.879C472.69 169.338 472.394 169.974 472.393 170.625Z" fill="#F15FFD"/>
<path d="M461.153 132.388C461.151 133.038 461.445 133.675 461.958 134.136C462.47 134.597 463.18 134.862 463.906 134.863C464.633 134.865 465.345 134.603 465.86 134.144C466.375 133.685 466.67 133.049 466.672 132.399C466.673 131.749 466.381 131.111 465.869 130.651C465.356 130.189 464.645 129.924 463.919 129.923C463.193 129.921 462.481 130.184 461.966 130.643C461.451 131.102 461.155 131.738 461.153 132.388Z" fill="#F15FFD"/>
<path d="M461.09 157.858L461.09 157.871C461.086 159.235 462.32 160.343 463.843 160.346C465.368 160.349 466.605 159.246 466.609 157.882L466.609 157.869C466.612 156.505 465.38 155.396 463.855 155.393C462.332 155.39 461.093 156.494 461.09 157.858Z" fill="#F15FFD"/>
<path d="M461.121 145.119L461.121 145.131C461.118 146.496 462.351 147.604 463.875 147.607C465.399 147.61 466.637 146.507 466.64 145.142L466.64 145.13C466.644 143.766 465.412 142.657 463.887 142.654C462.364 142.651 461.125 143.755 461.121 145.119Z" fill="#F15FFD"/>
<path d="M461.058 170.602C461.057 171.252 461.35 171.889 461.863 172.349C462.375 172.811 463.085 173.076 463.811 173.077C464.538 173.079 465.25 172.816 465.765 172.357C466.28 171.899 466.575 171.263 466.577 170.613C466.579 169.962 466.286 169.325 465.774 168.863C465.261 168.403 464.551 168.138 463.824 168.136C463.098 168.135 462.386 168.397 461.871 168.856C461.356 169.315 461.06 169.951 461.058 170.602Z" fill="#F15FFD"/>
<path d="M504.604 23.1136C473.143 23.0509 447.581 45.8338 447.511 74.0006L504.478 74.1142L504.604 23.1136Z" fill="#DE307E"/>
<path d="M504.604 23.1138L504.477 74.1144L561.444 74.228C561.514 46.0612 536.066 23.1765 504.604 23.1138Z" fill="#F8D748"/>
<path d="M504.551 44.6428C486.371 44.6065 471.599 57.7724 471.559 74.049L504.478 74.1146L504.551 44.6428Z" fill="white"/>
<path d="M504.551 44.6431L504.477 74.1149L537.397 74.1805C537.437 57.904 522.732 44.6793 504.551 44.6431Z" fill="#F15FFD"/>
</svg>
