<svg width="238" height="183" viewBox="0 0 238 183" fill="none" xmlns="http://www.w3.org/2000/svg">
<path fill-rule="evenodd" clip-rule="evenodd" d="M163.472 146.565C161.949 150.295 155.898 163.732 147.992 163.07C141.333 162.512 137.406 152.291 135.822 147.051C127.491 152.978 116.531 154.961 106.104 151.437C94.7356 147.595 86.8352 138.164 84.4302 127.241C76.8366 130.565 68.0282 131.18 59.5563 128.317C44.0388 123.072 34.7019 107.868 36.2623 92.2357C33.1418 93.0015 29.7735 92.9176 26.5041 91.8127C17.3479 88.7182 12.4339 78.787 15.5284 69.6308C17.8119 62.8741 23.8184 58.4275 30.489 57.8045C30.1105 54.1381 30.4947 50.3336 31.752 46.6136C36.4379 32.7485 51.4765 25.3073 65.3416 29.9932C69.6305 31.4427 73.3046 33.8827 76.1953 36.9722C86.031 25.9403 101.859 21.2237 116.745 26.2544C127.983 30.0526 136.278 38.594 140.153 48.8937C147.765 42.6249 158.346 40.3143 168.376 43.7039C182.596 48.5101 190.747 63.0992 187.861 77.4361C193.826 73.8246 201.283 72.7702 208.406 75.1774C221.225 79.5097 228.104 93.4133 223.772 106.232C219.522 118.806 206.063 125.666 193.452 121.834C195.653 126.387 196.14 131.773 194.393 136.942C190.856 147.406 179.506 153.022 169.042 149.486C166.988 148.792 165.12 147.796 163.472 146.565Z" fill="#9941F7"/>
<path d="M79.8955 69.7972C79.6695 70.327 79.5852 70.8455 79.6428 71.3528C79.7161 71.8537 79.8933 72.2946 80.1744 72.6755C80.4712 73.05 80.8294 73.3267 81.2488 73.5057C81.9773 73.8165 82.6241 73.8445 83.1894 73.5899C83.7657 73.34 84.2369 72.9083 84.603 72.2948L85.9286 73.5453C85.3014 74.4649 84.5169 75.05 83.5751 75.3005C82.6379 75.54 81.6782 75.4501 80.6958 75.031C79.846 74.6684 79.1739 74.1795 78.6797 73.5642C78.1966 72.9537 77.9126 72.2585 77.8278 71.4786C77.7541 70.7035 77.8914 69.9076 78.2399 69.0908C78.5742 68.3071 79.0475 67.6871 79.6597 67.2308C80.2876 66.7681 80.9781 66.4951 81.7311 66.412C82.4842 66.3288 83.2194 66.4402 83.9369 66.7463C84.9082 67.1607 85.6198 67.7709 86.0717 68.5769C86.5284 69.3719 86.6488 70.2517 86.433 71.2164L84.6482 71.042C84.8095 70.4194 84.7676 69.8601 84.5226 69.3642C84.2822 68.8572 83.8751 68.4813 83.3011 68.2364C82.9259 68.0763 82.5137 68.0179 82.0647 68.0611C81.6315 68.0981 81.2166 68.2603 80.82 68.5477C80.4391 68.8288 80.131 69.2453 79.8955 69.7972ZM85.3478 76.82L90.2922 65.2307L92.0306 65.9724L89.7491 71.32C90.1942 70.8576 90.7201 70.5731 91.3265 70.4666C91.9377 70.349 92.5689 70.4291 93.2201 70.7069C94.081 71.0742 94.6468 71.6287 94.9175 72.3704C95.1992 73.1168 95.1611 73.9094 94.8032 74.7483L92.5994 79.9138L90.861 79.1722L92.8529 74.5033C93.1166 73.8852 93.1622 73.3502 92.9897 72.8983C92.8219 72.4353 92.4455 72.079 91.8605 71.8294C91.2976 71.5893 90.7367 71.6044 90.1778 71.8747C89.6189 72.1451 89.1817 72.65 88.8662 73.3895L87.0862 77.5617L85.3478 76.82ZM96.0304 81.5733C95.5999 81.3897 95.226 81.1193 94.9087 80.7621C94.5914 80.4049 94.3836 79.9901 94.2851 79.5175C94.1977 79.0497 94.2599 78.5674 94.4718 78.0708C94.8344 77.2209 95.3843 76.7118 96.1214 76.5436C96.8633 76.3643 97.6702 76.4607 98.5421 76.8327C99.0278 77.0399 99.4678 77.2929 99.8622 77.5916L100.605 78.1434L100.852 77.564C101.074 77.0452 101.069 76.567 100.838 76.1293C100.619 75.6964 100.249 75.3693 99.7306 75.1479C99.2118 74.9266 98.7257 74.8888 98.2721 75.0345C97.8233 75.1692 97.4534 75.455 97.1627 75.8919L95.7664 74.807C96.2726 74.1097 96.9171 73.6541 97.6999 73.4401C98.4937 73.2308 99.3707 73.331 100.331 73.7407C101.446 74.2163 102.183 74.8572 102.544 75.6633C102.92 76.4631 102.897 77.3597 102.473 78.3531L100.389 83.2372L98.7334 82.5308L99.2985 81.2063C98.9336 81.5725 98.4715 81.7994 97.9122 81.8869C97.353 81.9745 96.7257 81.87 96.0304 81.5733ZM97.3614 80.3799C97.9354 80.6248 98.4602 80.6791 98.9358 80.5428C99.4272 80.4002 99.7835 80.0695 100.005 79.5507L100.04 79.4679L99.4817 79.034C98.98 78.6503 98.5746 78.3926 98.2656 78.2607C97.8241 78.0724 97.4332 78.01 97.093 78.0736C96.7574 78.1261 96.5143 78.329 96.3636 78.6822C96.2318 78.9912 96.237 79.3001 96.3793 79.6087C96.5374 79.9109 96.8648 80.168 97.3614 80.3799ZM104.807 85.3176C103.88 84.9221 103.28 84.3857 103.008 83.7086C102.736 83.0315 102.774 82.2846 103.122 81.4678L104.775 77.5937L103.202 76.9227L103.838 75.4326L105.411 76.1036L106.477 73.6036L108.216 74.3453L107.149 76.8453L110.129 78.1167L109.494 79.6068L106.514 78.3353L104.825 82.2923C104.675 82.6455 104.653 82.9559 104.761 83.2236C104.884 83.485 105.084 83.6745 105.36 83.7922C105.691 83.9335 105.989 83.937 106.255 83.8026C106.526 83.6572 106.775 83.3653 107.001 82.9269L108.515 83.9643C108.104 84.715 107.566 85.2099 106.903 85.4489C106.256 85.6816 105.557 85.6378 104.807 85.3176ZM114.786 75.6805L112.596 80.8129C113.063 80.4513 113.593 80.2338 114.186 80.1603C114.794 80.0806 115.368 80.156 115.909 80.3868C116.615 80.6882 117.164 81.1308 117.554 81.7148C117.944 82.2987 118.148 82.9664 118.167 83.718C118.196 84.4743 118.042 85.2498 117.703 86.0445C117.364 86.8392 116.908 87.4796 116.335 87.9659C115.767 88.4411 115.128 88.7297 114.42 88.8317C113.715 88.9227 112.994 88.8104 112.254 88.4949C111.735 88.2736 111.297 87.956 110.938 87.5422C110.58 87.1284 110.357 86.6419 110.269 86.0826L109.775 87.2416L108.103 86.5282L113.047 74.9388L114.786 75.6805ZM111.428 83.3674C111.211 83.8751 111.128 84.3614 111.177 84.8261C111.227 85.2909 111.378 85.7011 111.631 86.0568C111.899 86.4061 112.232 86.6656 112.629 86.8351C113.049 87.014 113.472 87.0772 113.899 87.0245C114.331 86.9607 114.726 86.7836 115.085 86.4931C115.459 86.1963 115.752 85.7995 115.964 85.3028C116.176 84.8061 116.26 84.3199 116.215 83.8441C116.186 83.362 116.039 82.9407 115.775 82.5803C115.527 82.2136 115.199 81.9431 114.791 81.7689C114.405 81.6041 113.988 81.5567 113.54 81.6268C113.109 81.6905 112.7 81.8684 112.315 82.1606C111.94 82.4574 111.644 82.8597 111.428 83.3674ZM120.384 91.9636C119.601 91.6293 118.975 91.1537 118.508 90.5368C118.056 89.9135 117.791 89.2199 117.713 88.4558C117.634 87.6917 117.76 86.9234 118.089 86.1508C118.419 85.3781 118.887 84.7558 119.493 84.2836C120.098 83.8115 120.78 83.5284 121.538 83.4342C122.312 83.3336 123.09 83.4505 123.874 83.7849C124.657 84.1192 125.275 84.598 125.727 85.2212C126.194 85.8381 126.467 86.5286 126.546 87.2927C126.624 88.0568 126.498 88.8251 126.169 89.5977C125.839 90.3704 125.371 90.9927 124.766 91.4648C124.16 91.937 123.47 92.2233 122.696 92.3238C121.939 92.418 121.168 92.298 120.384 91.9636ZM121.055 90.3908C121.718 90.6733 122.363 90.6746 122.991 90.3947C123.635 90.1085 124.115 89.5956 124.43 88.8561C124.746 88.1166 124.782 87.4208 124.538 86.7689C124.31 86.1106 123.865 85.6402 123.203 85.3577C122.54 85.0752 121.887 85.077 121.243 85.3633C120.615 85.6432 120.143 86.1529 119.828 86.8924C119.512 87.6319 119.468 88.3308 119.696 88.9891C119.94 89.641 120.393 90.1082 121.055 90.3908ZM128.904 95.5983C127.977 95.2027 127.377 94.6664 127.105 93.9893C126.833 93.3122 126.871 92.5653 127.219 91.7485L128.872 87.8743L127.299 87.2033L127.935 85.7133L129.508 86.3843L130.574 83.8843L132.313 84.626L131.246 87.126L134.226 88.3974L133.591 89.8874L130.611 88.616L128.922 92.5729C128.772 92.9261 128.75 93.2366 128.858 93.5043C128.981 93.7656 129.181 93.9552 129.457 94.0729C129.788 94.2142 130.086 94.2176 130.352 94.0833C130.623 93.9379 130.872 93.6459 131.098 93.2075L132.612 94.245C132.201 94.9957 131.663 95.4906 131 95.7296C130.353 95.9623 129.654 95.9185 128.904 95.5983ZM135.125 98.2524C134.22 97.8662 133.551 97.3529 133.12 96.7123C132.7 96.0764 132.499 95.3708 132.516 94.5956L134.242 94.4509C134.244 95.026 134.373 95.5048 134.627 95.8873C134.886 96.2587 135.286 96.5598 135.827 96.7906C136.29 96.9884 136.684 97.0586 137.009 97.0014C137.349 96.9378 137.576 96.7735 137.689 96.5086C137.839 96.1554 137.82 95.834 137.63 95.5444C137.445 95.2438 136.998 94.8703 136.288 94.4239C135.478 93.9084 134.918 93.3697 134.61 92.8077C134.307 92.2346 134.294 91.6225 134.572 90.9713C134.755 90.5408 135.05 90.2165 135.456 89.9984C135.867 89.7693 136.333 89.6551 136.855 89.6558C137.388 89.6612 137.919 89.777 138.448 90.003C139.21 90.3279 139.754 90.7359 140.079 91.227C140.404 91.7181 140.579 92.2882 140.602 92.9373L138.966 93.1007C139.031 92.3065 138.666 91.7398 137.872 91.4008C137.485 91.236 137.124 91.1798 136.789 91.2324C136.453 91.2849 136.234 91.4326 136.13 91.6754C136.003 91.9734 136.052 92.2554 136.278 92.5213C136.509 92.7762 136.976 93.1189 137.679 93.5495C138.589 94.1074 139.169 94.6745 139.419 95.2508C139.68 95.8318 139.667 96.4589 139.38 97.1322C139.172 97.6179 138.845 97.9871 138.398 98.2399C137.962 98.4975 137.457 98.6275 136.881 98.63C136.306 98.6325 135.721 98.5067 135.125 98.2524ZM145.919 95.1472L144.197 94.4126L144.833 92.9225L146.555 93.6571L147.092 92.3989C147.426 91.6152 147.951 91.0889 148.666 90.8198C149.385 90.5397 150.175 90.5834 151.036 90.9507C151.975 91.3509 152.563 91.8825 152.802 92.5455C153.052 93.2132 153.031 93.8892 152.739 94.5735C152.669 94.7391 152.609 94.8637 152.56 94.9472L150.905 94.2409C150.974 94.1399 151.032 94.0343 151.079 93.9239C151.206 93.6259 151.21 93.3407 151.092 93.0683C150.984 92.8006 150.754 92.5914 150.401 92.4407C150.069 92.2995 149.76 92.2913 149.472 92.4162C149.195 92.5459 148.974 92.8039 148.809 93.1902L148.293 94.3988L150.446 95.3171L149.81 96.8071L147.657 95.8889L144.945 102.246L143.207 101.505L145.919 95.1472ZM151.169 105.097C150.385 104.763 149.759 104.287 149.292 103.67C148.84 103.047 148.575 102.354 148.497 101.589C148.418 100.825 148.544 100.057 148.874 99.2844C149.203 98.5118 149.671 97.8894 150.277 97.4173C150.883 96.9452 151.564 96.662 152.322 96.5678C153.096 96.4673 153.874 96.5842 154.658 96.9185C155.442 97.2529 156.059 97.7316 156.511 98.3549C156.978 98.9718 157.251 99.6623 157.33 100.426C157.408 101.19 157.283 101.959 156.953 102.731C156.623 103.504 156.156 104.126 155.55 104.598C154.944 105.071 154.254 105.357 153.481 105.457C152.723 105.552 151.952 105.432 151.169 105.097ZM151.84 103.524C152.502 103.807 153.147 103.808 153.775 103.528C154.419 103.242 154.899 102.729 155.215 101.99C155.53 101.25 155.566 100.554 155.322 99.9026C155.094 99.2443 154.649 98.7739 153.987 98.4914C153.325 98.2088 152.672 98.2107 152.028 98.4969C151.399 98.7768 150.927 99.2866 150.612 100.026C150.296 100.766 150.253 101.464 150.481 102.123C150.724 102.775 151.177 103.242 151.84 103.524ZM161.186 99.8994L160.699 101.042C161.032 100.688 161.406 100.469 161.82 100.385C162.25 100.295 162.697 100.348 163.161 100.546C163.812 100.824 164.261 101.27 164.508 101.884C164.759 102.487 164.751 103.103 164.482 103.732C164.332 104.086 164.152 104.4 163.943 104.676L162.221 103.942C162.359 103.74 162.475 103.528 162.57 103.308C162.701 102.999 162.699 102.698 162.563 102.405C162.427 102.112 162.194 101.895 161.863 101.754C161.487 101.594 161.134 101.58 160.804 101.713C160.484 101.85 160.237 102.123 160.063 102.532L157.838 107.747L156.1 107.005L159.448 99.1577L161.186 99.8994ZM78.478 80.9212L68.4334 89.7866L66.6122 89.0097L70.6079 85.4697L70.3655 77.4601L72.2364 78.2583L72.3237 83.9707L76.6569 80.1442L78.478 80.9212ZM78.8037 90.5319C78.0201 90.1976 77.3945 89.7219 76.9271 89.105C76.4755 88.4818 76.2104 87.7882 76.1319 87.0241C76.0535 86.26 76.1791 85.4917 76.5087 84.719C76.8383 83.9464 77.3061 83.324 77.9119 82.8519C78.5178 82.3798 79.1996 82.0966 79.9574 82.0024C80.7309 81.9019 81.5094 82.0188 82.2931 82.3531C83.0767 82.6875 83.6944 83.1663 84.1461 83.7895C84.6135 84.4064 84.8864 85.0969 84.9649 85.861C85.0433 86.625 84.9177 87.3934 84.5881 88.166C84.2585 88.9386 83.7907 89.561 83.1849 90.0331C82.579 90.5052 81.8893 90.7916 81.1158 90.8921C80.3581 90.9863 79.5874 90.8662 78.8037 90.5319ZM79.4748 88.9591C80.137 89.2416 80.7823 89.2429 81.4105 88.963C82.0545 88.6767 82.5342 88.1639 82.8497 87.4243C83.1652 86.6848 83.2011 85.9891 82.9574 85.3372C82.7294 84.6789 82.2843 84.2085 81.6221 83.926C80.9598 83.6434 80.3067 83.6453 79.6627 83.9315C79.0345 84.2115 78.5626 84.7212 78.2471 85.4607C77.9316 86.2002 77.8878 86.8991 78.1158 87.5574C78.3595 88.2093 78.8125 88.6765 79.4748 88.9591ZM94.1192 87.5943L90.7712 95.4419L89.0328 94.7003L89.5625 93.4586C88.5993 94.1566 87.588 94.2796 86.5284 93.8275C85.6674 93.4602 85.078 92.9152 84.7601 92.1925C84.4533 91.4745 84.5118 90.6188 84.9356 89.6254L87.0829 84.5923L88.8213 85.334L86.8505 89.9532C86.5868 90.5713 86.5223 91.1047 86.657 91.5536C86.7964 91.9914 87.1144 92.3163 87.6111 92.5282C88.1961 92.7777 88.7625 92.765 89.3104 92.4899C89.8693 92.2196 90.3065 91.7146 90.622 90.9751L92.3808 86.8526L94.1192 87.5943ZM97.1446 88.885L96.6572 90.0274C96.9907 89.6739 97.3646 89.4551 97.7788 89.3709C98.2089 89.2804 98.6556 89.334 99.1192 89.5318C99.7704 89.8096 100.219 90.2556 100.466 90.8697C100.718 91.4728 100.709 92.0889 100.441 92.718C100.29 93.0712 100.11 93.3858 99.9012 93.6619L98.1794 92.9273C98.3177 92.7254 98.4339 92.5141 98.5281 92.2933C98.66 91.9843 98.6579 91.6833 98.5219 91.3905C98.3859 91.0976 98.1524 90.8806 97.8213 90.7393C97.446 90.5792 97.093 90.5656 96.7623 90.6985C96.4427 90.8361 96.1958 91.1091 96.0215 91.5175L93.7965 96.7327L92.0581 95.991L95.4062 88.1434L97.1446 88.885ZM108.597 89.3483L106.407 94.4807C106.875 94.1191 107.405 93.9016 107.997 93.8282C108.605 93.7484 109.18 93.8239 109.72 94.0546C110.427 94.356 110.975 94.7986 111.365 95.3826C111.755 95.9665 111.96 96.6343 111.978 97.3858C112.008 98.1421 111.853 98.9176 111.514 99.7123C111.175 100.507 110.719 101.147 110.146 101.634C109.578 102.109 108.94 102.398 108.231 102.5C107.527 102.591 106.805 102.478 106.065 102.163C105.547 101.941 105.108 101.624 104.75 101.21C104.391 100.796 104.168 100.31 104.081 99.7505L103.586 100.909L101.914 100.196L106.859 88.6067L108.597 89.3483ZM105.239 97.0353C105.023 97.543 104.939 98.0292 104.989 98.494C105.038 98.9587 105.19 99.3689 105.442 99.7246C105.711 100.074 106.044 100.333 106.441 100.503C106.86 100.682 107.283 100.745 107.71 100.692C108.142 100.629 108.537 100.451 108.896 100.161C109.271 99.8641 109.564 99.4673 109.776 98.9706C109.988 98.474 110.071 97.9877 110.026 97.5119C109.997 97.0298 109.851 96.6086 109.587 96.2482C109.339 95.8815 109.011 95.611 108.602 95.4367C108.216 95.2719 107.799 95.2245 107.352 95.2946C106.92 95.3583 106.512 95.5363 106.126 95.8284C105.751 96.1252 105.456 96.5275 105.239 97.0353ZM121.075 99.0945L117.727 106.942L115.988 106.2L116.518 104.959C115.555 105.657 114.543 105.78 113.484 105.328C112.623 104.96 112.034 104.415 111.716 103.693C111.409 102.975 111.467 102.119 111.891 101.126L114.038 96.0925L115.777 96.8342L113.806 101.453C113.542 102.071 113.478 102.605 113.613 103.054C113.752 103.492 114.07 103.816 114.567 104.028C115.152 104.278 115.718 104.265 116.266 103.99C116.825 103.72 117.262 103.215 117.578 102.475L119.336 98.3529L121.075 99.0945ZM121.89 108.914C120.985 108.528 120.317 108.015 119.886 107.374C119.465 106.738 119.264 106.033 119.282 105.257L121.007 105.113C121.009 105.688 121.138 106.167 121.392 106.549C121.651 106.92 122.051 107.222 122.592 107.452C123.056 107.65 123.45 107.72 123.774 107.663C124.114 107.599 124.341 107.435 124.454 107.17C124.605 106.817 124.585 106.496 124.396 106.206C124.211 105.905 123.764 105.532 123.054 105.086C122.243 104.57 121.684 104.031 121.375 103.469C121.072 102.896 121.059 102.284 121.337 101.633C121.521 101.203 121.815 100.878 122.222 100.66C122.632 100.431 123.099 100.317 123.62 100.318C124.153 100.323 124.684 100.439 125.214 100.665C125.975 100.99 126.519 101.398 126.844 101.889C127.17 102.38 127.344 102.95 127.367 103.599L125.732 103.762C125.797 102.968 125.432 102.402 124.637 102.062C124.251 101.898 123.89 101.842 123.554 101.894C123.219 101.947 122.999 102.094 122.896 102.337C122.768 102.635 122.818 102.917 123.044 103.183C123.274 103.438 123.741 103.781 124.444 104.211C125.354 104.769 125.934 105.336 126.184 105.912C126.445 106.493 126.432 107.121 126.145 107.794C125.938 108.28 125.611 108.649 125.163 108.902C124.727 109.159 124.222 109.289 123.647 109.292C123.072 109.294 122.486 109.168 121.89 108.914ZM131.098 103.371L127.75 111.218L126.011 110.477L129.359 102.629L131.098 103.371ZM130.661 99.3487L132.565 100.161L131.753 102.065L129.849 101.253L130.661 99.3487ZM129.048 111.772L132.396 103.924L134.134 104.666L133.647 105.808C134.116 105.474 134.605 105.291 135.114 105.26C135.634 105.234 136.153 105.332 136.672 105.553C137.488 105.901 138.04 106.443 138.326 107.179C138.617 107.903 138.572 108.712 138.191 109.606L136.001 114.739L134.263 113.997L136.198 109.461C136.467 108.832 136.525 108.282 136.373 107.813C136.237 107.337 135.92 106.994 135.423 106.782C134.894 106.556 134.37 106.56 133.852 106.796C133.338 107.021 132.938 107.47 132.651 108.143L130.786 112.514L129.048 111.772ZM141.481 115.511C142.044 115.751 142.566 115.811 143.048 115.69C143.535 115.559 143.954 115.249 144.307 114.76L145.549 115.975C144.925 116.674 144.213 117.12 143.413 117.314C142.617 117.496 141.756 117.39 140.829 116.994C140.023 116.65 139.382 116.181 138.905 115.586C138.444 114.985 138.174 114.302 138.096 113.538C138.022 112.763 138.164 111.956 138.522 111.117C138.842 110.367 139.286 109.754 139.854 109.279C140.438 108.797 141.092 108.502 141.817 108.394C142.557 108.279 143.308 108.384 144.07 108.709C144.754 109.001 145.302 109.398 145.714 109.9C146.137 110.407 146.385 110.989 146.457 111.646C146.545 112.296 146.438 112.975 146.137 113.681C146.005 113.99 145.848 114.282 145.665 114.556L140.119 112.19C139.794 112.952 139.779 113.63 140.073 114.225C140.382 114.814 140.852 115.243 141.481 115.511ZM143.418 110.192C142.877 109.962 142.347 109.918 141.829 110.063C141.322 110.212 140.917 110.534 140.613 111.031L144.504 112.691L144.584 112.549C144.791 112.064 144.777 111.607 144.542 111.181C144.322 110.748 143.947 110.418 143.418 110.192ZM148.134 120.111C147.229 119.725 146.561 119.211 146.13 118.571C145.71 117.935 145.508 117.229 145.526 116.454L147.251 116.309C147.254 116.884 147.382 117.363 147.636 117.746C147.895 118.117 148.295 118.418 148.836 118.649C149.3 118.847 149.694 118.917 150.018 118.86C150.358 118.796 150.585 118.632 150.698 118.367C150.849 118.014 150.829 117.692 150.64 117.403C150.455 117.102 150.008 116.729 149.298 116.282C148.487 115.767 147.928 115.228 147.619 114.666C147.316 114.093 147.303 113.481 147.581 112.83C147.765 112.399 148.06 112.075 148.466 111.857C148.877 111.628 149.343 111.513 149.864 111.514C150.397 111.52 150.928 111.635 151.458 111.861C152.22 112.186 152.763 112.594 153.088 113.085C153.414 113.576 153.588 114.147 153.611 114.796L151.976 114.959C152.041 114.165 151.676 113.598 150.881 113.259C150.495 113.094 150.134 113.038 149.798 113.091C149.463 113.143 149.243 113.291 149.14 113.534C149.013 113.832 149.062 114.114 149.288 114.38C149.518 114.635 149.985 114.977 150.689 115.408C151.599 115.966 152.179 116.533 152.429 117.109C152.689 117.69 152.676 118.317 152.389 118.991C152.182 119.476 151.855 119.846 151.408 120.098C150.972 120.356 150.466 120.486 149.891 120.488C149.316 120.491 148.73 120.365 148.134 120.111ZM155.132 123.096C154.227 122.71 153.559 122.197 153.127 121.556C152.707 120.92 152.506 120.215 152.524 119.439L154.249 119.295C154.251 119.87 154.38 120.349 154.634 120.731C154.893 121.103 155.293 121.404 155.834 121.634C156.297 121.832 156.691 121.902 157.016 121.845C157.356 121.782 157.583 121.617 157.696 121.352C157.846 120.999 157.827 120.678 157.637 120.388C157.453 120.088 157.005 119.714 156.295 119.268C155.485 118.752 154.925 118.214 154.617 117.652C154.314 117.078 154.301 116.466 154.579 115.815C154.762 115.385 155.057 115.06 155.463 114.842C155.874 114.613 156.34 114.499 156.862 114.5C157.395 114.505 157.926 114.621 158.456 114.847C159.217 115.172 159.761 115.58 160.086 116.071C160.411 116.562 160.586 117.132 160.609 117.781L158.974 117.945C159.038 117.15 158.673 116.584 157.879 116.245C157.492 116.08 157.132 116.024 156.796 116.076C156.46 116.129 156.241 116.276 156.137 116.519C156.01 116.817 156.059 117.099 156.285 117.365C156.516 117.62 156.983 117.963 157.686 118.393C158.596 118.951 159.176 119.518 159.426 120.095C159.687 120.676 159.674 121.303 159.387 121.976C159.179 122.462 158.852 122.831 158.405 123.084C157.969 123.341 157.464 123.471 156.888 123.474C156.313 123.476 155.728 123.351 155.132 123.096Z" fill="white"/>
</svg>
