<svg width="40" height="40" viewBox="0 0 40 40" fill="none" xmlns="http://www.w3.org/2000/svg">
<g clip-path="url(#clip0_382_910)">
<path fill-rule="evenodd" clip-rule="evenodd" d="M19.9988 36.7422C21.3562 38.3712 22.7134 40 25.428 40C31.6768 40 33.4818 31.6888 33.4842 25.4312C33.4842 22.7168 35.113 21.3596 36.742 20.0024C38.371 18.6451 40 17.2879 40 14.5735C40 8.32278 31.6768 6.51548 25.4302 6.51548C22.7158 6.51548 21.3584 4.88662 20.0012 3.25774C18.6439 1.62887 17.2866 0 14.572 0C8.32096 0 6.51356 8.32278 6.51356 14.5689C6.51356 17.2833 4.88518 18.6405 3.25678 19.9977C1.62839 21.355 0 22.7122 0 25.4266C0 31.6772 8.32096 33.4846 14.5697 33.4846C17.2843 33.4846 18.6416 35.1134 19.9988 36.7422ZM20 27.4C24.087 27.4 27.4 24.087 27.4 20C27.4 15.9131 24.087 12.6 20 12.6C15.9131 12.6 12.6 15.9131 12.6 20C12.6 24.087 15.9131 27.4 20 27.4Z" fill="#DE307E"/>
</g>
<defs>
<clipPath id="clip0_382_910">
<rect width="40" height="40" fill="white"/>
</clipPath>
</defs>
</svg>
