<svg width="183" height="95" viewBox="0 0 183 95" fill="none" xmlns="http://www.w3.org/2000/svg">
<path fill-rule="evenodd" clip-rule="evenodd" d="M167.995 0.58853C170.18 0.263494 172.215 1.77138 172.54 3.95647L179.541 51.0212C179.866 53.2063 178.358 55.2411 176.173 55.5662L146.774 59.9393L139.808 75.3229L129.043 62.5768L12.1345 79.9671C9.94943 80.2922 7.91456 78.7843 7.58952 76.5992L0.588582 29.5345C0.263546 27.3494 1.77142 25.3145 3.95652 24.9895L167.995 0.58853Z" fill="#F15FFD"/>
<path d="M172.54 3.95647L172.045 4.03004L172.54 3.95647ZM179.541 51.0212L180.035 50.9476L179.541 51.0212ZM146.774 59.9393L146.319 59.733C146.389 59.5783 146.533 59.4697 146.701 59.4447L146.774 59.9393ZM139.808 75.3229L140.264 75.5292C140.193 75.6855 140.047 75.7946 139.877 75.8182C139.707 75.8418 139.537 75.7766 139.426 75.6455L139.808 75.3229ZM129.043 62.5768L128.97 62.0822C129.141 62.0567 129.314 62.1218 129.425 62.2541L129.043 62.5768ZM172.045 4.03004C171.761 2.11808 169.98 0.798682 168.069 1.08309L167.921 0.0939716C170.38 -0.271694 172.669 1.42467 173.035 3.88291L172.045 4.03004ZM179.046 51.0947L172.045 4.03004L173.035 3.88291L180.035 50.9476L179.046 51.0947ZM176.099 55.0716C178.011 54.7872 179.331 53.0067 179.046 51.0947L180.035 50.9476C180.401 53.4058 178.705 55.6951 176.247 56.0607L176.099 55.0716ZM146.701 59.4447L176.099 55.0716L176.247 56.0607L146.848 60.4338L146.701 59.4447ZM139.353 75.1167L146.319 59.733L147.23 60.1455L140.264 75.5292L139.353 75.1167ZM129.425 62.2541L140.19 75.0003L139.426 75.6455L128.661 62.8994L129.425 62.2541ZM12.061 79.4726L128.97 62.0822L129.117 63.0713L12.2081 80.4617L12.061 79.4726ZM8.08408 76.5256C8.36849 78.4376 10.149 79.757 12.061 79.4726L12.2081 80.4617C9.74986 80.8273 7.46063 79.131 7.09496 76.6727L8.08408 76.5256ZM1.08314 29.4609L8.08408 76.5256L7.09496 76.6727L0.0940235 29.608L1.08314 29.4609ZM4.03009 25.484C2.11812 25.7684 0.798734 27.5489 1.08314 29.4609L0.0940235 29.608C-0.271642 27.1498 1.42473 24.8606 3.88295 24.4949L4.03009 25.484ZM168.069 1.08309L4.03009 25.484L3.88295 24.4949L167.921 0.0939716L168.069 1.08309Z" fill="#F15FFD"/>
<path d="M40.3994 42.5985L40.6596 44.2582L34.4158 45.237L34.9114 48.3984L40.681 47.4939L40.9412 49.1536L35.1716 50.0581L35.8903 54.6421L34.1515 54.9147L32.4169 43.8499L40.3994 42.5985ZM41.6674 48.0681C41.5039 47.0248 41.6073 46.0315 41.9776 45.0881C42.3569 44.1325 42.9442 43.3332 43.7395 42.6903C44.5454 42.0457 45.4805 41.6399 46.5449 41.4731C47.6092 41.3062 48.6183 41.4072 49.5723 41.7759C50.5368 42.1429 51.3405 42.7241 51.9834 43.5195C52.6353 44.3026 53.0429 45.2158 53.2065 46.2591C53.37 47.3024 53.2622 48.3018 52.883 49.2574C52.5126 50.2008 51.9245 50.9948 51.1186 51.6394C50.3232 52.2823 49.3934 52.6872 48.329 52.8541C47.2647 53.0209 46.2503 52.9208 45.2858 52.5538C44.3319 52.1851 43.529 51.6091 42.8772 50.826C42.2342 50.0306 41.831 49.1113 41.6674 48.0681ZM43.4877 47.7989C43.6116 48.5892 43.8953 49.2628 44.3389 49.8194C44.793 50.3745 45.3468 50.7735 46.0004 51.0166C46.6522 51.2491 47.3417 51.3083 48.0689 51.1944C48.796 51.0804 49.4334 50.8077 49.9812 50.3763C50.529 49.9449 50.9289 49.3964 51.1808 48.7307C51.4433 48.0633 51.5126 47.3344 51.3887 46.5441C51.2648 45.7537 50.9811 45.0802 50.5375 44.5235C50.0939 43.9668 49.5454 43.567 48.8918 43.3239C48.2383 43.0809 47.5427 43.0172 46.8051 43.1328C46.0674 43.2485 45.4255 43.5272 44.8794 43.9692C44.3316 44.4005 43.9317 44.9491 43.6798 45.6148C43.4278 46.2805 43.3638 47.0086 43.4877 47.7989ZM61.8896 50.5663C61.7096 50.3138 61.5616 50.0239 61.4455 49.6965C61.3278 49.3587 61.2119 48.8262 61.0979 48.0991C60.9773 47.3298 60.7253 46.8241 60.3418 46.5819C59.9567 46.3292 59.4427 46.2532 58.7999 46.354L56.1127 46.7752L56.8314 51.3592L55.0926 51.6318L53.358 40.567L58.6533 39.7368C59.391 39.6212 60.0492 39.653 60.6279 39.8322C61.2066 40.0114 61.6693 40.3113 62.016 40.732C62.3716 41.1406 62.5931 41.6241 62.6807 42.1826C62.7914 42.8886 62.6914 43.5251 62.3808 44.0921C62.0686 44.6485 61.5837 45.1024 60.9262 45.4538C61.4966 45.5803 61.9624 45.8312 62.3236 46.2064C62.6831 46.5712 62.934 47.1041 63.0763 47.8052C63.2087 48.443 63.326 48.9159 63.4282 49.2238C63.5394 49.5195 63.7246 49.7711 63.9839 49.9788L64.0235 50.2317L61.8896 50.5663ZM59.251 44.5827C59.8517 44.4886 60.2939 44.2789 60.5776 43.9537C60.8719 43.6268 60.9794 43.2105 60.9001 42.7047C60.8208 42.1988 60.591 41.8354 60.2109 41.6142C59.8412 41.3915 59.3561 41.3272 58.7554 41.4213L55.3569 41.9541L55.8525 45.1155L59.251 44.5827ZM66.3339 38.5328L71.5502 37.715C72.2246 37.6093 72.8512 37.646 73.4299 37.8252C74.0175 37.9922 74.4988 38.2731 74.8738 38.6677C75.2488 39.0624 75.4793 39.5338 75.5652 40.0817C75.6511 40.6297 75.5743 41.1384 75.3347 41.6078C75.1058 42.0756 74.731 42.4745 74.2105 42.8044C74.8886 42.86 75.4546 43.0952 75.9083 43.51C76.3709 43.9125 76.6567 44.4615 76.7657 45.157C76.8549 45.7261 76.7725 46.2681 76.5185 46.7829C76.2734 47.2856 75.8923 47.7125 75.3751 48.0635C74.8667 48.4023 74.2754 48.6246 73.6009 48.7303L68.0685 49.5976L66.3339 38.5328ZM72.1898 42.3114C72.8115 42.2139 73.2606 42.014 73.5371 41.7115C73.8225 41.3968 73.9272 40.9971 73.8512 40.5124C73.7801 40.0593 73.5465 39.7396 73.1502 39.5534C72.7523 39.3566 72.2793 39.3012 71.7313 39.3871L68.3328 39.9199L68.7913 42.8442L72.1898 42.3114ZM73.2617 47.083C73.8202 46.9954 74.251 46.7821 74.5542 46.4431C74.8662 46.0918 74.9851 45.6791 74.9107 45.2049C74.8397 44.7518 74.6047 44.3891 74.2057 44.117C73.8068 43.8448 73.3228 43.7533 72.7537 43.8425L69.0391 44.4249L69.5471 47.6653L73.2617 47.083ZM78.054 36.6954L79.0799 43.2395C79.2302 44.1984 79.6101 44.9001 80.2196 45.3444C80.8397 45.787 81.5765 45.9414 82.4301 45.8076C83.2836 45.6738 83.9326 45.3021 84.3769 44.6926C84.8317 44.0815 84.984 43.2964 84.8336 42.3375L83.8077 35.7934L85.5465 35.5208L86.5872 42.1597C86.7293 43.066 86.6652 43.8966 86.3949 44.6516C86.1334 45.3944 85.6802 46.0161 85.0353 46.5167C84.3993 47.0051 83.6176 47.322 82.6902 47.4673C81.7629 47.6127 80.9165 47.5511 80.151 47.2824C79.3943 47.0015 78.7726 46.5483 78.2859 45.9228C77.808 45.2851 77.4981 44.5132 77.356 43.6069L76.3152 36.968L78.054 36.6954ZM93.8041 37.7893C93.5574 37.1801 93.1916 36.7408 92.7067 36.4713C92.2307 36.1897 91.6502 36.1025 90.9652 36.2099C90.3645 36.3041 89.9057 36.511 89.5887 36.8306C89.2701 37.1397 89.1405 37.4839 89.2 37.8632C89.2793 38.3691 89.5986 38.7185 90.1579 38.9115C90.7155 39.094 91.4344 39.2027 92.3144 39.2375C93.6275 39.28 94.6406 39.5098 95.3539 39.9271C96.0671 40.3443 96.4931 40.9955 96.6319 41.8807C96.731 42.513 96.641 43.1101 96.362 43.6721C96.0814 44.2236 95.6323 44.6989 95.0146 45.098C94.4059 45.4849 93.68 45.7445 92.8369 45.8767C91.7832 46.0419 90.7529 45.9442 89.7463 45.5838C88.7485 45.2112 87.9572 44.4337 87.3724 43.2513L88.8711 41.9637C89.2117 42.828 89.7037 43.4527 90.3471 43.8377C90.9905 44.2227 91.739 44.3483 92.5926 44.2145C93.3408 44.0972 93.9183 43.8555 94.3252 43.4894C94.732 43.1233 94.8991 42.7084 94.8264 42.2447C94.7571 41.8021 94.5007 41.4752 94.0573 41.264C93.6228 41.0406 92.9189 40.9242 91.9457 40.9148C90.6359 40.8934 89.5973 40.673 88.8297 40.2534C88.071 39.8217 87.6157 39.1211 87.4637 38.1516C87.3794 37.6142 87.459 37.0889 87.7025 36.5756C87.9565 36.0608 88.3571 35.6201 88.9042 35.2536C89.4514 34.8871 90.1044 34.6443 90.8631 34.5254C91.7904 34.38 92.6548 34.4874 93.4563 34.8477C94.2561 35.1973 94.8757 35.775 95.3151 36.5807L93.8041 37.7893ZM96.2559 33.8419L97.9947 33.5693L99.7293 44.6342L97.9905 44.9068L96.2559 33.8419ZM102.952 44.1289L101.214 44.4015L99.4791 33.3366L102.498 32.8633L109.19 41.8716L107.651 32.0555L109.39 31.7829L111.125 42.8478L108.106 43.3211L101.416 34.3286L102.952 44.1289ZM118.945 30.285L119.205 31.9447L112.882 32.9359L113.329 35.7812L119.177 34.8643L119.437 36.524L113.589 37.4409L114.097 40.6813L120.578 39.6653L120.838 41.3251L112.618 42.6136L110.884 31.5488L118.945 30.285ZM126.949 32.5932C126.703 31.984 126.337 31.5447 125.852 31.2752C125.376 30.9936 124.795 30.9064 124.11 31.0138C123.51 31.108 123.051 31.3149 122.734 31.6345C122.415 31.9435 122.286 32.2878 122.345 32.6671C122.424 33.173 122.744 33.5224 123.303 33.7154C123.861 33.8979 124.58 34.0066 125.46 34.0414C126.773 34.0838 127.786 34.3137 128.499 34.7309C129.212 35.1482 129.638 35.7994 129.777 36.6846C129.876 37.3169 129.786 37.914 129.507 38.476C129.227 39.0274 128.777 39.5027 128.16 39.9019C127.551 40.2888 126.825 40.5484 125.982 40.6805C124.928 40.8457 123.898 40.7481 122.891 40.3877C121.894 40.015 121.102 39.2376 120.518 38.0552L122.016 36.7676C122.357 37.6319 122.849 38.2566 123.492 38.6416C124.136 39.0266 124.884 39.1522 125.738 39.0183C126.486 38.901 127.063 38.6593 127.47 38.2933C127.877 37.9272 128.044 37.5123 127.972 37.0486C127.902 36.606 127.646 36.2791 127.202 36.0679C126.768 35.8445 126.064 35.7281 125.091 35.7187C123.781 35.6973 122.742 35.4768 121.975 35.0573C121.216 34.6256 120.761 33.925 120.609 32.9555C120.525 32.4181 120.604 31.8928 120.848 31.3795C121.102 30.8646 121.502 30.424 122.049 30.0575C122.597 29.691 123.25 29.4482 124.008 29.3293C124.936 29.1839 125.8 29.2913 126.601 29.6515C127.401 30.0012 128.021 30.5789 128.46 31.3846L126.949 32.5932ZM136.301 31.1272C136.054 30.518 135.688 30.0787 135.203 29.8092C134.727 29.5276 134.147 29.4404 133.462 29.5478C132.861 29.642 132.402 29.8488 132.085 30.1685C131.767 30.4775 131.637 30.8218 131.697 31.2011C131.776 31.707 132.095 32.0564 132.654 32.2494C133.212 32.4319 133.931 32.5406 134.811 32.5754C136.124 32.6178 137.137 32.8477 137.85 33.2649C138.564 33.6822 138.99 34.3334 139.128 35.2186C139.228 35.8509 139.138 36.448 138.859 37.01C138.578 37.5614 138.129 38.0367 137.511 38.4359C136.902 38.8228 136.177 39.0824 135.334 39.2145C134.28 39.3797 133.25 39.2821 132.243 38.9217C131.245 38.549 130.454 37.7715 129.869 36.5892L131.368 35.3016C131.708 36.1659 132.2 36.7906 132.844 37.1756C133.487 37.5606 134.236 37.6861 135.089 37.5523C135.837 37.435 136.415 37.1933 136.822 36.8272C137.229 36.4611 137.396 36.0463 137.323 35.5826C137.254 35.14 136.997 34.8131 136.554 34.6019C136.119 34.3785 135.416 34.2621 134.442 34.2527C133.133 34.2313 132.094 34.0108 131.326 33.5913C130.568 33.1596 130.112 32.459 129.96 31.4895C129.876 30.9521 129.956 30.4268 130.199 29.9135C130.453 29.3986 130.854 28.9579 131.401 28.5914C131.948 28.2249 132.601 27.9822 133.36 27.8633C134.287 27.7179 135.151 27.8253 135.953 28.1855C136.753 28.5352 137.372 29.1129 137.812 29.9186L136.301 31.1272Z" fill="white"/>
</svg>
