<svg width="318" height="210" viewBox="0 0 318 210" fill="none" xmlns="http://www.w3.org/2000/svg">
<path fill-rule="evenodd" clip-rule="evenodd" d="M131.357 19.5342C131.357 19.5342 97.6923 17.7498 84.4167 31.185C80.2751 35.3765 76.1959 42.9945 74.734 45.8654C45.0743 44.1555 23.6679 50.1898 17.7605 64.3118C6.1908 91.9698 58.4529 140.176 134.491 171.984C210.529 203.792 281.55 207.156 293.12 179.498C304.689 151.84 252.427 103.633 176.389 71.8257C150.834 61.1358 125.846 53.6586 103.491 49.4919C103.784 48.0029 105.406 40.1958 108.058 35.7269C113.713 26.1981 131.357 19.5342 131.357 19.5342Z" fill="#F8D748"/>
<path d="M84.4167 31.185L84.7724 31.5364L84.4167 31.185ZM131.357 19.5342L131.534 20.0019L131.384 19.0349L131.357 19.5342ZM74.734 45.8654L74.7052 46.3646L75.0313 46.3834L75.1795 46.0923L74.734 45.8654ZM17.7605 64.3118L18.2218 64.5047L17.7605 64.3118ZM134.491 171.984L134.298 172.446L134.491 171.984ZM293.12 179.498L293.581 179.691L293.12 179.498ZM176.389 71.8257L176.196 72.2869L176.389 71.8257ZM103.491 49.4919L103.001 49.3954L102.903 49.8909L103.4 49.9834L103.491 49.4919ZM108.058 35.7269L107.628 35.4717L108.058 35.7269ZM84.7724 31.5364C88.0167 28.2531 92.5306 25.878 97.514 24.1695C102.493 22.4625 107.909 21.4318 112.926 20.8177C117.941 20.2038 122.545 20.0077 125.896 19.9653C127.571 19.944 128.932 19.9612 129.873 19.9836C130.343 19.9948 130.709 20.0074 130.956 20.0171C131.08 20.0219 131.174 20.026 131.237 20.029C131.269 20.0304 131.292 20.0316 131.308 20.0323C131.316 20.0327 131.322 20.033 131.326 20.0332C131.327 20.0333 131.329 20.0334 131.33 20.0334C131.33 20.0335 131.33 20.0335 131.331 20.0335C131.331 20.0335 131.331 20.0335 131.357 19.5342C131.384 19.0349 131.384 19.0349 131.383 19.0349C131.383 19.0349 131.382 19.0348 131.382 19.0348C131.381 19.0347 131.379 19.0346 131.377 19.0345C131.372 19.0343 131.366 19.034 131.358 19.0336C131.341 19.0327 131.316 19.0315 131.283 19.03C131.218 19.027 131.122 19.0228 130.996 19.0178C130.743 19.0079 130.373 18.9952 129.897 18.9839C128.945 18.9612 127.572 18.9439 125.883 18.9653C122.507 19.0081 117.865 19.2057 112.805 19.8251C107.746 20.4443 102.256 21.4866 97.1897 23.2236C92.1271 24.9592 87.4545 27.3993 84.0611 30.8335L84.7724 31.5364ZM75.1795 46.0923C76.6453 43.2138 80.6932 35.6647 84.7724 31.5364L84.0611 30.8335C79.8569 35.0883 75.7464 42.7752 74.2884 45.6386L75.1795 46.0923ZM18.2218 64.5047C21.0964 57.6327 27.767 52.6655 37.4892 49.6289C47.2084 46.5933 59.9089 45.5116 74.7052 46.3646L74.7627 45.3663C59.8993 44.5093 47.0669 45.5898 37.1911 48.6744C27.3183 51.758 20.332 56.8689 17.2993 64.1188L18.2218 64.5047ZM134.684 171.523C96.7043 155.636 64.6829 135.66 43.6119 116.224C33.0747 106.505 25.2968 96.9392 20.8729 88.1069C16.4481 79.2728 15.4067 71.2343 18.2218 64.5047L17.2993 64.1188C14.3295 71.2183 15.4822 79.5774 19.9788 88.5548C24.4763 97.5341 32.3469 107.194 42.9338 116.959C64.111 136.493 96.2398 156.525 134.298 172.446L134.684 171.523ZM292.658 179.305C289.843 186.035 283.388 190.937 273.991 193.99C264.596 197.041 252.324 198.22 238.005 197.541C209.371 196.185 172.664 187.41 134.684 171.523L134.298 172.446C172.357 188.366 209.179 197.177 237.957 198.54C252.344 199.222 264.749 198.043 274.3 194.941C283.85 191.839 290.611 186.791 293.581 179.691L292.658 179.305ZM176.196 72.2869C214.176 88.1744 246.197 108.15 267.268 127.586C277.805 137.305 285.583 146.871 290.007 155.703C294.432 164.537 295.473 172.576 292.658 179.305L293.581 179.691C296.551 172.592 295.398 164.232 290.901 155.255C286.404 146.276 278.533 136.616 267.946 126.851C246.769 107.317 214.64 87.2847 176.582 71.3644L176.196 72.2869ZM103.4 49.9834C125.716 54.143 150.67 61.6093 176.196 72.2869L176.582 71.3644C150.998 60.6623 125.976 53.1742 103.583 49.0003L103.4 49.9834ZM107.628 35.4717C106.268 37.7633 105.186 40.8829 104.409 43.589C103.63 46.3042 103.149 48.6433 103.001 49.3954L103.982 49.5883C104.127 48.8515 104.602 46.5426 105.371 43.8648C106.142 41.1779 107.196 38.1595 108.488 35.9821L107.628 35.4717ZM131.357 19.5342C131.181 19.0664 131.181 19.0665 131.18 19.0666C131.18 19.0666 131.18 19.0668 131.18 19.0669C131.179 19.0671 131.178 19.0675 131.177 19.0679C131.174 19.0688 131.171 19.0701 131.167 19.0718C131.158 19.0752 131.144 19.0803 131.127 19.0869C131.093 19.1002 131.042 19.1198 130.976 19.1458C130.843 19.1977 130.649 19.2747 130.4 19.376C129.902 19.5786 129.186 19.8782 128.309 20.2673C126.557 21.0454 124.16 22.1829 121.585 23.6207C116.458 26.4826 110.529 30.5847 107.628 35.4717L108.488 35.9821C111.243 31.3403 116.963 27.346 122.072 24.4938C124.615 23.0745 126.983 21.9505 128.715 21.1813C129.581 20.7968 130.287 20.5013 130.777 20.3023C131.021 20.2027 131.211 20.1273 131.34 20.077C131.404 20.0518 131.453 20.0328 131.486 20.0203C131.502 20.014 131.514 20.0094 131.523 20.0063C131.527 20.0048 131.53 20.0036 131.531 20.0029C131.532 20.0025 131.533 20.0023 131.534 20.0021C131.534 20.002 131.534 20.002 131.534 20.002C131.534 20.0019 131.534 20.0019 131.357 19.5342Z" fill="#F8D748"/>
<path d="M78.0701 88.2076C77.7999 88.7877 77.6875 89.3605 77.733 89.9259C77.7962 90.4849 77.977 90.981 78.2754 91.4141C78.5914 91.8408 78.9791 92.1611 79.4384 92.3751C80.2361 92.7466 80.9534 92.8013 81.5904 92.5391C82.2394 92.2825 82.7784 91.8201 83.2072 91.1521L84.634 92.5889C83.9041 93.5874 83.0116 94.2087 81.9566 94.4527C80.9072 94.6846 79.8447 94.55 78.769 94.049C77.8383 93.6154 77.1098 93.0481 76.5833 92.3469C76.0689 91.6513 75.7787 90.869 75.7129 89.9999C75.6591 89.1364 75.8405 88.2575 76.2571 87.3631C76.6569 86.505 77.2049 85.8336 77.9013 85.349C78.6155 84.8579 79.3922 84.5799 80.2315 84.5149C81.0707 84.4498 81.8832 84.6003 82.6688 84.9662C83.7324 85.4617 84.5005 86.1651 84.9732 87.0766C85.4515 87.976 85.5533 88.9574 85.2786 90.0209L83.3029 89.7625C83.5046 89.0769 83.4784 88.4543 83.2243 87.8946C82.9758 87.3229 82.5373 86.8907 81.9088 86.5979C81.4978 86.4065 81.0423 86.3267 80.5421 86.3584C80.0596 86.3837 79.5929 86.5488 79.1421 86.8536C78.7089 87.1519 78.3516 87.6033 78.0701 88.2076ZM83.8701 96.2045L89.7815 83.5137L91.6851 84.4004L88.9574 90.2563C89.4686 89.7589 90.0628 89.4621 90.7402 89.3658C91.4232 89.2573 92.1212 89.3692 92.8343 89.7014C93.777 90.1405 94.3852 90.7768 94.6589 91.6103C94.9446 92.4495 94.8736 93.3283 94.4457 94.2469L91.8109 99.9033L89.9073 99.0166L92.2887 93.904C92.604 93.2272 92.6741 92.6347 92.4989 92.1266C92.3294 91.6063 91.9243 91.197 91.2838 90.8986C90.6673 90.6115 90.0439 90.6079 89.4134 90.8879C88.7829 91.1678 88.279 91.7127 87.9018 92.5225L85.7737 97.0912L83.8701 96.2045ZM95.5608 101.871C95.0895 101.651 94.6841 101.337 94.3447 100.929C94.0053 100.521 93.7895 100.053 93.6973 99.5244C93.6172 99.0017 93.7038 98.4684 93.9571 97.9245C94.3906 96.9938 95.0197 96.4485 95.8445 96.2884C96.6748 96.1163 97.5674 96.2526 98.5222 96.6973C99.054 96.945 99.5335 97.2419 99.9607 97.588L100.766 98.2278L101.061 97.5933C101.326 97.0252 101.338 96.494 101.098 95.9996C100.869 95.5108 100.471 95.1341 99.9032 94.8695C99.3351 94.6049 98.7966 94.5452 98.2876 94.6906C97.7843 94.8239 97.3632 95.1278 97.0244 95.6025L95.5132 94.347C96.1007 93.591 96.833 93.1084 97.71 92.8992C98.5991 92.6956 99.5695 92.8387 100.621 93.3285C101.842 93.8971 102.638 94.6356 103.009 95.5439C103.398 96.4458 103.339 97.4406 102.832 98.5284L100.341 103.877L98.5279 103.032L99.2035 101.582C98.7849 101.975 98.2635 102.21 97.6393 102.287C97.0151 102.364 96.3223 102.225 95.5608 101.871ZM97.0823 100.594C97.7108 100.886 98.2916 100.966 98.8248 100.832C99.3756 100.691 99.7834 100.337 100.048 99.7688L100.09 99.6782L99.4857 99.176C98.9425 98.7317 98.5017 98.4308 98.1633 98.2731C97.6798 98.0479 97.248 97.9645 96.8679 98.0227C96.4933 98.0689 96.216 98.2854 96.0358 98.6721C95.8782 99.0106 95.8728 99.3537 96.0197 99.7016C96.1842 100.043 96.5384 100.34 97.0823 100.594ZM105.171 106.347C104.156 105.874 103.51 105.257 103.232 104.495C102.954 103.733 103.024 102.905 103.44 102.011L105.417 97.7686L103.694 96.9663L104.454 95.3346L106.177 96.1369L107.452 93.3993L109.355 94.2861L108.08 97.0236L111.343 98.5437L110.583 100.175L107.32 98.6553L105.302 102.988C105.122 103.375 105.086 103.719 105.196 104.02C105.324 104.315 105.538 104.533 105.841 104.673C106.203 104.842 106.535 104.857 106.835 104.717C107.141 104.566 107.428 104.251 107.695 103.772L109.339 104.979C108.854 105.798 108.24 106.328 107.495 106.569C106.768 106.804 105.993 106.73 105.171 106.347ZM116.603 96.0072L113.985 101.627C114.517 101.243 115.113 101.02 115.774 100.96C116.452 100.894 117.087 100.999 117.679 101.274C118.453 101.635 119.046 102.146 119.458 102.809C119.87 103.471 120.073 104.22 120.066 105.056C120.071 105.897 119.871 106.752 119.466 107.622C119.061 108.493 118.531 109.187 117.877 109.707C117.229 110.214 116.51 110.511 115.719 110.599C114.934 110.674 114.136 110.523 113.326 110.146C112.758 109.881 112.283 109.513 111.9 109.04C111.517 108.568 111.287 108.019 111.21 107.395L110.619 108.664L108.788 107.811L114.699 95.1205L116.603 96.0072ZM112.595 104.422C112.336 104.978 112.226 105.515 112.264 106.033C112.302 106.551 112.455 107.012 112.723 107.416C113.008 107.813 113.368 108.114 113.804 108.316C114.263 108.53 114.73 108.616 115.206 108.573C115.688 108.518 116.133 108.335 116.542 108.026C116.969 107.71 117.309 107.28 117.562 106.736C117.816 106.192 117.926 105.655 117.894 105.125C117.879 104.588 117.731 104.115 117.452 103.706C117.189 103.289 116.835 102.977 116.388 102.769C115.965 102.572 115.503 102.504 115.004 102.565C114.522 102.621 114.062 102.803 113.623 103.114C113.197 103.43 112.854 103.866 112.595 104.422ZM122.229 114.293C121.371 113.893 120.694 113.342 120.197 112.64C119.718 111.932 119.449 111.152 119.39 110.301C119.33 109.449 119.498 108.601 119.892 107.755C120.286 106.908 120.828 106.234 121.518 105.732C122.208 105.23 122.975 104.94 123.82 104.863C124.683 104.779 125.543 104.937 126.401 105.337C127.259 105.737 127.928 106.291 128.407 106.999C128.904 107.701 129.182 108.478 129.241 109.329C129.3 110.181 129.133 111.03 128.739 111.876C128.345 112.722 127.803 113.396 127.113 113.898C126.423 114.4 125.647 114.693 124.784 114.777C123.939 114.854 123.088 114.693 122.229 114.293ZM123.032 112.571C123.757 112.909 124.473 112.933 125.181 112.645C125.907 112.351 126.458 111.799 126.835 110.989C127.213 110.179 127.278 109.408 127.031 108.675C126.801 107.936 126.324 107.397 125.599 107.059C124.874 106.722 124.148 106.7 123.423 106.994C122.715 107.282 122.172 107.831 121.795 108.641C121.418 109.451 121.344 110.226 121.573 110.965C121.82 111.698 122.306 112.233 123.032 112.571ZM131.558 118.639C130.543 118.166 129.897 117.548 129.619 116.786C129.341 116.025 129.411 115.197 129.828 114.302L131.804 110.06L130.081 109.258L130.841 107.626L132.564 108.428L133.839 105.691L135.742 106.577L134.467 109.315L137.731 110.835L136.971 112.467L133.707 110.947L131.689 115.28C131.509 115.666 131.474 116.01 131.583 116.311C131.711 116.606 131.926 116.824 132.228 116.965C132.59 117.134 132.922 117.148 133.222 117.009C133.528 116.857 133.815 116.542 134.082 116.063L135.726 117.27C135.242 118.089 134.627 118.619 133.882 118.86C133.155 119.095 132.38 119.021 131.558 118.639ZM138.371 121.812C137.38 121.35 136.656 120.756 136.201 120.029C135.757 119.307 135.559 118.516 135.607 117.656L137.528 117.558C137.51 118.197 137.635 118.733 137.904 119.167C138.178 119.589 138.611 119.938 139.203 120.214C139.711 120.45 140.146 120.543 140.508 120.491C140.888 120.433 141.146 120.258 141.281 119.968C141.461 119.582 141.451 119.224 141.251 118.895C141.057 118.555 140.574 118.124 139.802 117.602C138.92 117.001 138.318 116.382 137.997 115.747C137.68 115.099 137.688 114.419 138.021 113.706C138.24 113.235 138.579 112.885 139.038 112.658C139.503 112.418 140.025 112.308 140.604 112.328C141.195 112.353 141.781 112.501 142.361 112.771C143.195 113.16 143.784 113.633 144.127 114.19C144.471 114.747 144.644 115.386 144.646 116.108L142.824 116.23C142.925 115.35 142.54 114.708 141.67 114.303C141.247 114.106 140.848 114.03 140.474 114.076C140.099 114.122 139.85 114.278 139.726 114.544C139.574 114.871 139.618 115.186 139.86 115.489C140.106 115.781 140.612 116.178 141.378 116.682C142.368 117.334 142.992 117.985 143.248 118.634C143.517 119.289 143.48 119.985 143.136 120.722C142.889 121.254 142.512 121.652 142.006 121.917C141.513 122.187 140.947 122.313 140.308 122.295C139.669 122.277 139.023 122.116 138.371 121.812ZM150.471 118.755L148.585 117.877L149.345 116.245L151.231 117.123L151.872 115.746C152.272 114.887 152.874 114.322 153.678 114.049C154.487 113.764 155.363 113.841 156.306 114.28C157.333 114.759 157.967 115.371 158.209 116.116C158.462 116.866 158.414 117.616 158.065 118.365C157.981 118.547 157.91 118.683 157.853 118.774L156.04 117.93C156.121 117.82 156.189 117.705 156.245 117.584C156.397 117.257 156.412 116.941 156.29 116.634C156.181 116.333 155.932 116.092 155.546 115.912C155.183 115.743 154.84 115.723 154.515 115.851C154.203 115.985 153.948 116.264 153.751 116.687L153.134 118.01L155.491 119.108L154.731 120.74L152.374 119.642L149.131 126.604L147.228 125.717L150.471 118.755ZM155.939 129.995C155.081 129.596 154.404 129.045 153.907 128.343C153.428 127.634 153.159 126.854 153.099 126.003C153.04 125.151 153.207 124.303 153.601 123.457C153.996 122.611 154.538 121.936 155.228 121.434C155.917 120.932 156.685 120.642 157.53 120.565C158.392 120.481 159.253 120.64 160.111 121.039C160.969 121.439 161.638 121.993 162.117 122.702C162.613 123.404 162.891 124.18 162.951 125.032C163.01 125.883 162.843 126.732 162.449 127.578C162.055 128.424 161.513 129.098 160.823 129.6C160.133 130.103 159.356 130.396 158.494 130.479C157.649 130.556 156.797 130.395 155.939 129.995ZM156.741 128.273C157.467 128.611 158.183 128.636 158.891 128.348C159.617 128.053 160.168 127.501 160.545 126.691C160.922 125.881 160.987 125.11 160.74 124.377C160.511 123.638 160.034 123.099 159.309 122.762C158.584 122.424 157.858 122.402 157.133 122.697C156.425 122.985 155.882 123.534 155.505 124.343C155.128 125.153 155.054 125.928 155.283 126.667C155.53 127.4 156.016 127.935 156.741 128.273ZM167.252 124.586L166.67 125.837C167.053 125.457 167.476 125.227 167.939 125.149C168.42 125.064 168.914 125.14 169.422 125.376C170.135 125.708 170.617 126.22 170.869 126.911C171.127 127.59 171.095 128.274 170.774 128.963C170.594 129.349 170.383 129.692 170.14 129.991L168.255 129.113C168.416 128.894 168.553 128.663 168.665 128.422C168.823 128.083 168.831 127.749 168.691 127.419C168.551 127.089 168.299 126.839 167.937 126.67C167.526 126.479 167.134 126.451 166.762 126.586C166.402 126.728 166.118 127.022 165.91 127.469L163.25 133.18L161.346 132.293L165.349 123.7L167.252 124.586ZM179.954 125.516L177.336 131.137C177.868 130.752 178.464 130.53 179.125 130.47C179.803 130.403 180.438 130.508 181.03 130.784C181.804 131.144 182.397 131.655 182.809 132.318C183.221 132.981 183.424 133.73 183.417 134.565C183.422 135.406 183.222 136.262 182.817 137.132C182.412 138.002 181.882 138.697 181.229 139.216C180.58 139.723 179.861 140.02 179.07 140.108C178.285 140.183 177.487 140.032 176.677 139.655C176.109 139.391 175.634 139.022 175.251 138.55C174.868 138.077 174.638 137.529 174.561 136.904L173.97 138.173L172.139 137.321L178.05 124.63L179.954 125.516ZM175.946 133.931C175.687 134.487 175.577 135.024 175.615 135.542C175.653 136.06 175.806 136.521 176.074 136.925C176.359 137.323 176.719 137.623 177.155 137.826C177.614 138.04 178.081 138.125 178.558 138.082C179.039 138.027 179.484 137.845 179.893 137.535C180.32 137.219 180.66 136.789 180.913 136.245C181.167 135.701 181.277 135.164 181.245 134.634C181.23 134.098 181.082 133.625 180.803 133.215C180.541 132.799 180.186 132.486 179.739 132.278C179.316 132.081 178.854 132.013 178.355 132.075C177.873 132.13 177.413 132.313 176.974 132.623C176.548 132.939 176.205 133.375 175.946 133.931ZM193.457 136.793L189.454 145.386L187.55 144.499L188.184 143.14C187.089 143.88 185.961 143.98 184.801 143.439C183.858 143 183.223 142.373 182.897 141.559C182.582 140.751 182.678 139.803 183.185 138.715L185.752 133.204L187.655 134.09L185.299 139.148C184.984 139.825 184.893 140.415 185.026 140.919C185.165 141.41 185.507 141.782 186.05 142.036C186.691 142.334 187.32 142.34 187.939 142.055C188.569 141.775 189.073 141.23 189.45 140.42L191.553 135.906L193.457 136.793ZM194.006 147.727C193.015 147.265 192.291 146.671 191.836 145.944C191.392 145.223 191.194 144.432 191.242 143.571L193.163 143.473C193.145 144.112 193.27 144.649 193.539 145.082C193.813 145.504 194.246 145.853 194.838 146.129C195.346 146.366 195.781 146.458 196.144 146.406C196.524 146.348 196.781 146.174 196.916 145.884C197.097 145.497 197.087 145.139 196.887 144.811C196.692 144.47 196.209 144.039 195.437 143.518C194.555 142.916 193.954 142.297 193.632 141.662C193.316 141.014 193.324 140.334 193.656 139.621C193.875 139.15 194.215 138.8 194.674 138.573C195.138 138.333 195.66 138.223 196.239 138.243C196.831 138.268 197.416 138.416 197.996 138.687C198.83 139.075 199.419 139.548 199.763 140.105C200.106 140.662 200.279 141.302 200.281 142.023L198.459 142.145C198.56 141.266 198.175 140.623 197.305 140.218C196.882 140.021 196.483 139.945 196.109 139.992C195.734 140.038 195.485 140.194 195.361 140.46C195.209 140.786 195.254 141.101 195.495 141.404C195.742 141.696 196.248 142.093 197.013 142.597C198.004 143.25 198.627 143.9 198.884 144.549C199.152 145.204 199.115 145.9 198.772 146.637C198.524 147.169 198.147 147.567 197.642 147.832C197.148 148.102 196.582 148.228 195.943 148.21C195.304 148.192 194.659 148.031 194.006 147.727ZM204.432 141.905L200.43 150.499L198.526 149.612L202.529 141.018L204.432 141.905ZM204.093 137.423L206.178 138.394L205.207 140.479L203.122 139.508L204.093 137.423ZM201.851 151.161L205.854 142.567L207.757 143.454L207.175 144.705C207.708 144.35 208.257 144.165 208.823 144.149C209.402 144.139 209.975 144.266 210.543 144.531C211.437 144.947 212.03 145.569 212.322 146.396C212.619 147.211 212.539 148.108 212.083 149.087L209.465 154.707L207.562 153.821L209.876 148.853C210.196 148.164 210.281 147.556 210.129 147.03C209.995 146.497 209.656 146.103 209.112 145.85C208.532 145.58 207.95 145.566 207.366 145.809C206.788 146.04 206.327 146.524 205.984 147.261L203.754 152.047L201.851 151.161ZM215.523 155.764C216.139 156.051 216.717 156.136 217.257 156.02C217.802 155.892 218.279 155.562 218.688 155.032L220.024 156.427C219.305 157.18 218.498 157.65 217.602 157.836C216.712 158.01 215.76 157.86 214.745 157.387C213.862 156.976 213.167 156.432 212.659 155.754C212.169 155.07 211.894 154.302 211.835 153.45C211.781 152.587 211.968 151.696 212.396 150.777C212.779 149.955 213.294 149.291 213.942 148.784C214.608 148.27 215.345 147.966 216.154 147.872C216.98 147.772 217.81 147.916 218.644 148.304C219.394 148.654 219.988 149.114 220.427 149.687C220.879 150.265 221.133 150.92 221.189 151.652C221.263 152.378 221.119 153.127 220.759 153.901C220.601 154.239 220.416 154.557 220.204 154.856L214.131 152.027C213.742 152.861 213.7 153.613 214.005 154.285C214.328 154.95 214.834 155.443 215.523 155.764ZM217.866 149.928C217.274 149.652 216.688 149.585 216.107 149.726C215.538 149.873 215.077 150.217 214.722 150.758L218.982 152.742L219.076 152.587C219.324 152.056 219.325 151.549 219.079 151.066C218.851 150.577 218.446 150.198 217.866 149.928ZM222.744 161.113C221.753 160.652 221.03 160.057 220.574 159.33C220.131 158.609 219.933 157.818 219.98 156.958L221.901 156.86C221.883 157.499 222.009 158.035 222.277 158.469C222.551 158.891 222.985 159.24 223.577 159.516C224.084 159.752 224.519 159.844 224.882 159.793C225.262 159.734 225.52 159.56 225.655 159.27C225.835 158.883 225.825 158.526 225.625 158.197C225.431 157.857 224.947 157.426 224.175 156.904C223.294 156.302 222.692 155.684 222.37 155.048C222.054 154.401 222.062 153.721 222.394 153.008C222.614 152.536 222.953 152.187 223.412 151.959C223.877 151.72 224.398 151.61 224.978 151.63C225.569 151.655 226.155 151.803 226.735 152.073C227.569 152.461 228.157 152.934 228.501 153.491C228.844 154.049 229.017 154.688 229.019 155.41L227.197 155.532C227.298 154.652 226.914 154.01 226.043 153.604C225.62 153.407 225.222 153.332 224.847 153.378C224.473 153.424 224.223 153.58 224.1 153.846C223.948 154.172 223.992 154.487 224.233 154.791C224.48 155.082 224.986 155.48 225.752 155.984C226.742 156.636 227.365 157.287 227.622 157.936C227.891 158.591 227.853 159.287 227.51 160.024C227.262 160.556 226.886 160.954 226.38 161.218C225.886 161.489 225.32 161.615 224.681 161.597C224.043 161.579 223.397 161.417 222.744 161.113ZM230.407 164.683C229.416 164.221 228.692 163.627 228.237 162.9C227.793 162.178 227.595 161.387 227.643 160.527L229.564 160.429C229.546 161.068 229.671 161.604 229.94 162.038C230.214 162.46 230.647 162.809 231.239 163.085C231.747 163.321 232.182 163.414 232.544 163.362C232.925 163.304 233.182 163.129 233.317 162.839C233.498 162.453 233.488 162.095 233.288 161.766C233.093 161.426 232.61 160.995 231.838 160.473C230.956 159.872 230.355 159.253 230.033 158.618C229.717 157.97 229.725 157.29 230.057 156.577C230.276 156.106 230.616 155.756 231.075 155.529C231.539 155.289 232.061 155.179 232.64 155.199C233.231 155.224 233.817 155.372 234.397 155.642C235.231 156.031 235.82 156.504 236.164 157.061C236.507 157.618 236.68 158.257 236.682 158.979L234.86 159.101C234.961 158.221 234.576 157.579 233.706 157.174C233.283 156.977 232.884 156.901 232.51 156.947C232.135 156.993 231.886 157.15 231.762 157.415C231.61 157.742 231.655 158.057 231.896 158.36C232.142 158.652 232.649 159.049 233.414 159.553C234.405 160.205 235.028 160.856 235.285 161.505C235.553 162.16 235.516 162.856 235.173 163.593C234.925 164.125 234.548 164.523 234.043 164.788C233.549 165.058 232.983 165.184 232.344 165.166C231.705 165.148 231.059 164.987 230.407 164.683Z" fill="#363636"/>
</svg>
