<svg width="280" height="143" viewBox="0 0 280 143" fill="none" xmlns="http://www.w3.org/2000/svg">
<path d="M272.881 142.61L7.11865 142.61C3.31818 142.61 0.237305 139.529 0.237305 135.729L0.237312 7.11879C0.237312 3.31833 3.31818 0.237431 7.11866 0.237431L272.881 0.237471C276.682 0.237472 279.763 3.31836 279.763 7.11884L279.763 135.729C279.763 139.529 276.682 142.61 272.881 142.61Z" fill="#F15FFD" stroke="#F15FFD" stroke-width="0.474576"/>
<mask id="mask0_406_556" style="mask-type:alpha" maskUnits="userSpaceOnUse" x="0" y="0" width="280" height="143">
<path d="M272.881 142.61L7.11865 142.61C3.31818 142.61 0.237305 139.529 0.237305 135.729L0.237312 7.11879C0.237312 3.31833 3.31818 0.237431 7.11866 0.237431L272.881 0.237471C276.682 0.237472 279.763 3.31836 279.763 7.11884L279.763 135.729C279.763 139.529 276.682 142.61 272.881 142.61Z" fill="#262626" stroke="black" stroke-width="0.474576"/>
</mask>
<g mask="url(#mask0_406_556)">
</g>
<path d="M239.351 56.9841C239.385 43.6241 251.516 32.8176 266.447 32.8474L266.386 57.038L239.351 56.9841Z" fill="#DE307E"/>
<path d="M251.014 57.0077C251.033 49.411 257.931 43.2666 266.421 43.2836L266.386 57.0384L251.014 57.0077Z" fill="#F8D748"/>
<path d="M266.326 81.2285L266.387 57.0379L239.352 56.984L239.291 81.1746L266.326 81.2285Z" fill="#9941F7"/>
<path d="M258.612 74.2948L258.637 63.9412L247.067 63.9182L247.041 74.2718L258.612 74.2948Z" fill="#F15FFD"/>
<path d="M266.266 105.419L266.326 81.2286L239.291 81.1747L239.231 105.365L266.266 105.419Z" fill="#F15FFD"/>
<path d="M239.231 105.365L239.291 81.1747C254.222 81.2045 266.299 92.059 266.266 105.419L239.231 105.365Z" fill="#DE307E"/>
<path d="M239.171 129.556L239.231 105.365L266.266 105.419C266.233 118.779 254.102 129.586 239.171 129.556Z" fill="#F8D748"/>
<path d="M239.291 81.1747L239.351 56.9842L212.316 56.9303L212.256 81.1209L239.291 81.1747Z" fill="#F8D748"/>
<path d="M239.231 105.365L239.291 81.1746L212.256 81.1207L212.196 105.311L239.231 105.365Z" fill="#F15FFD"/>
<path d="M212.346 44.835C212.363 38.1549 218.428 32.7518 225.894 32.7667C233.359 32.7816 239.398 38.2088 239.381 44.8889C239.365 51.569 233.299 56.9721 225.834 56.9573C218.368 56.9424 212.33 51.5151 212.346 44.835Z" fill="#9941F7"/>
<path d="M219.832 44.8499C219.84 41.8694 222.546 39.4581 225.878 39.4647C229.208 39.4714 231.903 41.8934 231.896 44.8739C231.888 47.8547 229.182 50.2657 225.851 50.259C222.519 50.2524 219.825 47.8306 219.832 44.8499Z" fill="#DE307E"/>
<path d="M239.17 129.556L239.23 105.365L212.196 105.311L212.135 129.502L239.17 129.556Z" fill="#F15FFD"/>
<path d="M212.196 105.311C212.229 91.951 224.36 81.1448 239.291 81.1746L239.231 105.365L212.196 105.311Z" fill="#9941F7"/>
<path d="M212.196 105.311L239.23 105.365L239.17 129.556C224.239 129.526 212.162 118.671 212.196 105.311Z" fill="#DE307E"/>
<path d="M239.231 105.365L239.26 93.3875C246.654 93.4022 252.633 98.7768 252.617 105.392L239.231 105.365Z" fill="#F15FFD"/>
<path d="M239.201 117.343L239.231 105.365L252.617 105.392C252.601 112.007 246.594 117.358 239.201 117.343Z" fill="#DE307E"/>
<path d="M225.845 105.338C225.861 98.7234 231.868 93.3727 239.26 93.3875L239.23 105.365L225.845 105.338Z" fill="#F8D748"/>
<path d="M225.845 105.338L239.23 105.365L239.201 117.343C231.808 117.328 225.828 111.954 225.845 105.338Z" fill="#9941F7"/>
<path d="M229.611 59.9816C229.61 60.29 229.749 60.5922 229.992 60.8107C230.235 61.0295 230.572 61.155 230.917 61.1557C231.262 61.1564 231.6 61.0322 231.844 60.8144C232.088 60.5969 232.229 60.2952 232.23 59.9869C232.23 59.6783 232.091 59.376 231.848 59.1575C231.605 58.9387 231.268 58.8129 230.923 58.8122C230.578 58.8115 230.241 58.936 229.996 59.1538C229.752 59.3714 229.611 59.673 229.611 59.9816Z" fill="#F15FFD"/>
<path d="M229.581 72.0628L229.581 72.0686C229.579 72.7157 230.164 73.2415 230.887 73.243C231.611 73.2444 232.198 72.7209 232.2 72.0738L232.2 72.068C232.201 71.4209 231.617 70.8951 230.893 70.8936C230.17 70.8922 229.582 71.4156 229.581 72.0628Z" fill="#F15FFD"/>
<path d="M229.595 66.0202L229.595 66.026C229.594 66.6731 230.179 67.1989 230.902 67.2003C231.626 67.2018 232.213 66.6783 232.214 66.0312L232.214 66.0254C232.216 65.3783 231.631 64.8525 230.908 64.851C230.185 64.8496 229.597 65.373 229.595 66.0202Z" fill="#F15FFD"/>
<path d="M229.565 78.1073C229.564 78.4156 229.704 78.7179 229.947 78.9364C230.19 79.1552 230.527 79.281 230.872 79.2817C231.217 79.2824 231.555 79.1579 231.799 78.9401C232.043 78.7225 232.184 78.4209 232.184 78.1125C232.185 77.8039 232.046 77.5017 231.803 77.2829C231.56 77.0644 231.223 76.9386 230.878 76.9379C230.533 76.9372 230.195 77.0617 229.951 77.2792C229.707 77.497 229.566 77.7987 229.565 78.1073Z" fill="#F15FFD"/>
<path d="M234.989 59.9926C234.989 60.3009 235.128 60.6031 235.371 60.8216C235.615 61.0405 235.951 61.166 236.296 61.1667C236.641 61.1673 236.979 61.0432 237.223 60.8253C237.468 60.6078 237.608 60.3061 237.609 59.9978C237.61 59.6892 237.471 59.387 237.227 59.1684C236.984 58.9496 236.647 58.8238 236.302 58.8231C235.957 58.8224 235.62 58.9469 235.375 59.1647C235.131 59.3823 234.99 59.684 234.989 59.9926Z" fill="#F15FFD"/>
<path d="M234.96 72.0732L234.959 72.079C234.958 72.7262 235.543 73.2519 236.266 73.2534C236.99 73.2548 237.577 72.7314 237.579 72.0842L237.579 72.0784C237.581 71.4313 236.996 70.9055 236.272 70.9041C235.549 70.9026 234.961 71.4261 234.96 72.0732Z" fill="#F15FFD"/>
<path d="M234.974 66.0308L234.974 66.0366C234.973 66.6837 235.558 67.2095 236.281 67.211C237.005 67.2124 237.592 66.689 237.594 66.0418L237.594 66.036C237.595 65.3889 237.01 64.8631 236.287 64.8616C235.564 64.8602 234.976 65.3837 234.974 66.0308Z" fill="#F15FFD"/>
<path d="M234.944 78.1181C234.943 78.4264 235.083 78.7287 235.326 78.9472C235.569 79.166 235.906 79.2918 236.251 79.2925C236.596 79.2932 236.933 79.1687 237.178 78.9509C237.423 78.7333 237.563 78.4317 237.564 78.1233C237.564 77.8147 237.426 77.5125 237.182 77.2937C236.939 77.0752 236.602 76.9494 236.257 76.9487C235.912 76.948 235.575 77.0725 235.33 77.29C235.086 77.5078 234.945 77.8095 234.944 78.1181Z" fill="#F15FFD"/>
<path d="M224.232 59.9708C224.231 60.2792 224.37 60.5814 224.613 60.7999C224.856 61.0187 225.193 61.1442 225.538 61.1449C225.883 61.1456 226.221 61.0214 226.465 60.8036C226.71 60.5861 226.85 60.2844 226.851 59.9761C226.851 59.6675 226.713 59.3652 226.469 59.1467C226.226 58.9279 225.889 58.8021 225.544 58.8014C225.199 58.8007 224.862 58.9252 224.617 59.143C224.373 59.3606 224.232 59.6622 224.232 59.9708Z" fill="#F15FFD"/>
<path d="M224.201 72.0522L224.201 72.058C224.2 72.7051 224.785 73.2309 225.508 73.2323C226.231 73.2338 226.819 72.7103 226.82 72.0632L226.82 72.0574C226.822 71.4102 226.237 70.8845 225.514 70.883C224.791 70.8816 224.203 71.405 224.201 72.0522Z" fill="#F15FFD"/>
<path d="M224.216 66.0094L224.216 66.0152C224.215 66.6623 224.8 67.1881 225.523 67.1895C226.246 67.191 226.834 66.6675 226.836 66.0204L226.836 66.0146C226.837 65.3675 226.252 64.8417 225.529 64.8402C224.806 64.8388 224.218 65.3622 224.216 66.0094Z" fill="#F15FFD"/>
<path d="M224.186 78.0968C224.185 78.4051 224.325 78.7073 224.568 78.9258C224.811 79.1446 225.148 79.2704 225.493 79.2711C225.838 79.2718 226.175 79.1473 226.42 78.9295C226.664 78.712 226.805 78.4103 226.805 78.102C226.806 77.7934 226.667 77.4911 226.424 77.2723C226.18 77.0538 225.844 76.928 225.499 76.9273C225.154 76.9266 224.816 77.0511 224.572 77.2686C224.328 77.4865 224.187 77.7881 224.186 78.0968Z" fill="#F15FFD"/>
<path d="M218.852 59.9603C218.851 60.2686 218.991 60.5708 219.234 60.7894C219.477 61.0082 219.814 61.1337 220.159 61.1344C220.504 61.1351 220.842 61.0109 221.086 60.793C221.33 60.5755 221.471 60.2738 221.471 59.9655C221.472 59.6569 221.333 59.3547 221.09 59.1362C220.847 58.9173 220.51 58.7915 220.165 58.7908C219.82 58.7902 219.482 58.9146 219.238 59.1325C218.994 59.35 218.853 59.6517 218.852 59.9603Z" fill="#F15FFD"/>
<path d="M218.822 72.0414L218.822 72.0472C218.821 72.6943 219.406 73.2201 220.129 73.2215C220.852 73.223 221.44 72.6995 221.441 72.0524L221.441 72.0466C221.443 71.3994 220.858 70.8736 220.135 70.8722C219.412 70.8708 218.824 71.3942 218.822 72.0414Z" fill="#F15FFD"/>
<path d="M218.837 65.9989L218.837 66.0047C218.836 66.6519 219.421 67.1777 220.144 67.1791C220.868 67.1806 221.455 66.6571 221.457 66.01L221.457 66.0042C221.458 65.357 220.873 64.8312 220.15 64.8298C219.427 64.8283 218.839 65.3518 218.837 65.9989Z" fill="#F15FFD"/>
<path d="M218.807 78.0859C218.807 78.3943 218.946 78.6965 219.189 78.915C219.432 79.1338 219.769 79.2596 220.114 79.2603C220.459 79.261 220.797 79.1365 221.041 78.9187C221.285 78.7012 221.426 78.3995 221.426 78.0912C221.427 77.7826 221.288 77.4803 221.045 77.2615C220.802 77.043 220.465 76.9172 220.12 76.9165C219.775 76.9158 219.437 77.0403 219.193 77.2578C218.949 77.4757 218.808 77.7773 218.807 78.0859Z" fill="#F15FFD"/>
<path d="M239.473 8.12885C224.542 8.09908 212.411 18.9056 212.378 32.2658L239.413 32.3197L239.473 8.12885Z" fill="#DE307E"/>
<path d="M239.473 8.12866L239.413 32.3195L266.448 32.3734C266.481 19.0132 254.404 8.15843 239.473 8.12866Z" fill="#F8D748"/>
<path d="M239.448 18.3405C230.82 18.3233 223.81 24.5682 223.791 32.2885L239.413 32.3197L239.448 18.3405Z" fill="#F15FFD"/>
<path d="M239.448 18.3406L239.413 32.3198L255.036 32.351C255.055 24.6306 248.076 18.3578 239.448 18.3406Z" fill="#F15FFD"/>
</svg>
