<svg width="135" height="199" viewBox="0 0 135 199" fill="none" xmlns="http://www.w3.org/2000/svg">
<path d="M135 191.882C135 195.813 131.813 199 127.881 199L7.11865 199C3.18713 199 3.49925e-06 195.813 3.69834e-06 191.882L1.30546e-05 7.11888C1.32537e-05 3.18736 3.18714 0.000247382 7.11866 0.000247975L127.881 0.000266201C131.813 0.000266795 135 3.18739 135 7.11891L135 191.882Z" fill="#526FCC"/>
<path d="M67.5196 17.6041H39.5645V45.5524H67.5196V17.6041Z" fill="#F15FFD"/>
<path d="M45.3728 45.5524L40.732 40.9129L39.5645 39.7455V44.093L41.0246 45.5524H45.3728V45.5524Z" fill="#9941F7"/>
<path d="M39.5645 34.8703L43.9883 39.2928L47.7828 43.0864L50.2496 45.5524H54.5983L49.9569 40.9129L46.1624 37.1188L40.732 31.6897L39.5645 30.5228V34.8703Z" fill="#9941F7"/>
<path d="M62.4393 20.8463L66.2337 24.6398L67.5202 25.9261V21.5786L64.6134 18.6728L63.544 17.6035H59.1958L62.4393 20.8463V20.8463Z" fill="#9941F7"/>
<path d="M53.2135 20.8463L57.0085 24.6398L62.4389 30.0695L66.2334 33.8631L67.5199 35.1494V30.8019L64.6131 27.8955L59.1826 22.4663L55.3876 18.6728L54.3188 17.6035H49.9706L53.2135 20.8463Z" fill="#9941F7"/>
<path d="M43.9885 20.8463L47.783 24.6398L53.2135 30.0695L57.0085 33.8631L62.4389 39.2928L66.2334 43.0863L67.5199 44.3726V40.0251L64.613 37.1188L59.1826 31.6896L55.3876 27.8955L49.9571 22.4663L46.1626 18.6728L45.0938 17.6035H40.7456L43.9885 20.8463V20.8463Z" fill="#9941F7"/>
<path d="M39.5645 25.6471L43.9883 30.0696L47.7828 33.8631L53.2132 39.2928L57.0083 43.0864L59.475 45.5524H63.8232L59.1824 40.9129L55.3873 37.1188L49.9569 31.6897L46.1624 27.8956L40.732 22.4664L39.5645 21.2996V25.6471Z" fill="#9941F7"/>
<path d="M81.4984 45.5522V52.5398C85.3583 52.5398 88.487 55.668 88.487 59.5269C88.487 63.3858 85.3583 66.514 81.4984 66.514V73.5011C89.2176 73.5011 95.4757 67.2442 95.4757 59.5269C95.4757 51.8091 89.2176 45.5522 81.4984 45.5522V45.5522Z" fill="#F15FFD"/>
<path d="M81.4982 73.5011C73.7784 73.5011 67.5204 67.2442 67.5204 59.5269C67.5204 51.8091 73.7784 45.5522 81.4982 45.5522" fill="#DE307E"/>
<path d="M88.487 59.5271C88.487 55.6681 85.3583 52.54 81.4984 52.54V66.5141C85.3583 66.5141 88.487 63.386 88.487 59.5271V59.5271Z" fill="#DE307E"/>
<path d="M74.5094 59.5271C74.5094 63.386 77.6381 66.5141 81.498 66.5141V52.54C77.6381 52.54 74.5094 55.6681 74.5094 59.5271V59.5271Z" fill="#F15FFD"/>
<path d="M95.475 17.6041H67.5204V45.5524H95.475V17.6041Z" fill="#9941F7"/>
<path d="M81.4984 31.5782C81.4984 23.8604 87.7564 17.6041 95.4757 17.6041C95.4757 25.3214 89.2176 31.5782 81.4984 31.5782Z" fill="#DE307E"/>
<path d="M67.5204 45.5528C67.5204 37.8355 73.7779 31.5786 81.4977 31.5786C81.4977 39.2964 75.2396 45.5528 67.5204 45.5528V45.5528Z" fill="#DE307E"/>
<path d="M81.4984 31.5786C89.2176 31.5786 95.4757 37.8355 95.4757 45.5528C87.7564 45.5528 81.4984 39.2964 81.4984 31.5786Z" fill="#DE307E"/>
<path d="M67.5204 17.6041C75.2396 17.6041 81.4977 23.8604 81.4977 31.5782C73.7779 31.5782 67.5204 25.3214 67.5204 17.6041V17.6041Z" fill="#F15FFD"/>
<path d="M39.565 17.6041H11.6104V45.5524H39.565V17.6041Z" fill="#F8D748"/>
<path d="M11.6104 31.5782C11.6104 23.8603 17.8679 17.6035 25.5877 17.6035C25.5877 25.3213 19.3296 31.5782 11.6104 31.5782Z" fill="#DE307E"/>
<path d="M25.5874 17.6035C33.3072 17.6035 39.5647 23.8603 39.5647 31.5782C31.8455 31.5782 25.5874 25.3213 25.5874 17.6035Z" fill="#DE307E"/>
<path d="M39.5647 31.5786C39.5647 39.2964 33.3072 45.5528 25.5874 45.5528C25.5874 37.8355 31.8455 31.5786 39.5647 31.5786Z" fill="#DE307E"/>
<path d="M25.5877 45.5528C17.8679 45.5528 11.6104 39.2964 11.6104 31.5786C19.3296 31.5786 25.5877 37.8355 25.5877 45.5528Z" fill="#DE307E"/>
<path d="M39.5736 45.5741H11.6544V73.5016H39.5736V45.5741Z" fill="#F6F1E1"/>
<path d="M67.4923 45.5741H39.5731V73.5016H67.4923V45.5741Z" fill="#F7B643"/>
<path d="M25.614 45.5741C17.9044 45.5741 11.6544 51.823 11.6544 59.5306V59.5445C11.6544 67.2527 17.9044 73.5016 25.614 73.5016C33.3236 73.5016 39.5736 67.2527 39.5736 59.5445V59.5311C39.5736 51.8229 33.3236 45.5741 25.614 45.5741Z" fill="#F78077"/>
<path d="M53.5327 73.5016C45.8231 73.5016 39.5731 67.2527 39.5731 59.5445V59.5306C39.5731 51.823 45.8231 45.5741 53.5327 45.5741C61.2423 45.5741 67.4923 51.823 67.4923 59.5306V59.5445C67.4923 67.2527 61.2423 73.5016 53.5327 73.5016V73.5016Z" fill="#9941F7"/>
<path d="M53.5329 66.467C49.7068 66.467 46.6053 63.3661 46.6053 59.5415V59.534C46.6053 55.7088 49.7068 52.608 53.5329 52.608C57.359 52.608 60.4604 55.7088 60.4604 59.534V59.5415C60.4604 63.3661 57.359 66.467 53.5329 66.467V66.467Z" fill="#F6F1E1"/>
<path d="M123.471 45.5576H95.5264V73.4979H123.471V45.5576Z" fill="white"/>
<path d="M123.551 17.5312H95.4135V45.6542H123.551V17.5312Z" fill="#DE307E"/>
<path d="M123.551 17.5312H95.4135V45.6542H123.551V17.5312Z" fill="#FFBF00"/>
<path d="M109.482 45.6542L123.551 31.5927L109.482 17.5312L95.4135 31.5927L109.482 45.6542Z" fill="#65BBE5"/>
<path d="M109.483 41.1472L119.042 31.5929L109.483 22.0385L99.9226 31.5929L109.483 41.1472Z" fill="#FEFEFE"/>
<path d="M109.482 38.3485L116.242 31.5928L109.482 24.8367L102.722 31.5928L109.482 38.3485Z" fill="#FFBF00"/>
</svg>
