<svg width="135" height="199" viewBox="0 0 135 199" fill="none" xmlns="http://www.w3.org/2000/svg">
<path d="M135 191.874C135 195.809 131.809 199 127.874 199L7.12623 199C3.19052 199 -1.17594e-05 195.809 -1.15601e-05 191.874L-2.20458e-06 7.12625C-2.00528e-06 3.19053 3.19053 3.24154e-06 7.12625 3.83554e-06L127.874 2.20594e-05C131.809 2.26534e-05 135 3.19055 135 7.12627L135 191.874Z" fill="#F78077"/>
<path d="M95.6996 73.8002L123.803 73.8311L123.834 45.7427L95.7305 45.7118L95.6996 73.8002Z" fill="#9941F7"/>
<path d="M95.7305 45.7118L123.834 45.7427L95.6996 73.8002L95.7305 45.7118Z" fill="#9941F7"/>
<path d="M67.6276 45.6813L95.7306 45.7122L95.6996 73.8005C80.1788 73.7835 67.6105 61.1939 67.6276 45.6813Z" fill="#DE307E"/>
<path d="M11.4209 45.6192L39.5242 45.6501L39.4933 73.7385C23.9721 73.7214 11.4039 61.1318 11.4209 45.6192Z" fill="#F8D748"/>
<path d="M39.5241 45.65L67.6274 45.6809C67.6103 61.1935 55.0141 73.7555 39.4932 73.7384L39.5241 45.65Z" fill="#9941F7"/>
<path d="M39.5241 45.65L67.6274 45.6809C67.6103 61.1935 55.0141 73.7555 39.4932 73.7384L39.5241 45.65Z" fill="#9941F7"/>
<path d="M21.8729 45.6302L39.5241 45.6496L39.5047 63.2914C29.7561 63.2807 21.8622 55.3733 21.8729 45.6302V45.6302Z" fill="white"/>
<path d="M39.5239 45.6499L57.1747 45.6693C57.1639 55.4123 49.2527 63.3023 39.5045 63.2916L39.5239 45.6499V45.6499Z" fill="#DE307E"/>
<path d="M123.834 45.7428C123.851 30.2298 111.282 17.6409 95.7613 17.6239C95.7442 33.1365 108.313 45.7257 123.834 45.7428V45.7428Z" fill="#DE307E"/>
<path d="M67.6275 45.6811C83.1484 45.6981 95.7443 33.1366 95.7614 17.6239C80.2405 17.6069 67.6446 30.1681 67.6275 45.6811V45.6811Z" fill="#F8D748"/>
<path d="M39.5242 45.6503L67.6274 45.6812L67.6583 17.5932L39.5551 17.5623L39.5242 45.6503Z" fill="#F15FFD"/>
<path d="M46.5495 45.6582C50.43 45.6625 53.5786 42.5221 53.5829 38.644C53.5872 34.7656 50.4454 31.6183 46.565 31.614C42.6848 31.6098 39.5359 34.7502 39.5316 38.6286C39.5273 42.5067 42.6694 45.654 46.5495 45.6582Z" fill="#F8D748"/>
<path d="M46.5556 40.2977C47.474 40.2987 48.2192 39.5556 48.2202 38.638C48.2212 37.72 47.4777 36.9752 46.5592 36.9742C45.6411 36.9732 44.8959 37.7164 44.8949 38.6343C44.8939 39.5519 45.6375 40.2967 46.5556 40.2977Z" fill="#F15FFD"/>
<path d="M60.6015 45.6735C64.4816 45.6778 67.6309 42.5374 67.6352 38.6593C67.6394 34.7809 64.497 31.6336 60.6169 31.6293C56.7368 31.625 53.5875 34.7654 53.5832 38.6438C53.5789 42.5219 56.7213 45.6692 60.6015 45.6735Z" fill="white"/>
<path d="M60.6074 40.3133C61.5258 40.3143 62.271 39.5711 62.272 38.6535C62.273 37.7356 61.5295 36.9908 60.611 36.9898C59.6926 36.9888 58.9474 37.7319 58.9464 38.6499C58.9454 39.5675 59.689 40.3123 60.6074 40.3133Z" fill="#9941F7"/>
<path d="M11.4209 45.6192L39.5241 45.6501L39.555 17.5621L11.4518 17.5312L11.4209 45.6192Z" fill="#DE307E"/>
</svg>
