<svg width="53" height="53" viewBox="0 0 53 53" fill="none" xmlns="http://www.w3.org/2000/svg">
<g clip-path="url(#clip0_309_2823)">
<path d="M25.9201 0.489291C26.0325 -0.1631 26.9675 -0.163096 27.0798 0.489296L28.3187 7.67983C28.4175 8.25311 29.1974 8.35182 29.4354 7.82116L32.4198 1.16521C32.6907 0.561315 33.5962 0.794271 33.5432 1.45417L32.9583 8.72746C32.9117 9.30736 33.6425 9.59729 34.0048 9.14258L38.5477 3.43941C38.9598 2.92197 39.7792 3.37326 39.564 3.99919L37.1922 10.8983C37.003 11.4483 37.639 11.9112 38.1028 11.5611L43.9185 7.16904C44.4461 6.77056 45.1276 7.41181 44.7638 7.96447L40.7541 14.0558C40.4345 14.5414 40.9356 15.1483 41.4717 14.9247L48.1948 12.1197C48.8048 11.8653 49.3059 12.6562 48.8162 13.1008L43.4205 18.0017C42.9904 18.3924 43.3251 19.1051 43.8999 19.022L51.1079 17.9804C51.7619 17.8859 52.051 18.7769 51.4664 19.0856L45.0238 22.488C44.5102 22.7592 44.6575 23.5329 45.2347 23.5957L52.475 24.3829C53.132 24.4543 53.1905 25.3892 52.5479 25.5426L45.4631 27.2327C44.8982 27.3676 44.8489 28.1536 45.3924 28.3582L52.2098 30.9247C52.8283 31.1576 52.6531 32.0777 51.9925 32.0663L44.7108 31.9381C44.1302 31.9277 43.8874 32.6769 44.3631 33.0105L50.3293 37.1951C50.8705 37.5749 50.4724 38.4223 49.8354 38.2464L42.8145 36.3079C42.2545 36.1534 41.8334 36.8183 42.2113 37.2601L46.9514 42.7999C47.3815 43.3026 46.7855 44.0242 46.212 43.695L39.8928 40.068C39.3888 39.7789 38.8159 40.3182 39.0724 40.8399L42.2884 47.3868C42.5802 47.9809 41.8239 48.5313 41.3503 48.0699L36.1296 42.9822C35.7135 42.5765 35.0245 42.956 35.1435 43.5255L36.6336 50.6677C36.7688 51.3159 35.8993 51.6607 35.5553 51.0957L31.7616 44.8669C31.4589 44.3703 30.6976 44.5661 30.6714 45.1473L30.3417 52.4369C30.312 53.098 29.3843 53.2154 29.1913 52.5824L27.0629 45.6041C26.893 45.0479 26.107 45.0479 25.9372 45.6041L23.8088 52.5824C23.6156 53.2154 22.6881 53.098 22.6582 52.4369L22.3286 45.1473C22.3024 44.5661 21.541 44.3703 21.2385 44.8669L17.4448 51.0957C17.1006 51.6607 16.2313 51.3159 16.3665 50.6677L17.8566 43.5255C17.9754 42.956 17.2866 42.5765 16.8704 42.9822L11.6498 48.0699C11.1761 48.5313 10.4197 47.9809 10.7116 47.3868L13.9277 40.8399C14.1841 40.3182 13.6111 39.7789 13.1072 40.068L6.7879 43.695C6.21454 44.0242 5.61858 43.3026 6.04865 42.7999L10.7888 37.2601C11.1667 36.8183 10.7455 36.1534 10.1857 36.3079L3.16458 38.2464C2.52755 38.4223 2.12948 37.5749 2.67078 37.1951L8.63699 33.0105C9.11266 32.6769 8.86974 31.9277 8.2892 31.9381L1.00751 32.0663C0.346853 32.0777 0.171656 31.1576 0.790198 30.9247L7.60762 28.3582C8.15116 28.1536 8.10179 27.3676 7.53694 27.2327L0.452222 25.5426C-0.190572 25.3892 -0.131861 24.4543 0.525047 24.3829L7.76535 23.5957C8.3426 23.5329 8.48988 22.7592 7.97624 22.488L1.53362 19.0856C0.949084 18.7768 1.238 17.8859 1.892 17.9804L9.10023 19.022C9.67491 19.1051 10.0096 18.3924 9.57943 18.0017L4.18374 13.1008C3.69421 12.6562 4.19516 11.8653 4.80517 12.1197L11.5284 14.9247C12.0644 15.1483 12.5655 14.5414 12.2458 14.0558L8.23609 7.96447C7.87228 7.41181 8.55383 6.77056 9.0815 7.16904L14.8973 11.5611C15.361 11.9112 15.9969 11.4483 15.8079 10.8983L13.436 3.99919C13.2208 3.37326 14.0401 2.92197 14.4523 3.43941L18.9952 9.14258C19.3574 9.59729 20.0883 9.30733 20.0417 8.72746L19.4568 1.45417C19.4037 0.794269 20.3093 0.561312 20.5801 1.1652L23.5647 7.82116C23.8027 8.35182 24.5826 8.25311 24.6814 7.67983L25.9201 0.489291Z" fill="white"/>
</g>
<defs>
<clipPath id="clip0_309_2823">
<rect width="53" height="53" fill="white"/>
</clipPath>
</defs>
</svg>
