<svg width="247" height="163" viewBox="0 0 247 163" fill="none" xmlns="http://www.w3.org/2000/svg">
<path fill-rule="evenodd" clip-rule="evenodd" d="M101.997 15.1679C101.997 15.1679 75.8568 13.7824 65.5486 24.2145C62.3329 27.4689 59.1657 33.3835 58.0304 35.6131C35.0001 34.2853 18.3783 38.9709 13.7913 49.9363C4.80769 71.4122 45.3882 108.844 104.43 133.542C163.473 158.24 218.619 160.852 227.602 139.376C236.586 117.9 196.005 80.4689 136.963 55.7707C117.12 47.4702 97.7179 41.6643 80.3597 38.429C80.5873 37.2716 81.8468 31.2108 83.9058 27.7413C88.2968 20.3423 101.997 15.1679 101.997 15.1679Z" fill="#F8D748"/>
<path d="M65.5486 24.2145L65.9043 24.566L65.9043 24.566L65.5486 24.2145ZM101.997 15.1679L102.174 15.6357L102.024 14.6686L101.997 15.1679ZM58.0304 35.6131L58.0016 36.1123L58.3277 36.1311L58.4759 35.84L58.0304 35.6131ZM13.7913 49.9363L13.3301 49.7434L13.3301 49.7434L13.7913 49.9363ZM104.43 133.542L104.623 133.081L104.623 133.081L104.43 133.542ZM227.602 139.376L227.141 139.183L227.141 139.183L227.602 139.376ZM136.963 55.7707L137.156 55.3094L137.156 55.3094L136.963 55.7707ZM80.3597 38.429L79.8691 38.3325L79.7717 38.828L80.2681 38.9205L80.3597 38.429ZM83.9058 27.7413L83.4758 27.4861L83.4758 27.4861L83.9058 27.7413ZM65.9043 24.566C68.4067 22.0334 71.894 20.1965 75.7546 18.8729C79.6111 17.5508 83.8083 16.7517 87.6991 16.2755C91.5882 15.7994 95.1589 15.6474 97.7579 15.6144C99.057 15.5979 100.112 15.6113 100.842 15.6286C101.207 15.6373 101.49 15.647 101.681 15.6545C101.777 15.6583 101.85 15.6615 101.899 15.6637C101.923 15.6649 101.941 15.6658 101.953 15.6664C101.959 15.6667 101.964 15.6669 101.967 15.667C101.968 15.6671 101.969 15.6672 101.97 15.6672C101.97 15.6672 101.97 15.6672 101.97 15.6672C101.971 15.6672 101.971 15.6672 101.997 15.1679C102.024 14.6686 102.023 14.6686 102.023 14.6686C102.023 14.6686 102.022 14.6686 102.022 14.6686C102.021 14.6685 102.02 14.6684 102.018 14.6683C102.014 14.6682 102.009 14.6679 102.003 14.6676C101.99 14.6669 101.97 14.666 101.945 14.6648C101.894 14.6625 101.819 14.6592 101.721 14.6553C101.524 14.6476 101.236 14.6377 100.866 14.6289C100.125 14.6113 99.0579 14.5978 97.7452 14.6145C95.1208 14.6478 91.5122 14.8013 87.5776 15.2829C83.6448 15.7643 79.3742 16.5749 75.4303 17.927C71.4904 19.2777 67.8445 21.1796 65.1929 23.8631L65.9043 24.566ZM58.4759 35.84C59.6151 33.6028 62.751 27.7571 65.9043 24.566L65.1929 23.8631C61.9148 27.1807 58.7163 33.1642 57.5848 35.3862L58.4759 35.84ZM14.2526 50.1293C16.4671 44.8355 21.6114 40.9946 29.1437 38.642C36.673 36.2904 46.52 35.4503 58.0016 36.1123L58.0592 35.1139C46.5104 34.4481 36.5315 35.2869 28.8456 37.6875C21.1626 40.0871 15.7026 44.0717 13.3301 49.7434L14.2526 50.1293ZM104.623 133.081C75.1416 120.748 50.2896 105.244 33.9402 90.1632C25.7639 82.6214 19.7348 75.2044 16.308 68.3628C12.8802 61.5192 12.0841 55.3133 14.2526 50.1293L13.3301 49.7434C11.0068 55.2973 11.9144 61.8238 15.4139 68.8106C18.9143 75.7993 25.036 83.3105 33.2622 90.8983C49.7176 106.077 74.677 121.638 104.237 134.003L104.623 133.081ZM227.141 139.183C224.972 144.367 219.995 148.158 212.715 150.522C205.437 152.886 195.923 153.801 184.812 153.275C162.594 152.223 134.105 145.413 104.623 133.081L104.237 134.003C133.798 146.369 162.403 153.215 184.765 154.274C195.943 154.803 205.59 153.888 213.024 151.474C220.456 149.06 225.74 145.123 228.063 139.569L227.141 139.183ZM136.77 56.232C166.252 68.5646 191.104 84.0686 207.453 99.1493C215.63 106.691 221.659 114.108 225.086 120.95C228.513 127.793 229.31 133.999 227.141 139.183L228.063 139.569C230.387 134.015 229.479 127.489 225.98 120.502C222.479 113.513 216.358 106.002 208.131 98.4143C191.676 83.2358 166.717 67.675 137.156 55.3094L136.77 56.232ZM80.2681 38.9205C97.588 42.1487 116.957 47.9437 136.77 56.232L137.156 55.3094C117.284 46.9968 97.8477 41.1799 80.4513 37.9374L80.2681 38.9205ZM83.4758 27.4861C82.4125 29.2779 81.5688 31.7111 80.9654 33.8143C80.3593 35.9265 79.9844 37.7461 79.8691 38.3325L80.8503 38.5255C80.9626 37.9544 81.3312 36.165 81.9266 34.0901C82.5245 32.0061 83.3402 29.6741 84.3358 27.9964L83.4758 27.4861ZM101.997 15.1679C101.82 14.7002 101.82 14.7002 101.82 14.7003C101.82 14.7004 101.82 14.7005 101.819 14.7006C101.819 14.7008 101.818 14.701 101.817 14.7014C101.815 14.7021 101.813 14.7031 101.809 14.7045C101.802 14.7072 101.792 14.7111 101.778 14.7163C101.751 14.7267 101.712 14.742 101.66 14.7623C101.556 14.8027 101.405 14.8628 101.211 14.9416C100.824 15.0993 100.267 15.3324 99.5849 15.6351C98.2218 16.2402 96.3578 17.1249 94.3543 18.2434C90.3716 20.4668 85.7441 23.664 83.4758 27.4861L84.3358 27.9964C86.4585 24.4196 90.8766 21.3301 94.8418 19.1166C96.8122 18.0166 98.6477 17.1453 99.9907 16.549C100.662 16.251 101.209 16.022 101.588 15.8678C101.778 15.7908 101.925 15.7324 102.024 15.6934C102.074 15.674 102.112 15.6594 102.137 15.6497C102.15 15.6449 102.159 15.6413 102.165 15.639C102.168 15.6378 102.17 15.6369 102.172 15.6364C102.173 15.6361 102.173 15.6359 102.173 15.6358C102.174 15.6357 102.174 15.6357 102.174 15.6357C102.174 15.6357 102.174 15.6357 101.997 15.1679Z" fill="#F8D748"/>
<path d="M47.5687 63.901C49.1037 64.616 50.4522 64.1998 51.6143 62.6524L52.7654 63.8284C52.0169 64.8036 51.1273 65.4188 50.0964 65.6741C49.0833 65.9229 48.0389 65.7968 46.9632 65.2957C45.6095 64.6652 44.7099 63.7387 44.2644 62.5163C43.831 61.2995 43.9296 60.0142 44.5601 58.6605C45.1513 57.3915 46.0641 56.537 47.2986 56.0971C48.5388 55.6452 49.7511 55.6951 50.9355 56.2468C51.975 56.731 52.7185 57.4083 53.1662 58.2787C53.6259 59.1547 53.7305 60.1301 53.48 61.2048L51.8451 60.9728C52.033 60.2219 51.9907 59.555 51.718 58.972C51.4453 58.3891 50.9645 57.9371 50.2756 57.6162C49.5504 57.2784 48.7743 57.2552 47.9473 57.5466C47.1379 57.8315 46.5165 58.4393 46.083 59.3699C45.6495 60.3006 45.5849 61.1971 45.8892 62.0596C46.2112 62.9156 46.771 63.5294 47.5687 63.901ZM53.6795 68.2036L52.1204 67.4774L58.0318 54.7866L59.591 55.5129L56.8379 61.4231C57.3668 60.9193 57.9788 60.616 58.6738 60.5132C59.3866 60.404 60.0935 60.5126 60.7945 60.8392C61.7373 61.2783 62.3455 61.9146 62.6191 62.7481C62.9049 63.5872 62.8197 64.4963 62.3637 65.4753L59.7711 71.0411L58.1938 70.3064L60.6175 65.1032C60.9553 64.378 61.0302 63.7436 60.8421 63.2C60.6718 62.65 60.2603 62.223 59.6076 61.919C58.9066 61.5924 58.1881 61.6034 57.4521 61.9519C56.7218 62.2883 56.1539 62.8916 55.7485 63.7619L53.6795 68.2036ZM61.976 69.0896C62.3757 68.2315 62.9726 67.7079 63.7667 67.5188C64.5608 67.3298 65.4413 67.4605 66.4082 67.9108C67.0488 68.2092 67.6169 68.5842 68.1126 69.0357L68.7909 69.6164L69.2047 68.7281C69.4918 68.1117 69.5148 67.5413 69.2735 67.0171C69.0444 66.4986 68.6035 66.0873 67.9508 65.7832C67.3344 65.4961 66.7536 65.4168 66.2084 65.5452C65.6632 65.6737 65.2067 65.9906 64.8389 66.4959L63.6106 65.4383C64.1683 64.6832 64.886 64.2159 65.7639 64.0365C66.6418 63.857 67.5762 63.9981 68.5673 64.4598C69.7276 65.0003 70.4873 65.7218 70.8464 66.6246C71.2111 67.5152 71.1458 68.4923 70.6503 69.5559L68.1422 74.9404L66.6374 74.2395L67.2708 72.8797C66.8337 73.2498 66.2845 73.4499 65.6232 73.4802C64.9619 73.5105 64.2868 73.3652 63.5978 73.0442C62.8001 72.6727 62.2331 72.1217 61.8967 71.3914C61.5836 70.6425 61.6101 69.8752 61.976 69.0896ZM68.1322 71.0305L68.2166 70.8492L67.5287 70.242C67.0209 69.7848 66.5313 69.4464 66.06 69.2269C65.504 68.9679 65.0065 68.8833 64.5676 68.973C64.1464 69.0562 63.8344 69.3154 63.6318 69.7505C63.4403 70.1615 63.4394 70.5582 63.629 70.9407C63.8306 71.3288 64.2094 71.6523 64.7654 71.9113C65.4906 72.2491 66.1612 72.3408 66.7773 72.1866C67.3934 72.0323 67.845 71.6469 68.1322 71.0305ZM71.2956 73.2983L73.4913 68.5846L71.7871 67.7908L72.4036 66.4674L74.1077 67.2612L75.3491 64.5961L76.9264 65.3308L75.685 67.9959L78.7671 69.4315L78.1506 70.755L75.0685 69.3193L72.8391 74.1056C72.6533 74.5044 72.6157 74.8693 72.7263 75.2003C72.8369 75.5313 73.0674 75.7784 73.4179 75.9417C74.1431 76.2795 74.7805 76.0321 75.3301 75.1997L76.6284 76.2016C76.1472 76.9188 75.5753 77.3731 74.9125 77.5645C74.2618 77.7615 73.5678 77.6883 72.8305 77.3449C71.924 76.9226 71.3388 76.3632 71.0749 75.6667C70.8167 74.958 70.8902 74.1686 71.2956 73.2983ZM82.2059 66.047L83.765 66.7733L81.1049 72.4841C81.6483 72.0753 82.2679 71.8345 82.9638 71.7615C83.6718 71.6941 84.3461 71.8096 84.9867 72.108C86.1228 72.6372 86.8564 73.4938 87.1875 74.6776C87.5186 75.8615 87.3745 77.1181 86.7552 78.4476C86.1415 79.7651 85.2626 80.6574 84.1183 81.1246C82.9917 81.5853 81.8302 81.537 80.6336 80.9796C80.0172 80.6925 79.5139 80.2889 79.1237 79.7688C78.7391 79.2366 78.5111 78.6524 78.4398 78.0161L77.7811 79.4302L76.2944 78.7378L82.2059 66.047ZM81.0663 79.4823C81.8278 79.837 82.595 79.8634 83.3681 79.5616C84.1589 79.2534 84.771 78.6339 85.2045 77.7032C85.638 76.7726 85.7212 75.8994 85.454 75.0836C85.1989 74.2734 84.6906 73.691 83.9291 73.3363C83.2039 72.9985 82.4343 72.993 81.6202 73.3199C80.8117 73.6346 80.1935 74.2512 79.7656 75.1698C79.3377 76.0883 79.2602 76.9495 79.533 77.7532C79.8179 78.5625 80.329 79.1389 81.0663 79.4823ZM86.9762 82.3896C86.5662 81.1543 86.6595 79.896 87.2563 78.6149C87.8531 77.3337 88.7534 76.4587 89.9573 75.9898C91.1668 75.5089 92.4121 75.5668 93.6933 76.1636C94.9866 76.766 95.8382 77.6849 96.2483 78.9202C96.664 80.1435 96.5734 81.3957 95.9767 82.6769C95.3799 83.958 94.4707 84.8362 93.2491 85.3115C92.0452 85.7804 90.8027 85.7164 89.5215 85.1197C88.2404 84.5229 87.3919 83.6129 86.9762 82.3896ZM92.5533 83.7739C93.3376 83.448 93.9409 82.8317 94.3631 81.9253C94.7854 81.0188 94.8661 80.1665 94.6054 79.3684C94.368 78.5518 93.8444 77.9549 93.0346 77.5777C92.2369 77.2061 91.4431 77.1894 90.6531 77.5275C89.8688 77.8534 89.2683 78.4636 88.8517 79.358C88.4351 80.2524 88.3515 81.1107 88.601 81.933C88.8561 82.7431 89.3825 83.334 90.1802 83.7055C90.99 84.0827 91.781 84.1055 92.5533 83.7739ZM96.9745 85.2597L99.1702 80.546L97.466 79.7522L98.0825 78.4288L99.7867 79.2226L101.028 76.5575L102.605 77.2922L101.364 79.9573L104.446 81.3929L103.83 82.7164L100.747 81.2807L98.518 86.067C98.3322 86.4658 98.2946 86.8307 98.4052 87.1617C98.5158 87.4927 98.7464 87.7398 99.0969 87.9031C99.822 88.2409 100.459 87.9935 101.009 87.1611L102.307 88.163C101.826 88.8802 101.254 89.3345 100.591 89.5259C99.9407 89.7229 99.2467 89.6497 98.5094 89.3063C97.603 88.884 97.0178 88.3246 96.7539 87.6281C96.4956 86.9194 96.5692 86.13 96.9745 85.2597ZM106.541 92.8269L109.928 85.5569L108.006 84.6617L108.622 83.3383L110.544 84.2334L111.152 82.9281C111.574 82.0216 112.163 81.4207 112.918 81.1254C113.692 80.8235 114.537 80.8866 115.456 81.3145C116.374 81.7423 116.969 82.2985 117.238 82.983C117.52 83.6731 117.48 84.4049 117.12 85.1785C117.03 85.3718 116.962 85.502 116.916 85.5689L115.448 84.8848L115.618 84.5669C115.809 84.156 115.829 83.7826 115.676 83.4469C115.541 83.1046 115.262 82.835 114.839 82.6379C113.933 82.2157 113.218 82.5666 112.694 83.6906L112.103 84.9597L114.533 86.0913L113.916 87.4148L111.487 86.2832L108.1 93.5531L106.541 92.8269ZM112.439 94.2504C112.029 93.0151 112.122 91.7568 112.719 90.4756C113.316 89.1945 114.216 88.3195 115.42 87.8506C116.63 87.3697 117.875 87.4276 119.156 88.0244C120.449 88.6268 121.301 89.5457 121.711 90.781C122.127 92.0043 122.036 93.2565 121.44 94.5376C120.843 95.8188 119.934 96.697 118.712 97.1723C117.508 97.6412 116.266 97.5772 114.984 96.9804C113.703 96.3837 112.855 95.4737 112.439 94.2504ZM118.016 95.6347C118.801 95.3088 119.404 94.6925 119.826 93.786C120.248 92.8796 120.329 92.0273 120.068 91.2292C119.831 90.4126 119.307 89.8157 118.498 89.4385C117.7 89.0669 116.906 89.0502 116.116 89.3882C115.332 89.7142 114.731 90.3244 114.315 91.2188C113.898 92.1132 113.814 92.9715 114.064 93.7937C114.319 94.6039 114.845 95.1948 115.643 95.5663C116.453 95.9435 117.244 95.9663 118.016 95.6347ZM124.414 90.6941L125.973 91.4204L125.39 92.6713C126.234 91.9023 127.188 91.7655 128.251 92.2609C128.94 92.5818 129.398 93.0672 129.625 93.7171C129.864 94.3726 129.828 95.0327 129.519 95.6975C129.355 96.048 129.17 96.3514 128.962 96.6077L127.439 95.8983C127.594 95.6614 127.711 95.4583 127.789 95.2891C127.975 94.8902 127.995 94.5169 127.848 94.169C127.713 93.8268 127.434 93.5571 127.011 93.3601C126.528 93.1349 126.059 93.13 125.606 93.3454C125.153 93.5607 124.791 93.9585 124.521 94.5387L121.97 100.014L120.411 99.2875L124.414 90.6941ZM136.938 91.5417L138.497 92.2679L135.837 97.9788C136.381 97.57 137 97.3291 137.696 97.2561C138.404 97.1888 139.078 97.3043 139.719 97.6027C140.855 98.1319 141.589 98.9884 141.92 100.172C142.251 101.356 142.107 102.613 141.488 103.942C140.874 105.26 139.995 106.152 138.851 106.619C137.724 107.08 136.563 107.032 135.366 106.474C134.75 106.187 134.246 105.784 133.856 105.263C133.471 104.731 133.243 104.147 133.172 103.511L132.513 104.925L131.027 104.232L136.938 91.5417ZM135.799 104.977C136.56 105.332 137.327 105.358 138.1 105.056C138.891 104.748 139.503 104.129 139.937 103.198C140.37 102.267 140.454 101.394 140.186 100.578C139.931 99.7681 139.423 99.1857 138.662 98.831C137.936 98.4932 137.167 98.4877 136.353 98.8145C135.544 99.1292 134.926 99.7459 134.498 100.664C134.07 101.583 133.993 102.444 134.265 103.248C134.55 104.057 135.061 104.634 135.799 104.977ZM150.408 102.802L151.985 103.537L147.982 112.13L146.405 111.396L147.081 109.945C145.946 110.74 144.755 110.848 143.511 110.268C142.556 109.823 141.93 109.193 141.633 108.379C141.354 107.557 141.459 106.621 141.949 105.569L144.516 100.058L146.075 100.784L143.677 105.933C142.979 107.432 143.276 108.482 144.569 109.084C145.258 109.405 145.947 109.41 146.637 109.099C147.338 108.793 147.886 108.217 148.28 107.371L150.408 102.802ZM149.917 110.296L151.516 110.224C151.476 110.941 151.591 111.532 151.861 111.995C152.148 112.453 152.618 112.833 153.27 113.137C153.838 113.402 154.339 113.495 154.772 113.418C155.218 113.346 155.528 113.122 155.702 112.748C155.899 112.325 155.882 111.92 155.651 111.532C155.437 111.139 154.932 110.69 154.137 110.187C152.302 108.98 151.7 107.699 152.33 106.345C152.651 105.656 153.203 105.229 153.986 105.065C154.786 104.893 155.634 105.016 156.528 105.432C158.051 106.142 158.789 107.258 158.742 108.78L157.215 108.885C157.33 107.88 156.904 107.152 155.937 106.702C155.454 106.476 155.007 106.393 154.597 106.452C154.187 106.511 153.906 106.704 153.754 107.031C153.585 107.393 153.625 107.75 153.873 108.101C154.134 108.458 154.659 108.893 155.448 109.408C157.331 110.609 157.937 111.928 157.267 113.367C156.901 114.152 156.265 114.65 155.358 114.86C154.469 115.064 153.535 114.937 152.556 114.481C151.601 114.037 150.899 113.445 150.449 112.706C149.999 111.966 149.821 111.163 149.917 110.296ZM161.134 107.798L162.693 108.525L158.69 117.118L157.131 116.392L161.134 107.798ZM161.786 106.161L162.639 104.33L164.379 105.14L163.526 106.971L161.786 106.161ZM161.767 118.551L160.208 117.825L164.211 109.232L165.77 109.958L165.12 111.354C166.238 110.595 167.425 110.508 168.682 111.094C169.613 111.528 170.218 112.155 170.497 112.976C170.777 113.798 170.685 114.704 170.224 115.695L167.623 121.279L166.045 120.544L168.427 115.432C168.776 114.682 168.871 114.036 168.713 113.491C168.555 112.947 168.161 112.528 167.533 112.235C166.868 111.926 166.197 111.915 165.519 112.202C164.859 112.483 164.34 113.028 163.963 113.838L161.767 118.551ZM176.889 121.8L178.003 122.959C176.526 124.521 174.814 124.849 172.868 123.943C171.587 123.346 170.733 122.448 170.306 121.249C169.896 120.044 170.01 118.758 170.646 117.392C171.232 116.135 172.102 115.261 173.258 114.77C174.413 114.278 175.595 114.314 176.804 114.877C177.952 115.412 178.722 116.175 179.113 117.166C179.51 118.145 179.447 119.197 178.923 120.321C178.749 120.696 178.549 121.029 178.325 121.322L172.106 118.425C171.696 119.337 171.627 120.166 171.898 120.91C172.187 121.647 172.724 122.199 173.51 122.565C174.803 123.167 175.929 122.912 176.889 121.8ZM172.63 117.301L177.398 119.522L177.534 119.277C177.816 118.673 177.821 118.094 177.549 117.541C177.277 116.988 176.809 116.556 176.144 116.246C175.479 115.937 174.824 115.874 174.179 116.059C173.546 116.25 173.03 116.664 172.63 117.301ZM178.141 123.443L179.741 123.372C179.701 124.089 179.816 124.679 180.085 125.143C180.373 125.6 180.842 125.981 181.495 126.285C182.063 126.549 182.564 126.643 182.997 126.565C183.443 126.493 183.752 126.27 183.927 125.895C184.124 125.472 184.107 125.067 183.875 124.68C183.662 124.286 183.157 123.838 182.362 123.335C180.527 122.127 179.925 120.846 180.555 119.493C180.876 118.804 181.428 118.377 182.211 118.212C183.011 118.041 183.859 118.163 184.753 118.58C186.276 119.289 187.014 120.405 186.967 121.927L185.439 122.032C185.555 121.027 185.129 120.299 184.162 119.849C183.678 119.624 183.232 119.541 182.822 119.6C182.412 119.659 182.131 119.852 181.979 120.178C181.81 120.54 181.85 120.897 182.098 121.248C182.358 121.605 182.884 122.041 183.673 122.556C185.556 123.756 186.162 125.076 185.492 126.514C185.126 127.299 184.49 127.797 183.583 128.007C182.694 128.211 181.76 128.085 180.781 127.629C179.826 127.184 179.124 126.592 178.674 125.853C178.224 125.114 178.046 124.31 178.141 123.443ZM185.786 127.004L187.386 126.933C187.346 127.65 187.461 128.24 187.73 128.704C188.017 129.161 188.487 129.542 189.14 129.846C189.708 130.11 190.209 130.204 190.642 130.126C191.087 130.054 191.397 129.831 191.572 129.456C191.769 129.033 191.752 128.628 191.52 128.241C191.307 127.847 190.802 127.399 190.007 126.896C188.172 125.688 187.569 124.407 188.2 123.054C188.521 122.365 189.073 121.938 189.856 121.773C190.656 121.602 191.504 121.724 192.398 122.141C193.921 122.85 194.659 123.966 194.611 125.489L193.084 125.594C193.2 124.588 192.774 123.86 191.807 123.41C191.323 123.185 190.877 123.102 190.467 123.161C190.057 123.22 189.776 123.413 189.624 123.739C189.455 124.101 189.495 124.458 189.743 124.809C190.003 125.166 190.528 125.602 191.318 126.117C193.201 127.317 193.807 128.637 193.137 130.075C192.771 130.86 192.135 131.358 191.228 131.568C190.339 131.772 189.405 131.646 188.426 131.19C187.471 130.745 186.768 130.153 186.318 129.414C185.868 128.675 185.691 127.871 185.786 127.004Z" fill="#363636"/>
</svg>
