<svg width="98" height="98" viewBox="0 0 98 98" fill="none" xmlns="http://www.w3.org/2000/svg">
<g clip-path="url(#clip0_309_2837)">
<path fill-rule="evenodd" clip-rule="evenodd" d="M48.9812 42.835C50.2648 39.6314 52.9374 35.7483 56.5882 32.0975C63.351 25.3347 70.9102 21.9289 73.4719 24.4906C76.0336 27.0523 72.6277 34.6113 65.8648 41.3742C62.214 45.025 58.331 47.6976 55.1274 48.9812C58.331 50.2648 62.214 52.9374 65.8648 56.5882C72.6277 63.3511 76.0336 70.9101 73.4719 73.4718C70.9102 76.0335 63.351 72.6277 56.5882 65.8649C52.9374 62.2141 50.2648 58.331 48.9812 55.1274C47.6977 58.3309 45.0252 62.2139 41.3742 65.8648C34.6113 72.6277 27.0523 76.0335 24.4906 73.4718C21.9289 70.9101 25.3347 63.351 32.0976 56.5881C35.7485 52.9372 39.6315 50.2647 42.835 48.9812C39.6315 47.6977 35.7485 45.0252 32.0976 41.3743C25.3347 34.6114 21.9289 27.0523 24.4906 24.4906C27.0523 21.9289 34.6113 25.3347 41.3742 32.0976C45.0252 35.7485 47.6977 39.6315 48.9812 42.835Z" fill="white"/>
</g>
<defs>
<clipPath id="clip0_309_2837">
<rect width="69.27" height="69.27" fill="white" transform="translate(0 48.9812) rotate(-45)"/>
</clipPath>
</defs>
</svg>
