<svg width="247" height="121" viewBox="0 0 247 121" fill="none" xmlns="http://www.w3.org/2000/svg">
<path fill-rule="evenodd" clip-rule="evenodd" d="M80.3136 28.7352C68.207 26.6404 56.0772 25.0267 43.776 24.0244C37.9975 23.5506 35.1471 23.4105 29.7704 23.3607C29.2269 23.3552 28.0582 23.2016 27.4654 23.22C27.0112 23.2356 26.6862 23.3565 26.5054 23.4568C25.8294 23.8402 25.6254 24.4218 25.651 25.016C25.6594 25.2986 25.7253 25.8401 26.3496 26.3004C29.0452 28.3141 31.8562 30.1291 34.7497 31.7742C28.5909 30.3033 22.6564 28.8627 16.3476 27.5277C13.2543 26.8759 8.9873 26.0365 8.46022 25.9645C7.13751 25.7763 6.75531 27.1691 6.73958 27.2489C6.71977 27.3535 6.49896 28.6333 7.73693 28.9906C46.7614 40.3661 86.0244 50.7473 124.887 62.7306C125.04 62.778 135.444 66.0388 144.175 69.01C140.433 68.1508 135.853 67.0384 130.416 65.6934C105.107 59.4317 79.9807 52.4255 54.4689 46.9542C42.0976 44.3019 42.3874 44.3915 30.0604 42.2154C23.0965 40.9837 23.4359 40.9324 16.2084 40.0359C15.5711 39.9558 14.364 39.4583 13.6786 39.3633C13.18 39.3001 12.7788 39.3843 12.5197 39.4994C12.0885 39.6981 11.8055 40.0141 11.6313 40.4161C11.4821 40.7607 11.3676 41.2659 11.6242 41.9251C11.8949 42.6277 12.4745 43.3542 13.3626 44.0266C14.3884 44.8002 15.8756 45.554 17.6246 46.2519C23.9737 48.7914 33.9651 50.7327 36.2084 51.4014C52.9706 56.3775 70.0054 60.3764 86.8468 65.0969C86.81 65.1963 86.7806 65.2914 86.7621 65.3898C86.6807 65.788 86.7012 66.2829 87.0189 66.8047C87.3512 67.3374 88.536 68.2319 90.2096 69.154C91.7648 70.0134 93.7719 70.9998 95.6534 71.9277C93.136 71.4086 90.5038 70.9125 88.7789 70.7171C88.0314 70.6354 86.1301 70.2745 85.8454 70.3036C84.904 70.4029 84.6157 71.1212 84.5199 71.4498C84.4629 71.634 84.164 72.8311 85.4483 73.3852C96.5022 78.1632 108.417 80.8958 119.323 85.9406C120.04 86.2735 120.902 85.9086 121.248 85.1231C121.593 84.3377 121.292 83.4305 120.575 83.0975C114.926 80.4819 109.008 78.4864 103.073 76.5051C103.838 76.3381 104.231 75.8411 104.398 75.4759C104.595 75.0352 104.722 74.3909 104.234 73.6468C103.994 73.2795 103.344 72.6681 102.094 71.8508C100.444 70.7734 96.6703 69.0119 93.5668 67.4255C94.6898 67.6104 95.8091 67.8073 96.9302 68.0177C105.076 70.4427 114.727 73.4055 122.188 75.6834C128.234 77.5363 134.458 79.379 135.825 79.6851C136.301 79.7933 136.603 79.7439 136.685 79.7303C137.027 79.6536 137.246 79.4869 137.391 79.3493C137.824 78.9364 137.984 78.439 137.884 77.8542C137.866 77.7575 137.765 77.0555 136.871 76.6743C124.336 71.3984 111.091 67.5049 97.6901 65.0029C95.7985 64.4366 93.9907 63.9092 92.3141 63.4226C73.9952 58.1142 55.3834 53.8485 37.1013 48.4213C34.9455 47.7797 25.5502 45.9643 19.2682 43.5564C23.055 44.0583 23.9481 44.2891 29.4626 45.2674C41.7386 47.4343 41.4507 47.3387 53.7765 49.9834C79.2591 55.4522 104.364 62.4516 129.64 68.7031C144.465 72.3694 153.076 74.3 155.682 74.2019C156.864 74.1576 157.466 73.608 157.697 73.23C157.979 72.7833 158.09 72.251 157.887 71.6281C157.831 71.4609 157.723 71.2123 157.475 70.9663C159.283 71.5132 161.089 72.0659 162.895 72.6186C178.851 77.508 194.846 82.3116 210.734 87.4013C211.705 87.7086 212.675 88.0219 213.648 88.3428C221.498 91.0278 229.364 93.6984 237.241 96.3138L237.289 96.335C240.459 97.356 239.45 93.7867 238.296 93.3904C238.178 93.3472 237.352 93.072 237.039 92.9619C234.798 92.1897 232.571 91.3699 230.326 90.6096C225.099 88.8408 219.851 87.0788 214.595 85.3796C175.166 71.8791 135.882 57.8507 95.6287 46.9738C80.1756 42.8004 64.6433 38.9021 49.0686 35.1796C43.1221 32.7909 37.3702 29.987 31.9977 26.4799C35.8933 26.553 38.6415 26.7137 43.4263 27.1078C57.1242 28.2235 70.614 30.1082 84.1021 32.5593C116.161 38.4036 147.204 48.571 179.307 54.136C179.881 54.2357 180.179 54.1455 180.234 54.1234C181.006 53.874 181.215 53.294 181.293 52.8882C181.328 52.7167 181.49 51.5944 180.382 51.1667C179.992 51.0134 177.091 50.2842 175.974 49.9838C173.827 49.4101 171.663 48.8703 169.524 48.2729C161.14 45.9372 152.886 43.8238 144.434 41.708C112.756 33.7668 80.6832 26.3616 49.5002 16.5873C48.7458 16.3537 47.9273 16.8297 47.6679 17.6482C47.4157 18.4624 47.82 19.3237 48.569 19.5556C59.0708 22.847 69.6665 25.8743 80.3136 28.7352Z" fill="white"/>
</svg>
