<svg width="93" height="93" viewBox="0 0 93 93" fill="none" xmlns="http://www.w3.org/2000/svg">
<g clip-path="url(#clip0_235_923)">
<path fill-rule="evenodd" clip-rule="evenodd" d="M8.56967 30.7887C7.2753 24.7915 8.9586 18.2805 13.6195 13.6195C18.2805 8.9586 24.7915 7.2753 30.7887 8.56962C34.1142 3.41371 39.9084 0 46.5 0C53.0914 0 58.8857 3.41372 62.2114 8.56967C68.2085 7.2753 74.7195 8.9586 79.3806 13.6195C84.0413 18.2805 85.7246 24.7915 84.4305 30.7887C89.5864 34.1142 93 39.9084 93 46.5C93 53.0914 89.5864 58.8857 84.4305 62.2114C85.7246 68.2085 84.0413 74.7195 79.3806 79.3806C74.7195 84.0413 68.2085 85.7246 62.2114 84.4305C58.8857 89.5864 53.0914 93 46.5 93C39.9084 93 34.1142 89.5864 30.7887 84.4305C24.7915 85.7246 18.2805 84.0413 13.6195 79.3806C8.9586 74.7195 7.2753 68.2085 8.56967 62.2114C3.41371 58.8857 0 53.0914 0 46.5C0 39.9084 3.41371 34.1142 8.56967 30.7887ZM33.2268 59.7502C40.5226 67.0456 52.3516 67.0456 59.6474 59.7502C66.9433 52.4543 66.9433 40.6253 59.6474 33.3294C52.3516 26.0336 40.5226 26.0336 33.2268 33.3294C25.931 40.6253 25.931 52.4543 33.2268 59.7502Z" fill="white"/>
</g>
<defs>
<clipPath id="clip0_235_923">
<rect width="93" height="93" fill="white"/>
</clipPath>
</defs>
</svg>
