<svg width="93" height="93" viewBox="0 0 93 93" fill="none" xmlns="http://www.w3.org/2000/svg">
<g clip-path="url(#clip0_235_924)">
<path fill-rule="evenodd" clip-rule="evenodd" d="M51.15 0C53.7182 0 55.8 2.08187 55.8 4.65V12.8217C55.8 16.9644 60.8085 19.0391 63.738 16.1097L69.5161 10.3315C71.3324 8.51555 74.2763 8.51555 76.0926 10.3315L82.6686 16.9076C84.4845 18.7235 84.4845 21.6677 82.6686 23.4837L76.8901 29.2619C73.961 32.1913 76.0354 37.2 80.1781 37.2H88.35C90.9182 37.2 93 39.2819 93 41.85V51.15C93 53.7182 90.9182 55.8 88.35 55.8H80.1781C76.0354 55.8 73.961 60.8085 76.8901 63.738L82.6686 69.5161C84.4845 71.3324 84.4845 74.2763 82.6686 76.0926L76.0926 82.6686C74.2763 84.4845 71.3324 84.4845 69.5161 82.6686L63.738 76.8901C60.8085 73.961 55.8 76.0354 55.8 80.1781V88.35C55.8 90.9182 53.7182 93 51.15 93H41.85C39.2819 93 37.2 90.9182 37.2 88.35V80.1781C37.2 76.0354 32.1913 73.961 29.2619 76.8901L23.4837 82.6686C21.6677 84.4845 18.7235 84.4845 16.9076 82.6686L10.3315 76.0926C8.51554 74.2763 8.51554 71.3324 10.3315 69.5161L16.1098 63.738C19.0391 60.8085 16.9645 55.8 12.8217 55.8H4.65C2.08188 55.8 0 53.7182 0 51.15V41.85C0 39.2819 2.08187 37.2 4.65 37.2H12.8217C16.9644 37.2 19.0391 32.1913 16.1098 29.2619L10.3315 23.4837C8.51554 21.6677 8.51554 18.7235 10.3315 16.9076L16.9076 10.3315C18.7235 8.51555 21.6677 8.51555 23.4837 10.3315L29.2619 16.1097C32.1913 19.0391 37.2 16.9644 37.2 12.8217V4.65C37.2 2.08187 39.2819 0 41.85 0H51.15ZM46.5 69.75C59.3405 69.75 69.75 59.3405 69.75 46.5C69.75 33.6594 59.3405 23.25 46.5 23.25C33.6594 23.25 23.25 33.6594 23.25 46.5C23.25 59.3405 33.6594 69.75 46.5 69.75Z" fill="white"/>
</g>
<defs>
<clipPath id="clip0_235_924">
<rect width="93" height="93" fill="white"/>
</clipPath>
</defs>
</svg>
