<svg width="203" height="132" viewBox="0 0 203 132" fill="none" xmlns="http://www.w3.org/2000/svg">
<path fill-rule="evenodd" clip-rule="evenodd" d="M175.295 1.25812C177.392 0.563279 179.655 1.69997 180.35 3.79699L196.807 53.4639C197.502 55.5609 196.365 57.8242 194.268 58.519L163.324 68.7721L158.739 86.5163L144.858 74.891L22.7693 115.345C20.6723 116.039 18.4091 114.903 17.7142 112.806L1.25725 63.1387C0.562413 61.0417 1.69911 58.7785 3.79612 58.0836L175.295 1.25812Z" fill="#F8D748"/>
<path d="M194.268 58.519L194.425 58.9937L194.268 58.519ZM163.324 68.7721L162.84 68.647C162.883 68.4825 163.006 68.3509 163.167 68.2975L163.324 68.7721ZM158.739 86.5163L159.223 86.6414C159.18 86.8075 159.055 86.94 158.891 86.9924C158.728 87.0448 158.549 87.0098 158.418 86.8996L158.739 86.5163ZM144.858 74.891L144.7 74.4164C144.865 74.3619 145.046 74.3965 145.179 74.5077L144.858 74.891ZM22.7693 115.345L22.6121 114.87L22.7693 115.345ZM17.7142 112.806L18.1888 112.648L17.7142 112.806ZM1.25725 63.1387L0.78263 63.296L1.25725 63.1387ZM179.875 3.95426C179.267 2.11936 177.287 1.12476 175.452 1.73274L175.138 0.783496C177.497 0.00180047 180.043 1.28058 180.825 3.63973L179.875 3.95426ZM196.332 53.6212L179.875 3.95426L180.825 3.63973L197.282 53.3067L196.332 53.6212ZM194.111 58.0444C195.946 57.4364 196.94 55.4561 196.332 53.6212L197.282 53.3067C198.063 55.6658 196.784 58.212 194.425 58.9937L194.111 58.0444ZM163.167 68.2975L194.111 58.0444L194.425 58.9937L163.482 69.2467L163.167 68.2975ZM158.255 86.3912L162.84 68.647L163.809 68.8972L159.223 86.6414L158.255 86.3912ZM145.179 74.5077L159.06 86.133L158.418 86.8996L144.536 75.2744L145.179 74.5077ZM22.6121 114.87L144.7 74.4164L145.015 75.3657L22.9266 115.819L22.6121 114.87ZM18.1888 112.648C18.7968 114.483 20.7772 115.478 22.6121 114.87L22.9266 115.819C20.5674 116.601 18.0213 115.322 17.2396 112.963L18.1888 112.648ZM1.73188 62.9815L18.1888 112.648L17.2396 112.963L0.78263 63.296L1.73188 62.9815ZM3.95339 58.5582C2.1185 59.1662 1.12389 61.1466 1.73188 62.9815L0.78263 63.296C0.000934287 60.9368 1.27971 58.3907 3.63886 57.609L3.95339 58.5582ZM175.452 1.73274L3.95339 58.5582L3.63886 57.609L175.138 0.783496L175.452 1.73274Z" fill="#F8D748"/>
<path d="M51.3283 68.9431L51.8585 70.5372L45.8614 72.5316L46.8712 75.5681L52.4128 73.7252L52.943 75.3193L47.4014 77.1623L48.8657 81.5652L47.1956 82.1206L43.6612 71.4929L51.3283 68.9431ZM53.4804 74.1289C53.1472 73.1268 53.0854 72.1301 53.2953 71.1385C53.5118 70.1335 53.9594 69.2483 54.6379 68.4831C55.3265 67.7145 56.182 67.1602 57.2043 66.8203C58.2265 66.4803 59.2385 66.4135 60.2402 66.62C61.252 66.823 62.1405 67.2638 62.9057 67.9424C63.6777 68.6074 64.2303 69.4409 64.5636 70.443C64.8968 71.445 64.9552 72.4485 64.7386 73.4536C64.5288 74.4451 64.0795 75.3252 63.3909 76.0938C62.7124 76.859 61.862 77.4116 60.8397 77.7516C59.8174 78.0916 58.8004 78.16 57.7886 77.9569C56.7869 77.7505 55.9001 77.3148 55.1281 76.6497C54.3629 75.9712 53.8137 75.1309 53.4804 74.1289ZM55.2314 73.5634C55.4839 74.3225 55.8748 74.9401 56.404 75.416C56.9434 75.8886 57.5554 76.191 58.24 76.323C58.9213 76.4449 59.6111 76.3897 60.3095 76.1574C61.0079 75.9252 61.5917 75.5512 62.0609 75.0354C62.5302 74.5196 62.8342 73.9127 62.9729 73.2145C63.1218 72.513 63.07 71.7827 62.8176 71.0236C62.5651 70.2645 62.1743 69.6469 61.645 69.171C61.1158 68.695 60.5088 68.391 59.8242 68.259C59.1395 68.127 58.4429 68.1788 57.7344 68.4144C57.0259 68.65 56.4387 69.0308 55.9729 69.5567C55.5037 70.0724 55.1997 70.6794 55.0609 71.3775C54.9221 72.0757 54.979 72.8043 55.2314 73.5634ZM73.8378 73.2602C73.6187 73.0408 73.4249 72.7792 73.2565 72.4755C73.0846 72.1617 72.8826 71.6556 72.6503 70.9572C72.4046 70.2184 72.0727 69.7611 71.6545 69.5854C71.233 69.3996 70.7136 69.4093 70.0961 69.6147L67.5151 70.473L68.9794 74.8759L67.3093 75.4314L63.7749 64.8037L68.861 63.1122C69.5695 62.8766 70.2239 62.7994 70.8243 62.8808C71.4246 62.9622 71.9305 63.1818 72.3417 63.5396C72.7598 63.8839 73.058 64.3243 73.2364 64.8608C73.4619 65.5389 73.4682 66.1832 73.2553 66.7936C73.039 67.3938 72.6356 67.9214 72.045 68.3764C72.6285 68.4072 73.1293 68.5778 73.5473 68.8885C73.962 69.1889 74.2973 69.6732 74.5532 70.3413C74.7889 70.9486 74.9825 71.3957 75.1341 71.6825C75.2925 71.9558 75.5166 72.1735 75.8066 72.3356L75.8874 72.5785L73.8378 73.2602ZM70.2492 67.7933C70.8261 67.6014 71.2277 67.3217 71.454 66.9542C71.6903 66.5834 71.7277 66.155 71.5661 65.6692C71.4046 65.1833 71.1181 64.8627 70.7067 64.7072C70.3054 64.5484 69.8163 64.565 69.2393 64.7568L65.9751 65.8424L66.985 68.8789L70.2492 67.7933ZM76.2381 60.6588L81.2483 58.9925C81.8961 58.7771 82.5201 58.7101 83.1205 58.7914C83.7276 58.8593 84.2486 59.057 84.6835 59.3845C85.1184 59.712 85.4234 60.1389 85.5984 60.6652C85.7735 61.1915 85.7816 61.7059 85.6227 62.2084C85.4739 62.7075 85.17 63.1627 84.711 63.5739C85.389 63.517 85.986 63.6557 86.5018 63.99C87.0244 64.3108 87.3968 64.8052 87.619 65.4732C87.8008 66.0198 87.8088 66.5679 87.6432 67.1176C87.4843 67.6539 87.1787 68.1377 86.7264 68.5691C86.2808 68.9871 85.7342 69.3038 85.0864 69.5192L79.7726 71.2865L76.2381 60.6588ZM82.6367 63.4207C83.2338 63.2221 83.6438 62.9508 83.8667 62.6069C84.0963 62.2495 84.1337 61.838 83.9789 61.3724C83.8341 60.9372 83.551 60.6604 83.1294 60.5421C82.7045 60.4136 82.2289 60.4369 81.7025 60.6119L78.4383 61.6975L79.3724 64.5063L82.6367 63.4207ZM84.4803 67.9503C85.0168 67.7719 85.4065 67.4905 85.6497 67.1062C85.8996 66.7083 85.9488 66.2816 85.7973 65.8262C85.6525 65.3909 85.361 65.072 84.9226 64.8693C84.4843 64.6666 83.9918 64.6562 83.4452 64.8379L79.8774 66.0245L80.9124 69.1369L84.4803 67.9503ZM87.4951 56.915L89.5855 63.2005C89.8918 64.1216 90.3822 64.751 91.0566 65.0888C91.7411 65.4232 92.4933 65.4541 93.3131 65.1814C94.133 64.9087 94.7118 64.4352 95.0495 63.7608C95.3974 63.0831 95.4182 62.2837 95.1119 61.3626L93.0215 55.0771L94.6916 54.5217L96.8123 60.8983C97.1018 61.7687 97.1754 62.5986 97.0332 63.3878C96.8977 64.1635 96.5532 64.8514 95.9996 65.4514C95.4528 66.0379 94.734 66.4793 93.8433 66.7756C92.9526 67.0718 92.1076 67.1505 91.3082 67.0116C90.5157 66.8593 89.8278 66.5148 89.2446 65.978C88.6682 65.4278 88.2352 64.7175 87.9457 63.847L85.8251 57.4704L87.4951 56.915ZM103.21 55.3982C102.866 54.838 102.433 54.465 101.911 54.2791C101.395 54.0798 100.808 54.0895 100.15 54.3083C99.5729 54.5002 99.1544 54.7798 98.8944 55.1473C98.6311 55.5047 98.56 55.8656 98.6812 56.2299C98.8428 56.7158 99.2153 57.0078 99.7988 57.106C100.379 57.1941 101.106 57.1828 101.979 57.0721C103.282 56.8976 104.319 56.9573 105.091 57.2513C105.863 57.5453 106.391 58.1174 106.674 58.9676C106.876 59.5749 106.885 60.1787 106.703 60.779C106.517 61.3692 106.152 61.912 105.609 62.4075C105.072 62.8895 104.399 63.2651 103.589 63.5344C102.577 63.871 101.545 63.9445 100.492 63.7549C99.4469 63.5518 98.5383 62.9153 97.7666 61.8455L99.0325 60.3285C99.511 61.1249 100.099 61.6599 100.797 61.9336C101.495 62.2073 102.254 62.2078 103.074 61.9352C103.793 61.6962 104.323 61.3626 104.664 60.9345C105.004 60.5063 105.101 60.0696 104.953 59.6242C104.811 59.1991 104.505 58.9189 104.033 58.7837C103.567 58.6349 102.854 58.6361 101.892 58.7873C100.597 58.982 99.5361 58.9358 98.7099 58.6485C97.8904 58.3477 97.3258 57.7317 97.0162 56.8005C96.8445 56.2843 96.8364 55.7531 96.992 55.2067C97.1576 54.657 97.4801 54.1564 97.9594 53.7047C98.4387 53.253 99.0427 52.906 99.7714 52.6636C100.662 52.3674 101.532 52.3309 102.382 52.5541C103.229 52.7672 103.935 53.2349 104.501 53.9571L103.21 55.3982ZM104.978 51.1007L106.648 50.5453L110.182 61.173L108.512 61.7284L104.978 51.1007ZM113.278 60.1434L111.608 60.6989L108.074 50.0712L110.974 49.1068L119.059 56.889L115.923 47.4607L117.593 46.9053L121.128 57.533L118.228 58.4974L110.148 50.7304L113.278 60.1434ZM126.771 43.8531L127.301 45.4473L121.228 47.467L122.137 50.1998L127.754 48.3316L128.284 49.9257L122.667 51.794L123.702 54.9064L129.927 52.8362L130.457 54.4303L122.562 57.0559L119.028 46.4282L126.771 43.8531ZM135.046 44.8106C134.702 44.2504 134.269 43.8774 133.746 43.6915C133.23 43.4922 132.643 43.5019 131.985 43.7207C131.408 43.9126 130.99 44.1922 130.73 44.5597C130.467 44.9171 130.396 45.278 130.517 45.6424C130.678 46.1282 131.051 46.4202 131.634 46.5184C132.214 46.6065 132.941 46.5952 133.815 46.4845C135.117 46.31 136.154 46.3697 136.927 46.6637C137.699 46.9577 138.226 47.5298 138.509 48.38C138.711 48.9873 138.721 49.5911 138.538 50.1914C138.352 50.7816 137.988 51.3244 137.444 51.8199C136.908 52.3019 136.234 52.6775 135.425 52.9468C134.413 53.2834 133.38 53.3569 132.328 53.1673C131.282 52.9642 130.374 52.3277 129.602 51.2579L130.868 49.7409C131.347 50.5373 131.935 51.0723 132.633 51.346C133.331 51.6197 134.09 51.6202 134.91 51.3476C135.628 51.1086 136.158 50.775 136.499 50.3469C136.84 49.9187 136.937 49.482 136.788 49.0366C136.647 48.6115 136.34 48.3313 135.868 48.1961C135.403 48.0473 134.689 48.0485 133.728 48.1997C132.432 48.3944 131.372 48.3482 130.545 48.0609C129.726 47.7601 129.161 47.1441 128.852 46.2129C128.68 45.6967 128.672 45.1655 128.828 44.6191C128.993 44.0694 129.316 43.5688 129.795 43.1171C130.274 42.6654 130.878 42.3184 131.607 42.076C132.498 41.7798 133.368 41.7433 134.218 41.9665C135.064 42.1796 135.771 42.6473 136.337 43.3695L135.046 44.8106ZM144.028 41.8235C143.684 41.2633 143.251 40.8903 142.728 40.7044C142.212 40.505 141.625 40.5148 140.967 40.7336C140.39 40.9254 139.972 41.2051 139.712 41.5726C139.449 41.93 139.378 42.2908 139.499 42.6552C139.66 43.1411 140.033 43.4331 140.616 43.5313C141.196 43.6194 141.923 43.6081 142.797 43.4974C144.099 43.3229 145.136 43.3826 145.909 43.6766C146.681 43.9706 147.208 44.5427 147.491 45.3929C147.693 46.0002 147.703 46.604 147.52 47.2043C147.334 47.7945 146.97 48.3373 146.426 48.8327C145.89 49.3147 145.216 49.6904 144.407 49.9597C143.394 50.2963 142.362 50.3698 141.31 50.1802C140.264 49.9771 139.356 49.3406 138.584 48.2708L139.85 46.7538C140.328 47.5502 140.917 48.0852 141.615 48.3589C142.313 48.6326 143.072 48.6331 143.892 48.3605C144.61 48.1215 145.14 47.7879 145.481 47.3597C145.822 46.9316 145.918 46.4948 145.77 46.0495C145.629 45.6244 145.322 45.3442 144.85 45.209C144.385 45.0602 143.671 45.0614 142.71 45.2125C141.414 45.4073 140.354 45.361 139.527 45.0738C138.708 44.773 138.143 44.157 137.834 43.2258C137.662 42.7096 137.654 42.1783 137.809 41.632C137.975 41.0823 138.298 40.5816 138.777 40.13C139.256 39.6783 139.86 39.3313 140.589 39.0889C141.48 38.7927 142.35 38.7562 143.2 38.9794C144.046 39.1925 144.753 39.6601 145.319 40.3824L144.028 41.8235Z" fill="black"/>
</svg>
