<svg width="102" height="102" viewBox="0 0 102 102" fill="none" xmlns="http://www.w3.org/2000/svg">
<g clip-path="url(#clip0_6120_6950)">
<path d="M64.8888 56.2571C74.3866 59.8526 87.1707 59.1972 95.3103 54.6975L102 51L95.3103 47.3024C87.1707 42.803 74.3871 42.1478 64.8888 45.7427L57.7662 48.4388C57.7218 48.2953 57.6682 48.1568 57.6157 48.0173L64.5385 44.8964C73.797 40.7224 82.3727 31.2196 84.9471 22.2823L87.0626 14.9373L79.7176 17.0527C70.7804 19.6269 61.2775 28.203 57.1032 37.4613L54.0891 44.1477C53.9498 44.0801 53.8106 44.013 53.6668 43.9544L56.2571 37.1109C59.8521 27.6131 59.1967 14.8291 54.6975 6.68931L51 0L47.3024 6.68952C42.803 14.8294 42.1478 27.6131 45.7427 37.1112L48.3331 43.9547C48.1891 44.0133 48.0499 44.0804 47.9108 44.1479L44.8964 37.4615C40.7224 28.2033 31.2196 19.6271 22.2823 17.053L14.9373 14.9375L17.0527 22.2825C19.6269 31.2196 28.203 40.7227 37.4613 44.8966L44.384 48.0176C44.3316 48.1571 44.2777 48.2956 44.2338 48.4391L37.1109 45.743C27.6131 42.1478 14.8291 42.8032 6.68931 47.3026L0 51L6.68952 54.6975C14.8294 59.1972 27.6131 59.8526 37.1112 56.2571L44.5669 53.4352C44.6257 53.5638 44.6848 53.6928 44.751 53.8172L37.4615 57.1037C28.2033 61.2775 19.6272 70.7804 17.053 79.7176L14.9375 87.0626L22.2825 84.9471C31.2196 82.3732 40.7227 73.797 44.8966 64.539L48.2795 57.0353C48.4045 57.0874 48.5342 57.1302 48.6628 57.1756L45.743 64.8893C42.1478 74.3871 42.8032 87.1712 47.3026 95.3108L51 102.001L54.698 95.3108C59.1972 87.1712 59.8526 74.3876 56.2576 64.8893L53.3373 57.1751C53.4658 57.1302 53.5959 57.0874 53.7208 57.0348L57.1037 64.5385C61.2775 73.797 70.7804 82.3727 79.7176 84.9471L87.0626 87.0626L84.9471 79.7176C82.3732 70.7804 73.797 61.2775 64.539 57.1032L57.249 53.8172C57.3153 53.6928 57.3745 53.5638 57.4331 53.4347L64.8888 56.2571Z" fill="#F8D748"/>
</g>
<defs>
<clipPath id="clip0_6120_6950">
<rect width="102" height="102" fill="white"/>
</clipPath>
</defs>
</svg>
