<svg width="61" height="65" viewBox="0 0 61 65" fill="none" xmlns="http://www.w3.org/2000/svg">
<path d="M3.91207 64.6707H2.79199V57.6328H6.10132C6.59009 57.6328 7.00757 57.73 7.35378 57.9243C7.69998 58.1187 7.95794 58.3768 8.12765 58.6985C8.30415 59.0135 8.3924 59.3621 8.3924 59.7441C8.3924 60.1061 8.30415 60.4513 8.12765 60.7797C7.95115 61.1014 7.6898 61.3629 7.3436 61.5639C7.00418 61.7583 6.59009 61.8555 6.10132 61.8555H3.91207V64.6707ZM5.9995 60.7998C6.35928 60.7998 6.65118 60.706 6.8752 60.5183C7.106 60.3239 7.2214 60.0659 7.2214 59.7441C7.2214 59.4224 7.106 59.1677 6.8752 58.98C6.65118 58.7856 6.35928 58.6885 5.9995 58.6885H3.91207V60.7998H5.9995Z" fill="white"/>
<path d="M9.57373 57.6328H10.6938V64.6707H9.57373V57.6328Z" fill="white"/>
<path d="M13.2792 64.6707H12.1591V57.6328H14.104L17.4235 63.8764V57.6328H18.5436V64.6707H16.5987L13.2792 58.4371V64.6707Z" fill="white"/>
<path d="M22.143 60.8501L19.8519 57.6328H21.2266L22.8049 59.9955L24.3832 57.6328H25.7578L23.4667 60.8501L26.1651 64.6707H24.7905L22.8049 61.755L20.8193 64.6707H19.4446L22.143 60.8501Z" fill="white"/>
<path d="M27.0651 57.6328H28.1851V64.6707H27.0651V57.6328Z" fill="white"/>
<path d="M35.5156 58.6885H32.9191V64.6707H31.799V58.6885H29.2024V57.6328H35.5156V58.6885Z" fill="white"/>
<path d="M36.1204 63.4642V64.6707H34.8985V63.4642H36.1204Z" fill="white"/>
<path d="M37.4863 57.6328H40.8465C41.281 57.6328 41.6713 57.7166 42.0175 57.8841C42.3705 58.045 42.6454 58.2662 42.8423 58.5477C43.0392 58.8292 43.1376 59.1442 43.1376 59.4928C43.1376 59.8413 43.0392 60.1497 42.8423 60.4178C42.6522 60.6859 42.3773 60.897 42.0175 61.0512C42.4384 61.1517 42.771 61.3528 43.0154 61.6544C43.2666 61.9493 43.3922 62.318 43.3922 62.7604C43.3922 63.1223 43.2869 63.4508 43.0765 63.7457C42.8728 64.0339 42.5911 64.2618 42.2313 64.4294C41.8783 64.5902 41.4846 64.6707 41.0502 64.6707H37.4863V57.6328ZM40.7956 60.5485C41.1961 60.5485 41.4982 60.468 41.7018 60.3072C41.9123 60.1396 42.0175 59.9017 42.0175 59.5933C42.0175 59.3051 41.9021 59.0839 41.6713 58.9298C41.4405 58.7689 41.1486 58.6885 40.7956 58.6885H38.6063V60.5485H40.7956ZM40.9992 63.615C41.359 63.615 41.6509 63.5245 41.875 63.3435C42.1058 63.1558 42.2212 62.9112 42.2212 62.6096C42.2212 62.3213 42.1091 62.0733 41.8851 61.8656C41.6611 61.6578 41.3658 61.5539 40.9992 61.5539H38.6063V63.615H40.9992Z" fill="white"/>
<path d="M44.2012 61.1517C44.2012 60.4881 44.3641 59.8815 44.6899 59.3319C45.0226 58.7756 45.4706 58.3366 46.034 58.0148C46.6043 57.6931 47.2322 57.5322 47.9178 57.5322C48.6034 57.5322 49.228 57.6931 49.7914 58.0148C50.3616 58.3366 50.8097 58.7756 51.1355 59.3319C51.4681 59.8815 51.6344 60.4881 51.6344 61.1517C51.6344 61.8153 51.4681 62.4252 51.1355 62.9816C50.8097 63.5312 50.3616 63.9669 49.7914 64.2886C49.228 64.6103 48.6034 64.7712 47.9178 64.7712C47.2322 64.7712 46.6043 64.6103 46.034 64.2886C45.4706 63.9669 45.0226 63.5312 44.6899 62.9816C44.3641 62.4252 44.2012 61.8153 44.2012 61.1517ZM45.3722 61.1618C45.3722 61.6645 45.4842 62.1102 45.7082 62.499C45.939 62.8877 46.2479 63.1894 46.6348 63.4038C47.0218 63.6116 47.4494 63.7155 47.9178 63.7155C48.3862 63.7155 48.8139 63.6083 49.2008 63.3938C49.5878 63.1793 49.8932 62.8777 50.1173 62.4889C50.3481 62.1002 50.4635 61.6544 50.4635 61.1517C50.4635 60.649 50.3515 60.2033 50.1274 59.8145C49.9034 59.4258 49.5979 59.1241 49.211 58.9096C48.8241 58.6952 48.393 58.5879 47.9178 58.5879C47.4426 58.5879 47.0116 58.6985 46.6246 58.9197C46.2377 59.1342 45.9322 59.4358 45.7082 59.8246C45.4842 60.2133 45.3722 60.6591 45.3722 61.1618Z" fill="white"/>
<path d="M58.2076 58.6885H55.6111V64.6707H54.491V58.6885H51.8944V57.6328H58.2076V58.6885Z" fill="white"/>
<path d="M18.7681 12.6324C19.3103 14.3229 18.5832 16.1167 17.1164 16.9829C17.311 16.9529 17.5046 16.908 17.6977 16.8459C19.6582 16.2168 20.7384 14.1156 20.1085 12.1551L19.4233 10.0314H43.072L45.4 2.81891C46.0291 0.858411 48.1296 -0.221814 50.0908 0.408098C52.0513 1.03723 53.1316 3.13836 52.5018 5.0989L50.4223 11.5424C52.4374 12.4363 54.2574 13.6953 55.7967 15.2346C59.0073 18.4452 61 22.8781 61 27.7559C61 32.6337 59.0073 37.0665 55.7967 40.2771C53.6507 42.4224 50.9593 44.024 47.9538 44.8513V51.9821L36.5006 45.4803H17.7246C12.8468 45.4803 8.41364 43.4876 5.20334 40.2771C1.99267 37.0665 0 32.6337 0 27.7559C0 22.8781 1.99267 18.4452 5.20334 15.2346C6.74279 13.6953 8.56282 12.4363 10.5777 11.5424L8.49839 5.0989C7.86861 3.13836 8.9487 1.03723 10.9093 0.408098C12.8706 -0.221814 14.9711 0.858411 15.6001 2.81891L18.7681 12.6324ZM19.2558 24.5088C21.0488 24.5088 22.5022 25.9629 22.5022 27.7559C22.5022 29.5489 21.0488 31.0023 19.2558 31.0023C17.462 31.0023 16.0086 29.5489 16.0086 27.7559C16.0086 25.9629 17.462 24.5088 19.2558 24.5088ZM41.7452 24.5088C43.5381 24.5088 44.9916 25.9629 44.9916 27.7559C44.9916 29.5489 43.5381 31.0023 41.7452 31.0023C39.9514 31.0023 38.498 29.5489 38.498 27.7559C38.498 25.9629 39.9514 24.5088 41.7452 24.5088ZM30.5002 24.5088C32.2932 24.5088 33.7466 25.9629 33.7466 27.7559C33.7466 29.5489 32.2932 31.0023 30.5002 31.0023C28.707 31.0023 27.2536 29.5489 27.2536 27.7559C27.2536 25.9629 28.707 24.5088 30.5002 24.5088ZM43.2756 17.5132H17.7246C14.9118 17.5132 12.3523 18.6666 10.4941 20.5247C8.63608 22.3829 7.48255 24.9433 7.48255 27.7559C7.48255 30.5685 8.63608 33.129 10.4941 34.987C12.3523 36.8451 14.9118 37.9986 17.7246 37.9986H43.2756C46.0883 37.9986 48.6479 36.8451 50.506 34.987C52.3641 33.129 53.5176 30.5685 53.5176 27.7559C53.5176 24.9433 52.3641 22.3829 50.506 20.5247C48.6479 18.6666 46.0883 17.5132 43.2756 17.5132Z" fill="#DE307E"/>
</svg>
