<svg width="422" height="134" viewBox="0 0 422 134" fill="none" xmlns="http://www.w3.org/2000/svg">
<mask id="mask0_622_554" style="mask-type:alpha" maskUnits="userSpaceOnUse" x="0" y="0" width="422" height="134">
<rect width="422" height="134" fill="#D9D9D9"/>
</mask>
<g mask="url(#mask0_622_554)">
<mask id="mask1_622_554" style="mask-type:alpha" maskUnits="userSpaceOnUse" x="-121" y="-9" width="547" height="170">
<path d="M-118.113 6.83942C-118.001 -1.29252 -111.14 -7.8959 -102.789 -7.90964L410.798 -8.75443C419.148 -8.76817 425.826 -2.18705 425.714 5.94489L423.788 144.855C423.675 152.986 416.814 159.59 408.464 159.604L-105.124 160.448C-113.474 160.462 -120.152 153.881 -120.039 145.749L-118.113 6.83942Z" fill="#F8D748"/>
</mask>
<g mask="url(#mask1_622_554)">
<path fill-rule="evenodd" clip-rule="evenodd" d="M151.783 -52.7065L152.251 -52.3833C154.124 -51.0118 155.968 -49.6153 157.424 -48.6904C177.307 -36.0864 190.647 -21.67 200.962 -9.16098C225.609 20.7665 253.784 50.9883 283.147 81.2448C291.373 89.7223 301.782 98.3077 311.14 106.818C313.914 109.336 316.76 111.845 319.6 114.359C320.86 115.455 322.321 117.709 323.566 118.896C324.443 119.751 325.53 120.397 326.299 120.772C328.277 121.711 330.198 122.152 331.966 122.283C333.118 122.376 334.837 122.392 335.772 121.55C345.508 112.666 344.501 96.1689 339.111 77.4052C331.193 49.8451 314.015 17.4023 309.907 -1.90472C308.835 -6.97959 302.078 -18.2014 298.998 -27.4302C297.612 -31.5259 296.808 -35.2412 297.935 -37.6091C300.302 -35.1268 302.639 -32.0703 304.593 -30.2989C313.045 -22.6453 319.07 -15.07 326.583 -7.46088C349.422 15.6826 447.96 86.9654 483.349 110.06C511.962 128.741 692.636 233.275 826.974 283.944C829.86 285.032 833.159 285.264 834.352 284.459C835.544 283.654 834.161 282.118 831.296 281.037C698.569 230.975 520.156 127.683 491.884 109.227C456.893 86.3867 359.368 15.9185 336.813 -6.9491C329.207 -14.6611 323.055 -22.3344 314.504 -30.0845C311.418 -32.8802 307.153 -38.6457 303.49 -41.1472C301.424 -42.5595 299.058 -43.4484 297.151 -43.9021C294.816 -44.4525 292.006 -44.7707 289.944 -43.7828C286.585 -42.1595 285.699 -38.5389 286.576 -33.895C288.426 -24.22 297.406 -9.97301 298.668 -4.07062C302.776 15.2628 319.954 47.7588 327.899 75.373C332.31 90.7581 333.939 104.623 328.477 113.646C325.97 111.442 323.513 109.247 321.071 107.04C311.806 98.6326 301.531 90.165 293.397 81.7903C264.169 51.6517 236.079 21.5391 211.53 -8.2654C200.743 -21.3555 186.588 -36.4462 165.81 -49.6284C162.876 -51.4857 158.235 -55.2763 154.961 -56.863C152.861 -57.8799 150.784 -58.4724 149.09 -58.7457C147.003 -59.0943 144.833 -59.1622 143.475 -58.2913C137.877 -54.7416 134.298 -46.7073 132.188 -36.6101C127.423 -13.6672 129.781 19.9964 129.224 33.4423C128.847 42.4722 129.47 51.7803 128.315 60.6267C128.259 61.0674 125.253 68.993 123.807 72.7629C118.499 70.0496 111.842 65.9528 104.448 61.1916C78.4882 44.4548 45.4995 19.7118 35.3124 12.2131C15.7611 -2.16936 -3.04581 -16.548 -23.2279 -30.903C-55.0764 -53.5568 -88.2512 -76.0989 -119.648 -98.7809C-121.493 -100.125 -125.04 -101.108 -127.527 -100.976C-130.043 -100.846 -130.553 -99.6439 -128.701 -98.3064C-97.2973 -75.6043 -64.0869 -53.0409 -32.2028 -30.3658C-12.0846 -16.0596 6.67225 -1.71604 26.174 12.6313C36.4604 20.2002 69.783 45.1749 95.9842 62.067C107.987 69.8108 118.837 75.9214 125.538 78.3603C127.406 79.0307 131.561 80.0577 133.579 78.6118C136.153 76.7585 139.516 63.9743 139.603 63.3497C140.752 54.4568 140.123 45.1023 140.514 36.0334C141.078 22.634 138.712 -10.9176 143.468 -33.7748C145.174 -42.004 147.714 -48.8439 151.783 -52.7065Z" fill="#F8D748"/>
</g>
</g>
</svg>
